<mxfile host="Electron" agent="Mozilla/5.0 (Macintosh; Intel Mac OS X 10_15_7) AppleWebKit/537.36 (KHTML, like Gecko) draw.io/24.7.8 Chrome/128.0.6613.36 Electron/32.0.1 Safari/537.36" version="24.7.8" pages="4">
  <diagram name="ERD" id="Wh-VTUJykiRkQMBlnDWm">
    <mxGraphModel dx="954" dy="769" grid="1" gridSize="10" guides="1" tooltips="1" connect="1" arrows="1" fold="1" page="1" pageScale="1" pageWidth="827" pageHeight="1169" math="0" shadow="0">
      <root>
        <mxCell id="0" />
        <mxCell id="1" parent="0" />
        <mxCell id="2-SQ8LXe0lvmscW9OIa0-1" value="Cohorts" style="swimlane;fontStyle=2;align=center;verticalAlign=top;childLayout=stackLayout;horizontal=1;startSize=26;horizontalStack=0;resizeParent=1;resizeLast=0;collapsible=1;marginBottom=0;rounded=0;shadow=0;strokeWidth=1;fontSize=19;fillColor=#f8cecc;strokeColor=#b85450;" parent="1" vertex="1">
          <mxGeometry x="370" y="200" width="160" height="138" as="geometry">
            <mxRectangle x="230" y="140" width="160" height="26" as="alternateBounds" />
          </mxGeometry>
        </mxCell>
        <mxCell id="2-SQ8LXe0lvmscW9OIa0-2" value="id" style="text;align=left;verticalAlign=top;spacingLeft=4;spacingRight=4;overflow=hidden;rotatable=0;points=[[0,0.5],[1,0.5]];portConstraint=eastwest;fontSize=19;fillColor=#f8cecc;strokeColor=#b85450;" parent="2-SQ8LXe0lvmscW9OIa0-1" vertex="1">
          <mxGeometry y="26" width="160" height="26" as="geometry" />
        </mxCell>
        <mxCell id="2-SQ8LXe0lvmscW9OIa0-3" value="name" style="text;align=left;verticalAlign=top;spacingLeft=4;spacingRight=4;overflow=hidden;rotatable=0;points=[[0,0.5],[1,0.5]];portConstraint=eastwest;rounded=0;shadow=0;html=0;fontSize=19;fillColor=#f8cecc;strokeColor=#b85450;" parent="2-SQ8LXe0lvmscW9OIa0-1" vertex="1">
          <mxGeometry y="52" width="160" height="26" as="geometry" />
        </mxCell>
        <mxCell id="2-SQ8LXe0lvmscW9OIa0-4" value="cohort_type" style="text;align=left;verticalAlign=top;spacingLeft=4;spacingRight=4;overflow=hidden;rotatable=0;points=[[0,0.5],[1,0.5]];portConstraint=eastwest;rounded=0;shadow=0;html=0;fontSize=19;fillColor=#f8cecc;strokeColor=#b85450;" parent="2-SQ8LXe0lvmscW9OIa0-1" vertex="1">
          <mxGeometry y="78" width="160" height="26" as="geometry" />
        </mxCell>
        <mxCell id="2-SQ8LXe0lvmscW9OIa0-5" value="..." style="text;align=left;verticalAlign=top;spacingLeft=4;spacingRight=4;overflow=hidden;rotatable=0;points=[[0,0.5],[1,0.5]];portConstraint=eastwest;fontSize=19;fillColor=#f8cecc;strokeColor=#b85450;" parent="2-SQ8LXe0lvmscW9OIa0-1" vertex="1">
          <mxGeometry y="104" width="160" height="26" as="geometry" />
        </mxCell>
        <mxCell id="2-SQ8LXe0lvmscW9OIa0-6" value="" style="line;html=1;strokeWidth=1;align=left;verticalAlign=middle;spacingTop=-1;spacingLeft=3;spacingRight=3;rotatable=0;labelPosition=right;points=[];portConstraint=eastwest;fontSize=19;fillColor=#f8cecc;strokeColor=#b85450;" parent="2-SQ8LXe0lvmscW9OIa0-1" vertex="1">
          <mxGeometry y="130" width="160" height="8" as="geometry" />
        </mxCell>
        <mxCell id="2-SQ8LXe0lvmscW9OIa0-7" value="1..n" style="edgeStyle=orthogonalEdgeStyle;curved=1;rounded=0;orthogonalLoop=1;jettySize=auto;html=1;entryX=0.5;entryY=1;entryDx=0;entryDy=0;startArrow=none;startFill=0;endArrow=diamondThin;endFill=0;strokeWidth=2;endSize=20;fontSize=19;" parent="1" source="2-SQ8LXe0lvmscW9OIa0-8" target="2-SQ8LXe0lvmscW9OIa0-1" edge="1">
          <mxGeometry relative="1" as="geometry">
            <mxPoint x="450" y="364" as="targetPoint" />
          </mxGeometry>
        </mxCell>
        <mxCell id="2-SQ8LXe0lvmscW9OIa0-8" value="Individuals" style="swimlane;fontStyle=2;align=center;verticalAlign=top;childLayout=stackLayout;horizontal=1;startSize=26;horizontalStack=0;resizeParent=1;resizeLast=0;collapsible=1;marginBottom=0;rounded=0;shadow=0;strokeWidth=1;fontSize=19;fillColor=#fff2cc;strokeColor=#d6b656;" parent="1" vertex="1">
          <mxGeometry x="370" y="456" width="160" height="138" as="geometry">
            <mxRectangle x="230" y="140" width="160" height="26" as="alternateBounds" />
          </mxGeometry>
        </mxCell>
        <mxCell id="2-SQ8LXe0lvmscW9OIa0-9" value="id" style="text;align=left;verticalAlign=top;spacingLeft=4;spacingRight=4;overflow=hidden;rotatable=0;points=[[0,0.5],[1,0.5]];portConstraint=eastwest;fontSize=19;fillColor=#fff2cc;strokeColor=#d6b656;" parent="2-SQ8LXe0lvmscW9OIa0-8" vertex="1">
          <mxGeometry y="26" width="160" height="26" as="geometry" />
        </mxCell>
        <mxCell id="2-SQ8LXe0lvmscW9OIa0-10" value="sex" style="text;align=left;verticalAlign=top;spacingLeft=4;spacingRight=4;overflow=hidden;rotatable=0;points=[[0,0.5],[1,0.5]];portConstraint=eastwest;rounded=0;shadow=0;html=0;fontSize=19;fillColor=#fff2cc;strokeColor=#d6b656;" parent="2-SQ8LXe0lvmscW9OIa0-8" vertex="1">
          <mxGeometry y="52" width="160" height="26" as="geometry" />
        </mxCell>
        <mxCell id="2-SQ8LXe0lvmscW9OIa0-11" value="diseases" style="text;align=left;verticalAlign=top;spacingLeft=4;spacingRight=4;overflow=hidden;rotatable=0;points=[[0,0.5],[1,0.5]];portConstraint=eastwest;rounded=0;shadow=0;html=0;fontSize=19;fillColor=#fff2cc;strokeColor=#d6b656;" parent="2-SQ8LXe0lvmscW9OIa0-8" vertex="1">
          <mxGeometry y="78" width="160" height="26" as="geometry" />
        </mxCell>
        <mxCell id="2-SQ8LXe0lvmscW9OIa0-12" value="..." style="text;align=left;verticalAlign=top;spacingLeft=4;spacingRight=4;overflow=hidden;rotatable=0;points=[[0,0.5],[1,0.5]];portConstraint=eastwest;fontSize=19;fillColor=#fff2cc;strokeColor=#d6b656;" parent="2-SQ8LXe0lvmscW9OIa0-8" vertex="1">
          <mxGeometry y="104" width="160" height="26" as="geometry" />
        </mxCell>
        <mxCell id="2-SQ8LXe0lvmscW9OIa0-13" value="" style="line;html=1;strokeWidth=1;align=left;verticalAlign=middle;spacingTop=-1;spacingLeft=3;spacingRight=3;rotatable=0;labelPosition=right;points=[];portConstraint=eastwest;fontSize=19;fillColor=#fff2cc;strokeColor=#d6b656;" parent="2-SQ8LXe0lvmscW9OIa0-8" vertex="1">
          <mxGeometry y="130" width="160" height="8" as="geometry" />
        </mxCell>
        <mxCell id="2-SQ8LXe0lvmscW9OIa0-14" value="1..n" style="edgeStyle=orthogonalEdgeStyle;rounded=0;orthogonalLoop=1;jettySize=auto;html=1;entryX=1;entryY=0.5;entryDx=0;entryDy=0;curved=1;exitX=0;exitY=0.5;exitDx=0;exitDy=0;strokeWidth=2;endSize=15;fontSize=19;" parent="1" source="2-SQ8LXe0lvmscW9OIa0-17" target="2-SQ8LXe0lvmscW9OIa0-10" edge="1">
          <mxGeometry relative="1" as="geometry" />
        </mxCell>
        <mxCell id="2-SQ8LXe0lvmscW9OIa0-15" value="biosamples" style="swimlane;fontStyle=2;align=center;verticalAlign=top;childLayout=stackLayout;horizontal=1;startSize=26;horizontalStack=0;resizeParent=1;resizeLast=0;collapsible=1;marginBottom=0;rounded=0;shadow=0;strokeWidth=1;fontSize=19;fillColor=#fff2cc;strokeColor=#d6b656;" parent="1" vertex="1">
          <mxGeometry x="615" y="456" width="160" height="138" as="geometry">
            <mxRectangle x="230" y="140" width="160" height="26" as="alternateBounds" />
          </mxGeometry>
        </mxCell>
        <mxCell id="2-SQ8LXe0lvmscW9OIa0-16" value="id" style="text;align=left;verticalAlign=top;spacingLeft=4;spacingRight=4;overflow=hidden;rotatable=0;points=[[0,0.5],[1,0.5]];portConstraint=eastwest;fontSize=19;fillColor=#fff2cc;strokeColor=#d6b656;" parent="2-SQ8LXe0lvmscW9OIa0-15" vertex="1">
          <mxGeometry y="26" width="160" height="26" as="geometry" />
        </mxCell>
        <mxCell id="2-SQ8LXe0lvmscW9OIa0-17" value="IndividualId" style="text;align=left;verticalAlign=top;spacingLeft=4;spacingRight=4;overflow=hidden;rotatable=0;points=[[0,0.5],[1,0.5]];portConstraint=eastwest;rounded=0;shadow=0;html=0;fontSize=19;fillColor=#fff2cc;strokeColor=#d6b656;" parent="2-SQ8LXe0lvmscW9OIa0-15" vertex="1">
          <mxGeometry y="52" width="160" height="26" as="geometry" />
        </mxCell>
        <mxCell id="2-SQ8LXe0lvmscW9OIa0-18" value="biosampleStatus" style="text;align=left;verticalAlign=top;spacingLeft=4;spacingRight=4;overflow=hidden;rotatable=0;points=[[0,0.5],[1,0.5]];portConstraint=eastwest;rounded=0;shadow=0;html=0;fontSize=19;fillColor=#fff2cc;strokeColor=#d6b656;" parent="2-SQ8LXe0lvmscW9OIa0-15" vertex="1">
          <mxGeometry y="78" width="160" height="26" as="geometry" />
        </mxCell>
        <mxCell id="2-SQ8LXe0lvmscW9OIa0-19" value="..." style="text;align=left;verticalAlign=top;spacingLeft=4;spacingRight=4;overflow=hidden;rotatable=0;points=[[0,0.5],[1,0.5]];portConstraint=eastwest;fontSize=19;fillColor=#fff2cc;strokeColor=#d6b656;" parent="2-SQ8LXe0lvmscW9OIa0-15" vertex="1">
          <mxGeometry y="104" width="160" height="26" as="geometry" />
        </mxCell>
        <mxCell id="2-SQ8LXe0lvmscW9OIa0-20" value="" style="line;html=1;strokeWidth=1;align=left;verticalAlign=middle;spacingTop=-1;spacingLeft=3;spacingRight=3;rotatable=0;labelPosition=right;points=[];portConstraint=eastwest;fontSize=19;fillColor=#fff2cc;strokeColor=#d6b656;" parent="2-SQ8LXe0lvmscW9OIa0-15" vertex="1">
          <mxGeometry y="130" width="160" height="8" as="geometry" />
        </mxCell>
        <mxCell id="2-SQ8LXe0lvmscW9OIa0-21" value="1..n" style="edgeStyle=orthogonalEdgeStyle;curved=1;rounded=0;orthogonalLoop=1;jettySize=auto;html=1;entryX=1;entryY=0.5;entryDx=0;entryDy=0;startArrow=none;startFill=0;endArrow=classic;endFill=1;exitX=0;exitY=0.5;exitDx=0;exitDy=0;strokeWidth=2;endSize=15;fontSize=19;" parent="1" source="2-SQ8LXe0lvmscW9OIa0-24" target="2-SQ8LXe0lvmscW9OIa0-17" edge="1">
          <mxGeometry relative="1" as="geometry">
            <Array as="points">
              <mxPoint x="810" y="521" />
              <mxPoint x="810" y="521" />
            </Array>
          </mxGeometry>
        </mxCell>
        <mxCell id="2-SQ8LXe0lvmscW9OIa0-22" value="runs" style="swimlane;fontStyle=2;align=center;verticalAlign=top;childLayout=stackLayout;horizontal=1;startSize=26;horizontalStack=0;resizeParent=1;resizeLast=0;collapsible=1;marginBottom=0;rounded=0;shadow=0;strokeWidth=1;fontSize=19;fillColor=#fff2cc;strokeColor=#d6b656;" parent="1" vertex="1">
          <mxGeometry x="854" y="456" width="160" height="138" as="geometry">
            <mxRectangle x="230" y="140" width="160" height="26" as="alternateBounds" />
          </mxGeometry>
        </mxCell>
        <mxCell id="2-SQ8LXe0lvmscW9OIa0-23" value="id" style="text;align=left;verticalAlign=top;spacingLeft=4;spacingRight=4;overflow=hidden;rotatable=0;points=[[0,0.5],[1,0.5]];portConstraint=eastwest;fontSize=19;fillColor=#fff2cc;strokeColor=#d6b656;" parent="2-SQ8LXe0lvmscW9OIa0-22" vertex="1">
          <mxGeometry y="26" width="160" height="26" as="geometry" />
        </mxCell>
        <mxCell id="2-SQ8LXe0lvmscW9OIa0-24" value="biosampleId" style="text;align=left;verticalAlign=top;spacingLeft=4;spacingRight=4;overflow=hidden;rotatable=0;points=[[0,0.5],[1,0.5]];portConstraint=eastwest;rounded=0;shadow=0;html=0;fontSize=19;fillColor=#fff2cc;strokeColor=#d6b656;" parent="2-SQ8LXe0lvmscW9OIa0-22" vertex="1">
          <mxGeometry y="52" width="160" height="26" as="geometry" />
        </mxCell>
        <mxCell id="2-SQ8LXe0lvmscW9OIa0-25" value="individualId" style="text;align=left;verticalAlign=top;spacingLeft=4;spacingRight=4;overflow=hidden;rotatable=0;points=[[0,0.5],[1,0.5]];portConstraint=eastwest;rounded=0;shadow=0;html=0;fontSize=19;fillColor=#fff2cc;strokeColor=#d6b656;" parent="2-SQ8LXe0lvmscW9OIa0-22" vertex="1">
          <mxGeometry y="78" width="160" height="26" as="geometry" />
        </mxCell>
        <mxCell id="2-SQ8LXe0lvmscW9OIa0-26" value="..." style="text;align=left;verticalAlign=top;spacingLeft=4;spacingRight=4;overflow=hidden;rotatable=0;points=[[0,0.5],[1,0.5]];portConstraint=eastwest;fontSize=19;fillColor=#fff2cc;strokeColor=#d6b656;" parent="2-SQ8LXe0lvmscW9OIa0-22" vertex="1">
          <mxGeometry y="104" width="160" height="26" as="geometry" />
        </mxCell>
        <mxCell id="2-SQ8LXe0lvmscW9OIa0-27" value="" style="line;html=1;strokeWidth=1;align=left;verticalAlign=middle;spacingTop=-1;spacingLeft=3;spacingRight=3;rotatable=0;labelPosition=right;points=[];portConstraint=eastwest;fontSize=19;fillColor=#fff2cc;strokeColor=#d6b656;" parent="2-SQ8LXe0lvmscW9OIa0-22" vertex="1">
          <mxGeometry y="130" width="160" height="8" as="geometry" />
        </mxCell>
        <mxCell id="2-SQ8LXe0lvmscW9OIa0-28" value="analyses" style="swimlane;fontStyle=2;align=center;verticalAlign=top;childLayout=stackLayout;horizontal=1;startSize=26;horizontalStack=0;resizeParent=1;resizeLast=0;collapsible=1;marginBottom=0;rounded=0;shadow=0;strokeWidth=1;fontSize=19;fillColor=#fff2cc;strokeColor=#d6b656;" parent="1" vertex="1">
          <mxGeometry x="1103" y="456" width="160" height="138" as="geometry">
            <mxRectangle x="230" y="140" width="160" height="26" as="alternateBounds" />
          </mxGeometry>
        </mxCell>
        <mxCell id="2-SQ8LXe0lvmscW9OIa0-29" value="id" style="text;align=left;verticalAlign=top;spacingLeft=4;spacingRight=4;overflow=hidden;rotatable=0;points=[[0,0.5],[1,0.5]];portConstraint=eastwest;fontSize=19;fillColor=#fff2cc;strokeColor=#d6b656;" parent="2-SQ8LXe0lvmscW9OIa0-28" vertex="1">
          <mxGeometry y="26" width="160" height="26" as="geometry" />
        </mxCell>
        <mxCell id="2-SQ8LXe0lvmscW9OIa0-30" value="runId" style="text;align=left;verticalAlign=top;spacingLeft=4;spacingRight=4;overflow=hidden;rotatable=0;points=[[0,0.5],[1,0.5]];portConstraint=eastwest;rounded=0;shadow=0;html=0;fontSize=19;fillColor=#fff2cc;strokeColor=#d6b656;" parent="2-SQ8LXe0lvmscW9OIa0-28" vertex="1">
          <mxGeometry y="52" width="160" height="26" as="geometry" />
        </mxCell>
        <mxCell id="2-SQ8LXe0lvmscW9OIa0-31" value="biosampleId" style="text;align=left;verticalAlign=top;spacingLeft=4;spacingRight=4;overflow=hidden;rotatable=0;points=[[0,0.5],[1,0.5]];portConstraint=eastwest;rounded=0;shadow=0;html=0;fontSize=19;fillColor=#fff2cc;strokeColor=#d6b656;" parent="2-SQ8LXe0lvmscW9OIa0-28" vertex="1">
          <mxGeometry y="78" width="160" height="26" as="geometry" />
        </mxCell>
        <mxCell id="2-SQ8LXe0lvmscW9OIa0-32" value="..." style="text;align=left;verticalAlign=top;spacingLeft=4;spacingRight=4;overflow=hidden;rotatable=0;points=[[0,0.5],[1,0.5]];portConstraint=eastwest;fontSize=19;fillColor=#fff2cc;strokeColor=#d6b656;" parent="2-SQ8LXe0lvmscW9OIa0-28" vertex="1">
          <mxGeometry y="104" width="160" height="26" as="geometry" />
        </mxCell>
        <mxCell id="2-SQ8LXe0lvmscW9OIa0-33" value="" style="line;html=1;strokeWidth=1;align=left;verticalAlign=middle;spacingTop=-1;spacingLeft=3;spacingRight=3;rotatable=0;labelPosition=right;points=[];portConstraint=eastwest;fontSize=19;fillColor=#fff2cc;strokeColor=#d6b656;" parent="2-SQ8LXe0lvmscW9OIa0-28" vertex="1">
          <mxGeometry y="130" width="160" height="8" as="geometry" />
        </mxCell>
        <mxCell id="2-SQ8LXe0lvmscW9OIa0-34" value="1..n" style="edgeStyle=orthogonalEdgeStyle;curved=1;rounded=0;orthogonalLoop=1;jettySize=auto;html=1;entryX=1;entryY=0.5;entryDx=0;entryDy=0;startArrow=none;startFill=0;endArrow=classic;endFill=1;exitX=0;exitY=0.5;exitDx=0;exitDy=0;strokeWidth=2;endSize=15;fontSize=19;" parent="1" source="2-SQ8LXe0lvmscW9OIa0-38" target="2-SQ8LXe0lvmscW9OIa0-30" edge="1">
          <mxGeometry relative="1" as="geometry" />
        </mxCell>
        <mxCell id="2-SQ8LXe0lvmscW9OIa0-35" value="1..n" style="edgeStyle=orthogonalEdgeStyle;curved=1;rounded=0;orthogonalLoop=1;jettySize=auto;html=1;entryX=0.75;entryY=1;entryDx=0;entryDy=0;startArrow=none;startFill=0;endArrow=diamondThin;endFill=0;strokeWidth=2;endSize=20;fontSize=19;exitX=0.75;exitY=0;exitDx=0;exitDy=0;" parent="1" source="2-SQ8LXe0lvmscW9OIa0-36" target="2-SQ8LXe0lvmscW9OIa0-42" edge="1">
          <mxGeometry relative="1" as="geometry">
            <mxPoint x="1475" y="364" as="targetPoint" />
          </mxGeometry>
        </mxCell>
        <mxCell id="2-SQ8LXe0lvmscW9OIa0-36" value="GenomicVariants" style="swimlane;fontStyle=2;align=center;verticalAlign=top;childLayout=stackLayout;horizontal=1;startSize=26;horizontalStack=0;resizeParent=1;resizeLast=0;collapsible=1;marginBottom=0;rounded=0;shadow=0;strokeWidth=1;fontSize=19;fillColor=#fff2cc;strokeColor=#d6b656;" parent="1" vertex="1">
          <mxGeometry x="1355" y="456" width="160" height="138" as="geometry">
            <mxRectangle x="230" y="140" width="160" height="26" as="alternateBounds" />
          </mxGeometry>
        </mxCell>
        <mxCell id="2-SQ8LXe0lvmscW9OIa0-37" value="analysisId" style="text;align=left;verticalAlign=top;spacingLeft=4;spacingRight=4;overflow=hidden;rotatable=0;points=[[0,0.5],[1,0.5]];portConstraint=eastwest;fontSize=19;fillColor=#fff2cc;strokeColor=#d6b656;" parent="2-SQ8LXe0lvmscW9OIa0-36" vertex="1">
          <mxGeometry y="26" width="160" height="26" as="geometry" />
        </mxCell>
        <mxCell id="2-SQ8LXe0lvmscW9OIa0-38" value="runId" style="text;align=left;verticalAlign=top;spacingLeft=4;spacingRight=4;overflow=hidden;rotatable=0;points=[[0,0.5],[1,0.5]];portConstraint=eastwest;rounded=0;shadow=0;html=0;fontSize=19;fillColor=#fff2cc;strokeColor=#d6b656;" parent="2-SQ8LXe0lvmscW9OIa0-36" vertex="1">
          <mxGeometry y="52" width="160" height="26" as="geometry" />
        </mxCell>
        <mxCell id="2-SQ8LXe0lvmscW9OIa0-39" value="biosampleId" style="text;align=left;verticalAlign=top;spacingLeft=4;spacingRight=4;overflow=hidden;rotatable=0;points=[[0,0.5],[1,0.5]];portConstraint=eastwest;rounded=0;shadow=0;html=0;fontSize=19;fillColor=#fff2cc;strokeColor=#d6b656;" parent="2-SQ8LXe0lvmscW9OIa0-36" vertex="1">
          <mxGeometry y="78" width="160" height="26" as="geometry" />
        </mxCell>
        <mxCell id="2-SQ8LXe0lvmscW9OIa0-40" value="..." style="text;align=left;verticalAlign=top;spacingLeft=4;spacingRight=4;overflow=hidden;rotatable=0;points=[[0,0.5],[1,0.5]];portConstraint=eastwest;fontSize=19;fillColor=#fff2cc;strokeColor=#d6b656;" parent="2-SQ8LXe0lvmscW9OIa0-36" vertex="1">
          <mxGeometry y="104" width="160" height="26" as="geometry" />
        </mxCell>
        <mxCell id="2-SQ8LXe0lvmscW9OIa0-41" value="" style="line;html=1;strokeWidth=1;align=left;verticalAlign=middle;spacingTop=-1;spacingLeft=3;spacingRight=3;rotatable=0;labelPosition=right;points=[];portConstraint=eastwest;fontSize=19;fillColor=#fff2cc;strokeColor=#d6b656;" parent="2-SQ8LXe0lvmscW9OIa0-36" vertex="1">
          <mxGeometry y="130" width="160" height="8" as="geometry" />
        </mxCell>
        <mxCell id="2-SQ8LXe0lvmscW9OIa0-42" value="datasets" style="swimlane;fontStyle=2;align=center;verticalAlign=top;childLayout=stackLayout;horizontal=1;startSize=26;horizontalStack=0;resizeParent=1;resizeLast=0;collapsible=1;marginBottom=0;rounded=0;shadow=0;strokeWidth=1;fontSize=19;fillColor=#f8cecc;strokeColor=#b85450;" parent="1" vertex="1">
          <mxGeometry x="1355" y="200" width="160" height="138" as="geometry">
            <mxRectangle x="230" y="140" width="160" height="26" as="alternateBounds" />
          </mxGeometry>
        </mxCell>
        <mxCell id="2-SQ8LXe0lvmscW9OIa0-43" value="id" style="text;align=left;verticalAlign=top;spacingLeft=4;spacingRight=4;overflow=hidden;rotatable=0;points=[[0,0.5],[1,0.5]];portConstraint=eastwest;fontSize=19;fillColor=#f8cecc;strokeColor=#b85450;" parent="2-SQ8LXe0lvmscW9OIa0-42" vertex="1">
          <mxGeometry y="26" width="160" height="26" as="geometry" />
        </mxCell>
        <mxCell id="2-SQ8LXe0lvmscW9OIa0-44" value="name" style="text;align=left;verticalAlign=top;spacingLeft=4;spacingRight=4;overflow=hidden;rotatable=0;points=[[0,0.5],[1,0.5]];portConstraint=eastwest;rounded=0;shadow=0;html=0;fontSize=19;fillColor=#f8cecc;strokeColor=#b85450;" parent="2-SQ8LXe0lvmscW9OIa0-42" vertex="1">
          <mxGeometry y="52" width="160" height="26" as="geometry" />
        </mxCell>
        <mxCell id="2-SQ8LXe0lvmscW9OIa0-45" value="description" style="text;align=left;verticalAlign=top;spacingLeft=4;spacingRight=4;overflow=hidden;rotatable=0;points=[[0,0.5],[1,0.5]];portConstraint=eastwest;rounded=0;shadow=0;html=0;fontSize=19;fillColor=#f8cecc;strokeColor=#b85450;" parent="2-SQ8LXe0lvmscW9OIa0-42" vertex="1">
          <mxGeometry y="78" width="160" height="26" as="geometry" />
        </mxCell>
        <mxCell id="2-SQ8LXe0lvmscW9OIa0-46" value="..." style="text;align=left;verticalAlign=top;spacingLeft=4;spacingRight=4;overflow=hidden;rotatable=0;points=[[0,0.5],[1,0.5]];portConstraint=eastwest;fontSize=19;fillColor=#f8cecc;strokeColor=#b85450;" parent="2-SQ8LXe0lvmscW9OIa0-42" vertex="1">
          <mxGeometry y="104" width="160" height="26" as="geometry" />
        </mxCell>
        <mxCell id="2-SQ8LXe0lvmscW9OIa0-47" value="" style="line;html=1;strokeWidth=1;align=left;verticalAlign=middle;spacingTop=-1;spacingLeft=3;spacingRight=3;rotatable=0;labelPosition=right;points=[];portConstraint=eastwest;fontSize=19;fillColor=#f8cecc;strokeColor=#b85450;" parent="2-SQ8LXe0lvmscW9OIa0-42" vertex="1">
          <mxGeometry y="130" width="160" height="8" as="geometry" />
        </mxCell>
        <mxCell id="2-SQ8LXe0lvmscW9OIa0-48" value="1..n" style="edgeStyle=orthogonalEdgeStyle;curved=1;rounded=0;orthogonalLoop=1;jettySize=auto;html=1;entryX=1;entryY=0.5;entryDx=0;entryDy=0;startArrow=none;startFill=0;endArrow=classic;endFill=1;exitX=0;exitY=0.5;exitDx=0;exitDy=0;strokeWidth=2;endSize=15;fontSize=19;" parent="1" source="2-SQ8LXe0lvmscW9OIa0-30" target="2-SQ8LXe0lvmscW9OIa0-24" edge="1">
          <mxGeometry relative="1" as="geometry">
            <mxPoint x="1060" y="516" as="sourcePoint" />
            <mxPoint x="990" y="516" as="targetPoint" />
          </mxGeometry>
        </mxCell>
        <mxCell id="2-SQ8LXe0lvmscW9OIa0-49" value="1..n" style="edgeStyle=orthogonalEdgeStyle;curved=1;rounded=0;orthogonalLoop=1;jettySize=auto;html=1;entryX=0.75;entryY=1;entryDx=0;entryDy=0;dashed=1;strokeWidth=2;fontSize=19;startArrow=none;startFill=0;endArrow=classic;endFill=1;endSize=15;exitX=0.5;exitY=1;exitDx=0;exitDy=0;" parent="1" source="2-SQ8LXe0lvmscW9OIa0-22" target="2-SQ8LXe0lvmscW9OIa0-8" edge="1">
          <mxGeometry relative="1" as="geometry">
            <mxPoint x="700" y="594" as="sourcePoint" />
            <mxPoint x="470" y="594" as="targetPoint" />
            <Array as="points">
              <mxPoint x="934" y="666" />
              <mxPoint x="490" y="666" />
            </Array>
          </mxGeometry>
        </mxCell>
        <mxCell id="2-SQ8LXe0lvmscW9OIa0-50" value="1..n" style="edgeStyle=orthogonalEdgeStyle;curved=1;rounded=0;orthogonalLoop=1;jettySize=auto;html=1;entryX=0.5;entryY=1;entryDx=0;entryDy=0;dashed=1;strokeWidth=2;fontSize=19;startArrow=none;startFill=0;endArrow=classic;endFill=1;endSize=15;exitX=0.5;exitY=1;exitDx=0;exitDy=0;" parent="1" source="2-SQ8LXe0lvmscW9OIa0-28" target="2-SQ8LXe0lvmscW9OIa0-8" edge="1">
          <mxGeometry relative="1" as="geometry">
            <mxPoint x="870" y="594" as="sourcePoint" />
            <mxPoint x="430" y="594" as="targetPoint" />
            <Array as="points">
              <mxPoint x="1183" y="696" />
              <mxPoint x="450" y="696" />
            </Array>
          </mxGeometry>
        </mxCell>
        <mxCell id="2-SQ8LXe0lvmscW9OIa0-51" value="1..n" style="edgeStyle=orthogonalEdgeStyle;curved=1;rounded=0;orthogonalLoop=1;jettySize=auto;html=1;entryX=0.25;entryY=1;entryDx=0;entryDy=0;dashed=1;strokeWidth=2;fontSize=19;startArrow=none;startFill=0;endArrow=classic;endFill=1;endSize=15;exitX=0.5;exitY=1;exitDx=0;exitDy=0;" parent="1" source="2-SQ8LXe0lvmscW9OIa0-36" target="2-SQ8LXe0lvmscW9OIa0-8" edge="1">
          <mxGeometry x="0.0405" relative="1" as="geometry">
            <mxPoint x="1110" y="594" as="sourcePoint" />
            <mxPoint x="400" y="594" as="targetPoint" />
            <Array as="points">
              <mxPoint x="1435" y="726" />
              <mxPoint x="410" y="726" />
            </Array>
            <mxPoint x="1" as="offset" />
          </mxGeometry>
        </mxCell>
        <mxCell id="2-SQ8LXe0lvmscW9OIa0-52" value="1..n" style="edgeStyle=orthogonalEdgeStyle;curved=1;rounded=0;orthogonalLoop=1;jettySize=auto;html=1;entryX=0.75;entryY=0;entryDx=0;entryDy=0;dashed=1;strokeWidth=2;fontSize=19;startArrow=none;startFill=0;endArrow=classic;endFill=1;endSize=15;exitX=0.5;exitY=0;exitDx=0;exitDy=0;" parent="1" source="2-SQ8LXe0lvmscW9OIa0-28" target="2-SQ8LXe0lvmscW9OIa0-15" edge="1">
          <mxGeometry relative="1" as="geometry">
            <mxPoint x="900" y="394" as="sourcePoint" />
            <mxPoint x="670" y="394" as="targetPoint" />
            <Array as="points">
              <mxPoint x="1183" y="350" />
              <mxPoint x="735" y="350" />
            </Array>
          </mxGeometry>
        </mxCell>
        <mxCell id="2-SQ8LXe0lvmscW9OIa0-53" value="1..n" style="edgeStyle=orthogonalEdgeStyle;curved=1;rounded=0;orthogonalLoop=1;jettySize=auto;html=1;entryX=0.25;entryY=0;entryDx=0;entryDy=0;dashed=1;strokeWidth=2;fontSize=19;startArrow=none;startFill=0;endArrow=classic;endFill=1;endSize=15;exitX=0.5;exitY=0;exitDx=0;exitDy=0;" parent="1" source="2-SQ8LXe0lvmscW9OIa0-36" target="2-SQ8LXe0lvmscW9OIa0-15" edge="1">
          <mxGeometry relative="1" as="geometry">
            <mxPoint x="1100" y="456" as="sourcePoint" />
            <mxPoint x="640" y="456" as="targetPoint" />
            <Array as="points">
              <mxPoint x="1435" y="310" />
              <mxPoint x="655" y="310" />
            </Array>
          </mxGeometry>
        </mxCell>
        <mxCell id="2-SQ8LXe0lvmscW9OIa0-54" value="1..n" style="edgeStyle=orthogonalEdgeStyle;curved=1;rounded=0;orthogonalLoop=1;jettySize=auto;html=1;entryX=0.5;entryY=0;entryDx=0;entryDy=0;dashed=1;strokeWidth=2;fontSize=19;startArrow=none;startFill=0;endArrow=classic;endFill=1;endSize=15;exitX=0.25;exitY=0;exitDx=0;exitDy=0;" parent="1" source="2-SQ8LXe0lvmscW9OIa0-36" target="2-SQ8LXe0lvmscW9OIa0-22" edge="1">
          <mxGeometry x="-0.3189" relative="1" as="geometry">
            <mxPoint x="1110" y="466" as="sourcePoint" />
            <mxPoint x="960" y="466" as="targetPoint" />
            <Array as="points">
              <mxPoint x="1395" y="406" />
              <mxPoint x="934" y="406" />
            </Array>
            <mxPoint as="offset" />
          </mxGeometry>
        </mxCell>
        <mxCell id="2-SQ8LXe0lvmscW9OIa0-55" value="Terms" style="swimlane;fontStyle=2;align=center;verticalAlign=top;childLayout=stackLayout;horizontal=1;startSize=26;horizontalStack=0;resizeParent=1;resizeLast=0;collapsible=1;marginBottom=0;rounded=0;shadow=0;strokeWidth=1;fontSize=19;fillColor=#fff2cc;strokeColor=#d6b656;" parent="1" vertex="1">
          <mxGeometry x="893" y="1020" width="160" height="134" as="geometry">
            <mxRectangle x="230" y="140" width="160" height="26" as="alternateBounds" />
          </mxGeometry>
        </mxCell>
        <mxCell id="2-SQ8LXe0lvmscW9OIa0-56" value="term " style="text;align=left;verticalAlign=top;spacingLeft=4;spacingRight=4;overflow=hidden;rotatable=0;points=[[0,0.5],[1,0.5]];portConstraint=eastwest;fontSize=19;fillColor=#fff2cc;strokeColor=#d6b656;" parent="2-SQ8LXe0lvmscW9OIa0-55" vertex="1">
          <mxGeometry y="26" width="160" height="26" as="geometry" />
        </mxCell>
        <mxCell id="2-SQ8LXe0lvmscW9OIa0-57" value="label" style="text;align=left;verticalAlign=top;spacingLeft=4;spacingRight=4;overflow=hidden;rotatable=0;points=[[0,0.5],[1,0.5]];portConstraint=eastwest;rounded=0;shadow=0;html=0;fontSize=19;fillColor=#fff2cc;strokeColor=#d6b656;" parent="2-SQ8LXe0lvmscW9OIa0-55" vertex="1">
          <mxGeometry y="52" width="160" height="26" as="geometry" />
        </mxCell>
        <mxCell id="2-SQ8LXe0lvmscW9OIa0-58" value="type" style="text;align=left;verticalAlign=top;spacingLeft=4;spacingRight=4;overflow=hidden;rotatable=0;points=[[0,0.5],[1,0.5]];portConstraint=eastwest;rounded=0;shadow=0;html=0;fontSize=19;fillColor=#fff2cc;strokeColor=#d6b656;" parent="2-SQ8LXe0lvmscW9OIa0-55" vertex="1">
          <mxGeometry y="78" width="160" height="26" as="geometry" />
        </mxCell>
        <mxCell id="2-SQ8LXe0lvmscW9OIa0-59" value="kind" style="text;align=left;verticalAlign=top;spacingLeft=4;spacingRight=4;overflow=hidden;rotatable=0;points=[[0,0.5],[1,0.5]];portConstraint=eastwest;fontSize=19;fillColor=#fff2cc;strokeColor=#d6b656;" parent="2-SQ8LXe0lvmscW9OIa0-55" vertex="1">
          <mxGeometry y="104" width="160" height="26" as="geometry" />
        </mxCell>
        <mxCell id="2-SQ8LXe0lvmscW9OIa0-67" style="edgeStyle=orthogonalEdgeStyle;rounded=0;orthogonalLoop=1;jettySize=auto;html=1;entryX=0.75;entryY=1;entryDx=0;entryDy=0;strokeColor=default;curved=1;dashed=1;strokeWidth=2;endArrow=none;endFill=0;" parent="1" source="2-SQ8LXe0lvmscW9OIa0-62" target="2-SQ8LXe0lvmscW9OIa0-22" edge="1">
          <mxGeometry relative="1" as="geometry" />
        </mxCell>
        <mxCell id="2-SQ8LXe0lvmscW9OIa0-68" style="edgeStyle=orthogonalEdgeStyle;rounded=0;orthogonalLoop=1;jettySize=auto;html=1;entryX=0.75;entryY=1;entryDx=0;entryDy=0;strokeColor=default;curved=1;dashed=1;strokeWidth=2;endArrow=none;endFill=0;" parent="1" source="2-SQ8LXe0lvmscW9OIa0-62" target="2-SQ8LXe0lvmscW9OIa0-28" edge="1">
          <mxGeometry relative="1" as="geometry" />
        </mxCell>
        <mxCell id="2-SQ8LXe0lvmscW9OIa0-69" style="edgeStyle=orthogonalEdgeStyle;rounded=0;orthogonalLoop=1;jettySize=auto;html=1;entryX=0.75;entryY=1;entryDx=0;entryDy=0;strokeColor=default;curved=1;dashed=1;strokeWidth=2;endArrow=none;endFill=0;" parent="1" source="2-SQ8LXe0lvmscW9OIa0-62" target="2-SQ8LXe0lvmscW9OIa0-15" edge="1">
          <mxGeometry relative="1" as="geometry" />
        </mxCell>
        <mxCell id="2-SQ8LXe0lvmscW9OIa0-70" style="edgeStyle=orthogonalEdgeStyle;rounded=0;orthogonalLoop=1;jettySize=auto;html=1;entryX=1;entryY=1;entryDx=0;entryDy=0;strokeColor=default;curved=1;dashed=1;strokeWidth=2;endArrow=none;endFill=0;" parent="1" source="2-SQ8LXe0lvmscW9OIa0-62" target="2-SQ8LXe0lvmscW9OIa0-8" edge="1">
          <mxGeometry relative="1" as="geometry" />
        </mxCell>
        <mxCell id="2-SQ8LXe0lvmscW9OIa0-71" style="edgeStyle=orthogonalEdgeStyle;rounded=0;orthogonalLoop=1;jettySize=auto;html=1;entryX=0.5;entryY=0;entryDx=0;entryDy=0;endArrow=diamondThin;endFill=1;strokeWidth=2;dashed=1;" parent="1" source="2-SQ8LXe0lvmscW9OIa0-62" target="2-SQ8LXe0lvmscW9OIa0-55" edge="1">
          <mxGeometry relative="1" as="geometry" />
        </mxCell>
        <mxCell id="2-SQ8LXe0lvmscW9OIa0-72" value="&lt;font style=&quot;font-size: 19px;&quot;&gt;m..n&lt;/font&gt;" style="edgeLabel;html=1;align=center;verticalAlign=middle;resizable=0;points=[];" parent="2-SQ8LXe0lvmscW9OIa0-71" vertex="1" connectable="0">
          <mxGeometry x="0.0039" y="-2" relative="1" as="geometry">
            <mxPoint as="offset" />
          </mxGeometry>
        </mxCell>
        <mxCell id="2-SQ8LXe0lvmscW9OIa0-62" value="TermsIndex" style="swimlane;fontStyle=2;align=center;verticalAlign=top;childLayout=stackLayout;horizontal=1;startSize=26;horizontalStack=0;resizeParent=1;resizeLast=0;collapsible=1;marginBottom=0;rounded=0;shadow=0;strokeWidth=1;fontSize=19;fillColor=#fff2cc;strokeColor=#d6b656;" parent="1" vertex="1">
          <mxGeometry x="893" y="790" width="160" height="110" as="geometry">
            <mxRectangle x="230" y="140" width="160" height="26" as="alternateBounds" />
          </mxGeometry>
        </mxCell>
        <mxCell id="2-SQ8LXe0lvmscW9OIa0-63" value="id" style="text;align=left;verticalAlign=top;spacingLeft=4;spacingRight=4;overflow=hidden;rotatable=0;points=[[0,0.5],[1,0.5]];portConstraint=eastwest;fontSize=19;fillColor=#fff2cc;strokeColor=#d6b656;" parent="2-SQ8LXe0lvmscW9OIa0-62" vertex="1">
          <mxGeometry y="26" width="160" height="26" as="geometry" />
        </mxCell>
        <mxCell id="2-SQ8LXe0lvmscW9OIa0-64" value="term" style="text;align=left;verticalAlign=top;spacingLeft=4;spacingRight=4;overflow=hidden;rotatable=0;points=[[0,0.5],[1,0.5]];portConstraint=eastwest;rounded=0;shadow=0;html=0;fontSize=19;fillColor=#fff2cc;strokeColor=#d6b656;" parent="2-SQ8LXe0lvmscW9OIa0-62" vertex="1">
          <mxGeometry y="52" width="160" height="26" as="geometry" />
        </mxCell>
        <mxCell id="2-SQ8LXe0lvmscW9OIa0-65" value="kind" style="text;align=left;verticalAlign=top;spacingLeft=4;spacingRight=4;overflow=hidden;rotatable=0;points=[[0,0.5],[1,0.5]];portConstraint=eastwest;rounded=0;shadow=0;html=0;fontSize=19;fillColor=#fff2cc;strokeColor=#d6b656;" parent="2-SQ8LXe0lvmscW9OIa0-62" vertex="1">
          <mxGeometry y="78" width="160" height="26" as="geometry" />
        </mxCell>
      </root>
    </mxGraphModel>
  </diagram>
  <diagram id="2yjRIe3N4y5xfAzBQiY5" name="Variant Querying Module">
    <mxGraphModel dx="1910" dy="371" grid="1" gridSize="10" guides="1" tooltips="1" connect="1" arrows="1" fold="1" page="1" pageScale="1" pageWidth="827" pageHeight="1169" math="0" shadow="0">
      <root>
        <mxCell id="0" />
        <mxCell id="1" parent="0" />
        <mxCell id="aaXxOg5VSojdQEP6dQ0o-1" value="" style="edgeStyle=orthogonalEdgeStyle;rounded=1;orthogonalLoop=1;jettySize=auto;html=1;elbow=vertical;" edge="1" parent="1">
          <mxGeometry relative="1" as="geometry">
            <mxPoint x="909.9999999999995" y="1576.9999999999995" as="sourcePoint" />
            <mxPoint x="1049.9999999999995" y="1576.9999999999995" as="targetPoint" />
            <Array as="points">
              <mxPoint x="980" y="1577" />
              <mxPoint x="980" y="1577" />
            </Array>
          </mxGeometry>
        </mxCell>
        <mxCell id="aaXxOg5VSojdQEP6dQ0o-2" value="3" style="edgeLabel;html=1;align=center;verticalAlign=middle;resizable=0;points=[];" vertex="1" connectable="0" parent="aaXxOg5VSojdQEP6dQ0o-1">
          <mxGeometry x="-0.29" y="1" relative="1" as="geometry">
            <mxPoint as="offset" />
          </mxGeometry>
        </mxCell>
        <mxCell id="aaXxOg5VSojdQEP6dQ0o-3" value="Lambda Function:&lt;br&gt;splitQuery" style="outlineConnect=0;dashed=0;verticalLabelPosition=bottom;verticalAlign=top;align=center;html=1;shape=mxgraph.aws3.lambda;fillColor=#F58534;gradientColor=none;labelBackgroundColor=#ffffff;" vertex="1" parent="1">
          <mxGeometry x="833.5" y="1531" width="76.5" height="93" as="geometry" />
        </mxCell>
        <mxCell id="aaXxOg5VSojdQEP6dQ0o-4" value="5" style="edgeStyle=orthogonalEdgeStyle;rounded=1;orthogonalLoop=1;jettySize=auto;html=1;entryX=0.5;entryY=0;entryDx=0;entryDy=0;entryPerimeter=0;" edge="1" parent="1" source="aaXxOg5VSojdQEP6dQ0o-5" target="aaXxOg5VSojdQEP6dQ0o-21">
          <mxGeometry relative="1" as="geometry">
            <Array as="points">
              <mxPoint x="1088" y="1483" />
              <mxPoint x="652" y="1483" />
            </Array>
          </mxGeometry>
        </mxCell>
        <mxCell id="aaXxOg5VSojdQEP6dQ0o-5" value="Lambda Function:&lt;br&gt;performQuery" style="outlineConnect=0;dashed=0;verticalLabelPosition=bottom;verticalAlign=top;align=center;html=1;shape=mxgraph.aws3.lambda;fillColor=#F58534;gradientColor=none;labelBackgroundColor=#ffffff;" vertex="1" parent="1">
          <mxGeometry x="1050" y="1531" width="76.5" height="93" as="geometry" />
        </mxCell>
        <mxCell id="aaXxOg5VSojdQEP6dQ0o-6" style="edgeStyle=orthogonalEdgeStyle;rounded=1;orthogonalLoop=1;jettySize=auto;html=1;elbow=vertical;" edge="1" parent="1">
          <mxGeometry relative="1" as="geometry">
            <mxPoint x="830" y="1579.4999999999995" as="targetPoint" />
            <mxPoint x="693" y="1579.4999999999995" as="sourcePoint" />
          </mxGeometry>
        </mxCell>
        <mxCell id="aaXxOg5VSojdQEP6dQ0o-7" value="2" style="edgeLabel;html=1;align=center;verticalAlign=middle;resizable=0;points=[];" vertex="1" connectable="0" parent="aaXxOg5VSojdQEP6dQ0o-6">
          <mxGeometry x="-0.3182" y="-1" relative="1" as="geometry">
            <mxPoint as="offset" />
          </mxGeometry>
        </mxCell>
        <mxCell id="aaXxOg5VSojdQEP6dQ0o-8" value="1" style="edgeStyle=orthogonalEdgeStyle;rounded=1;orthogonalLoop=1;jettySize=auto;html=1;elbow=vertical;" edge="1" parent="1">
          <mxGeometry relative="1" as="geometry">
            <mxPoint x="613.5" y="1567.5" as="targetPoint" />
            <mxPoint x="510" y="1567.5" as="sourcePoint" />
          </mxGeometry>
        </mxCell>
        <mxCell id="aaXxOg5VSojdQEP6dQ0o-9" value="" style="rounded=1;arcSize=10;dashed=1;strokeColor=#F59D56;fillColor=none;gradientColor=none;dashPattern=8 4;strokeWidth=2;" vertex="1" parent="1">
          <mxGeometry x="971" y="1522.5" width="30" height="110" as="geometry" />
        </mxCell>
        <mxCell id="aaXxOg5VSojdQEP6dQ0o-10" value="" style="rounded=1;arcSize=10;dashed=1;strokeColor=#F59D56;fillColor=none;gradientColor=none;dashPattern=8 4;strokeWidth=2;" vertex="1" parent="1">
          <mxGeometry x="745.5" y="1522.5" width="30" height="110" as="geometry" />
        </mxCell>
        <mxCell id="aaXxOg5VSojdQEP6dQ0o-11" value="10" style="edgeStyle=orthogonalEdgeStyle;rounded=1;orthogonalLoop=1;jettySize=auto;html=1;elbow=vertical;" edge="1" parent="1">
          <mxGeometry relative="1" as="geometry">
            <mxPoint x="510" y="1590.5" as="targetPoint" />
            <mxPoint x="613.5" y="1590.5" as="sourcePoint" />
          </mxGeometry>
        </mxCell>
        <mxCell id="aaXxOg5VSojdQEP6dQ0o-12" value="4" style="edgeStyle=orthogonalEdgeStyle;rounded=1;orthogonalLoop=1;jettySize=auto;html=1;elbow=vertical;" edge="1" parent="1" source="aaXxOg5VSojdQEP6dQ0o-13">
          <mxGeometry relative="1" as="geometry">
            <mxPoint x="1129.9999999999995" y="1577.5" as="targetPoint" />
          </mxGeometry>
        </mxCell>
        <mxCell id="aaXxOg5VSojdQEP6dQ0o-13" value="&lt;span style=&quot;background-color: rgb(255 , 255 , 255)&quot;&gt;S3:&lt;br&gt;Bucket of VCFs&lt;br&gt;&lt;/span&gt;" style="outlineConnect=0;dashed=0;verticalLabelPosition=bottom;verticalAlign=top;align=center;html=1;shape=mxgraph.aws3.s3;fillColor=#E05243;gradientColor=none;" vertex="1" parent="1">
          <mxGeometry x="1194" y="1531" width="76.5" height="93" as="geometry" />
        </mxCell>
        <mxCell id="aaXxOg5VSojdQEP6dQ0o-14" value="Fanning out&lt;br&gt;across VCF files" style="text;html=1;align=center;verticalAlign=middle;resizable=0;points=[];autosize=1;strokeColor=none;fillColor=none;" vertex="1" parent="1">
          <mxGeometry x="708" y="1630" width="105" height="41" as="geometry" />
        </mxCell>
        <mxCell id="aaXxOg5VSojdQEP6dQ0o-15" value="Fanning out&lt;br&gt;across VCF regions" style="text;html=1;align=center;verticalAlign=middle;resizable=0;points=[];autosize=1;strokeColor=none;fillColor=none;" vertex="1" parent="1">
          <mxGeometry x="924.5" y="1630" width="123" height="41" as="geometry" />
        </mxCell>
        <mxCell id="aaXxOg5VSojdQEP6dQ0o-16" value="6" style="edgeStyle=orthogonalEdgeStyle;rounded=1;orthogonalLoop=1;jettySize=auto;html=1;" edge="1" parent="1">
          <mxGeometry relative="1" as="geometry">
            <mxPoint x="663" y="1661" as="sourcePoint" />
            <mxPoint x="663" y="1705" as="targetPoint" />
            <Array as="points">
              <mxPoint x="663" y="1665" />
              <mxPoint x="663" y="1665" />
            </Array>
          </mxGeometry>
        </mxCell>
        <mxCell id="aaXxOg5VSojdQEP6dQ0o-17" value="Variant based &lt;br&gt;metadata retrieval" style="text;html=1;align=center;verticalAlign=middle;resizable=0;points=[];autosize=1;strokeColor=none;fillColor=default;" vertex="1" parent="1">
          <mxGeometry x="498" y="1688" width="114" height="41" as="geometry" />
        </mxCell>
        <mxCell id="aaXxOg5VSojdQEP6dQ0o-18" value="Search results&lt;br&gt;eg: Sample names, variants" style="text;html=1;align=center;verticalAlign=middle;resizable=0;points=[];autosize=1;strokeColor=none;fillColor=none;" vertex="1" parent="1">
          <mxGeometry x="674" y="1462" width="167" height="41" as="geometry" />
        </mxCell>
        <mxCell id="aaXxOg5VSojdQEP6dQ0o-19" value="&lt;font color=&quot;#000000&quot;&gt;&lt;span style=&quot;background-color: rgb(255, 255, 255);&quot;&gt;Athena: &lt;br&gt;Metadata Tables&lt;/span&gt;&lt;/font&gt;" style="sketch=0;points=[[0,0,0],[0.25,0,0],[0.5,0,0],[0.75,0,0],[1,0,0],[0,1,0],[0.25,1,0],[0.5,1,0],[0.75,1,0],[1,1,0],[0,0.25,0],[0,0.5,0],[0,0.75,0],[1,0.25,0],[1,0.5,0],[1,0.75,0]];outlineConnect=0;fontColor=#232F3E;gradientColor=#945DF2;gradientDirection=north;fillColor=#5A30B5;strokeColor=#ffffff;dashed=0;verticalLabelPosition=bottom;verticalAlign=top;align=center;html=1;fontSize=12;fontStyle=0;aspect=fixed;shape=mxgraph.aws4.resourceIcon;resIcon=mxgraph.aws4.athena;" vertex="1" parent="1">
          <mxGeometry x="612" y="1707" width="78" height="78" as="geometry" />
        </mxCell>
        <mxCell id="aaXxOg5VSojdQEP6dQ0o-20" value="7" style="edgeStyle=orthogonalEdgeStyle;rounded=0;orthogonalLoop=1;jettySize=auto;html=1;" edge="1" parent="1">
          <mxGeometry relative="1" as="geometry">
            <mxPoint x="634" y="1705" as="sourcePoint" />
            <mxPoint x="634" y="1660" as="targetPoint" />
            <Array as="points">
              <mxPoint x="634" y="1705" />
            </Array>
          </mxGeometry>
        </mxCell>
        <mxCell id="aaXxOg5VSojdQEP6dQ0o-21" value="Lambda Function:&lt;br&gt;Initiator" style="outlineConnect=0;dashed=0;verticalLabelPosition=bottom;verticalAlign=top;align=center;html=1;shape=mxgraph.aws3.lambda;fillColor=#F58534;gradientColor=none;labelBackgroundColor=#ffffff;" vertex="1" parent="1">
          <mxGeometry x="613.5" y="1531" width="76.5" height="93" as="geometry" />
        </mxCell>
        <mxCell id="aaXxOg5VSojdQEP6dQ0o-22" value="&lt;font style=&quot;font-size: 12px;&quot;&gt;Query:&lt;br&gt;&amp;nbsp;Reference allele - A&amp;nbsp;&lt;br style=&quot;border-color: var(--border-color);&quot;&gt;&lt;/font&gt;&lt;div style=&quot;&quot;&gt;&lt;span style=&quot;background-color: initial;&quot;&gt;&lt;font&gt;&amp;nbsp;Location -&amp;nbsp; chr 5:10000000 - 10010000&lt;/font&gt;&lt;/span&gt;&lt;/div&gt;" style="rounded=1;whiteSpace=wrap;html=1;fillColor=#99CCFF;align=left;fontFamily=Helvetica;" vertex="1" parent="1">
          <mxGeometry x="417" y="1482" width="222" height="49" as="geometry" />
        </mxCell>
        <mxCell id="aaXxOg5VSojdQEP6dQ0o-23" value="Fan out for:&lt;br&gt;&amp;nbsp;Location -&amp;nbsp; chr 5:10000000 - 10005000&lt;br&gt;&amp;nbsp;Location -&amp;nbsp; chr 5:10005000 - 10010000&lt;span style=&quot;background-color: initial;&quot;&gt;&lt;br&gt;&lt;/span&gt;" style="rounded=1;whiteSpace=wrap;html=1;fillColor=#99CCFF;align=left;fontFamily=Helvetica;" vertex="1" parent="1">
          <mxGeometry x="871.63" y="1674" width="228.75" height="53" as="geometry" />
        </mxCell>
        <mxCell id="aaXxOg5VSojdQEP6dQ0o-24" value="&lt;div style=&quot;&quot;&gt;&lt;span style=&quot;background-color: initial;&quot;&gt;Check alleles&amp;nbsp;&lt;/span&gt;&lt;/div&gt;&lt;div style=&quot;&quot;&gt;&lt;span style=&quot;background-color: initial;&quot;&gt;Verify base range&lt;/span&gt;&lt;/div&gt;" style="rounded=1;whiteSpace=wrap;html=1;fillColor=#99CCFF;align=left;fontFamily=Helvetica;" vertex="1" parent="1">
          <mxGeometry x="1100.38" y="1482" width="101.62" height="49" as="geometry" />
        </mxCell>
        <mxCell id="aaXxOg5VSojdQEP6dQ0o-25" value="&lt;div style=&quot;text-align: left;&quot;&gt;&lt;span style=&quot;background-color: initial;&quot;&gt;Fan out for:&lt;/span&gt;&lt;/div&gt;&lt;span style=&quot;background-color: initial;&quot;&gt;&lt;div style=&quot;text-align: left;&quot;&gt;&lt;span style=&quot;background-color: initial;&quot;&gt;&amp;nbsp;VCF 1&lt;/span&gt;&lt;/div&gt;&lt;div style=&quot;text-align: left;&quot;&gt;&lt;span style=&quot;background-color: initial;&quot;&gt;&amp;nbsp;VCF2&lt;/span&gt;&lt;/div&gt;&lt;/span&gt;" style="rounded=1;whiteSpace=wrap;html=1;fillColor=#99CCFF;align=center;fontFamily=Helvetica;" vertex="1" parent="1">
          <mxGeometry x="718.5" y="1674" width="84" height="53" as="geometry" />
        </mxCell>
        <mxCell id="aaXxOg5VSojdQEP6dQ0o-26" value="&lt;div style=&quot;&quot;&gt;Result (&lt;span style=&quot;background-color: initial;&quot;&gt;Boolean/&lt;/span&gt;&lt;span style=&quot;background-color: initial;&quot;&gt;Count/&lt;/span&gt;&lt;span style=&quot;background-color: initial;&quot;&gt;Record)&lt;/span&gt;&lt;/div&gt;" style="rounded=1;whiteSpace=wrap;html=1;fillColor=#99CCFF;align=left;fontFamily=Helvetica;" vertex="1" parent="1">
          <mxGeometry x="417" y="1617" width="178" height="34" as="geometry" />
        </mxCell>
      </root>
    </mxGraphModel>
  </diagram>
  <diagram id="xVJH-o7lFXdhcmPthBUd" name="Microservices">
    <mxGraphModel dx="1910" dy="1540" grid="1" gridSize="10" guides="1" tooltips="1" connect="1" arrows="1" fold="1" page="1" pageScale="1" pageWidth="827" pageHeight="1169" math="0" shadow="0">
      <root>
        <mxCell id="0" />
        <mxCell id="1" parent="0" />
        <mxCell id="wJlJ-6Gabz69JEOM5e4k-19" value="8" style="edgeStyle=orthogonalEdgeStyle;rounded=1;orthogonalLoop=1;jettySize=auto;html=1;elbow=vertical;" edge="1" parent="1">
          <mxGeometry relative="1" as="geometry">
            <mxPoint x="790" y="417.5" as="sourcePoint" />
            <mxPoint x="660.5" y="417.5" as="targetPoint" />
          </mxGeometry>
        </mxCell>
        <mxCell id="wJlJ-6Gabz69JEOM5e4k-20" value="Lambda Function:&lt;br&gt;Micro Service" style="outlineConnect=0;dashed=0;verticalLabelPosition=bottom;verticalAlign=top;align=center;html=1;shape=mxgraph.aws3.lambda;fillColor=#F58534;gradientColor=none;labelBackgroundColor=#ffffff;" vertex="1" parent="1">
          <mxGeometry x="790" y="360" width="76.5" height="93" as="geometry" />
        </mxCell>
        <mxCell id="wJlJ-6Gabz69JEOM5e4k-21" value="" style="edgeStyle=orthogonalEdgeStyle;rounded=1;html=1;exitX=0;exitY=0.8;exitPerimeter=0;entryX=1;entryY=0.5;entryPerimeter=0;jettySize=auto;orthogonalLoop=1;fontSize=12;" edge="1" parent="1" source="wJlJ-6Gabz69JEOM5e4k-25" target="wJlJ-6Gabz69JEOM5e4k-23">
          <mxGeometry relative="1" as="geometry" />
        </mxCell>
        <mxCell id="wJlJ-6Gabz69JEOM5e4k-22" value="" style="edgeStyle=orthogonalEdgeStyle;rounded=1;html=1;exitX=1;exitY=0.25;exitPerimeter=0;entryX=0;entryY=0.21;entryPerimeter=0;jettySize=auto;orthogonalLoop=1;fontSize=12;" edge="1" parent="1" source="wJlJ-6Gabz69JEOM5e4k-23" target="wJlJ-6Gabz69JEOM5e4k-25">
          <mxGeometry relative="1" as="geometry" />
        </mxCell>
        <mxCell id="wJlJ-6Gabz69JEOM5e4k-23" value="Client&lt;br&gt;" style="outlineConnect=0;dashed=0;verticalLabelPosition=bottom;verticalAlign=top;align=center;html=1;shape=mxgraph.aws3.management_console;fillColor=#D2D3D3;gradientColor=none;" vertex="1" parent="1">
          <mxGeometry x="414" y="375" width="63" height="63" as="geometry" />
        </mxCell>
        <mxCell id="wJlJ-6Gabz69JEOM5e4k-24" value="1" style="edgeStyle=orthogonalEdgeStyle;rounded=1;orthogonalLoop=1;jettySize=auto;html=1;elbow=vertical;" edge="1" parent="1">
          <mxGeometry relative="1" as="geometry">
            <mxPoint x="790" y="390" as="targetPoint" />
            <mxPoint x="661.5" y="390" as="sourcePoint" />
          </mxGeometry>
        </mxCell>
        <mxCell id="wJlJ-6Gabz69JEOM5e4k-25" value="&lt;span style=&quot;&quot;&gt;API Gateway&lt;/span&gt;" style="outlineConnect=0;dashed=0;verticalLabelPosition=bottom;verticalAlign=top;align=center;html=1;shape=mxgraph.aws3.api_gateway;fillColor=#D9A741;gradientColor=none;labelBackgroundColor=#ffffff;" vertex="1" parent="1">
          <mxGeometry x="584" y="360" width="76.5" height="93" as="geometry" />
        </mxCell>
        <mxCell id="wJlJ-6Gabz69JEOM5e4k-26" value="&lt;font color=&quot;#000000&quot;&gt;&lt;span style=&quot;background-color: rgb(255, 255, 255);&quot;&gt;Athena Querying on&lt;br&gt;Metadata Tables&lt;/span&gt;&lt;/font&gt;" style="sketch=0;points=[[0,0,0],[0.25,0,0],[0.5,0,0],[0.75,0,0],[1,0,0],[0,1,0],[0.25,1,0],[0.5,1,0],[0.75,1,0],[1,1,0],[0,0.25,0],[0,0.5,0],[0,0.75,0],[1,0.25,0],[1,0.5,0],[1,0.75,0]];outlineConnect=0;fontColor=#232F3E;gradientColor=#945DF2;gradientDirection=north;fillColor=#5A30B5;strokeColor=#ffffff;dashed=0;verticalLabelPosition=bottom;verticalAlign=top;align=center;html=1;fontSize=12;fontStyle=0;aspect=fixed;shape=mxgraph.aws4.resourceIcon;resIcon=mxgraph.aws4.athena;" vertex="1" parent="1">
          <mxGeometry x="789.25" y="198" width="78" height="78" as="geometry" />
        </mxCell>
        <mxCell id="wJlJ-6Gabz69JEOM5e4k-27" value="7" style="edgeStyle=orthogonalEdgeStyle;rounded=1;orthogonalLoop=1;jettySize=auto;html=1;elbow=vertical;" edge="1" parent="1">
          <mxGeometry relative="1" as="geometry">
            <mxPoint x="999.9999999999995" y="419.75" as="sourcePoint" />
            <mxPoint x="870.5" y="419.75" as="targetPoint" />
          </mxGeometry>
        </mxCell>
        <mxCell id="wJlJ-6Gabz69JEOM5e4k-28" value="6" style="edgeStyle=orthogonalEdgeStyle;rounded=1;orthogonalLoop=1;jettySize=auto;html=1;elbow=vertical;" edge="1" parent="1">
          <mxGeometry relative="1" as="geometry">
            <mxPoint x="1001" y="392.25" as="targetPoint" />
            <mxPoint x="870.5" y="392.25" as="sourcePoint" />
          </mxGeometry>
        </mxCell>
        <mxCell id="wJlJ-6Gabz69JEOM5e4k-29" value="Variant Querying &#xa;Module" style="shape=module;align=left;spacingLeft=20;align=center;verticalAlign=top;" vertex="1" parent="1">
          <mxGeometry x="1004" y="383" width="148" height="46" as="geometry" />
        </mxCell>
        <mxCell id="wJlJ-6Gabz69JEOM5e4k-30" value="4" style="edgeStyle=orthogonalEdgeStyle;rounded=1;orthogonalLoop=1;jettySize=auto;html=1;entryX=0.5;entryY=1.456;entryDx=0;entryDy=0;entryPerimeter=0;" edge="1" parent="1">
          <mxGeometry relative="1" as="geometry">
            <mxPoint x="810" y="360" as="sourcePoint" />
            <mxPoint x="810.0100000000002" y="311.568" as="targetPoint" />
          </mxGeometry>
        </mxCell>
        <mxCell id="wJlJ-6Gabz69JEOM5e4k-31" value="5" style="edgeStyle=orthogonalEdgeStyle;rounded=1;orthogonalLoop=1;jettySize=auto;html=1;entryX=0.5;entryY=1.456;entryDx=0;entryDy=0;entryPerimeter=0;" edge="1" parent="1">
          <mxGeometry relative="1" as="geometry">
            <mxPoint x="848.0100000000002" y="311.568" as="sourcePoint" />
            <mxPoint x="848" y="360" as="targetPoint" />
          </mxGeometry>
        </mxCell>
        <mxCell id="wJlJ-6Gabz69JEOM5e4k-32" value="&lt;span style=&quot;background-color: rgb(255 , 255 , 255)&quot;&gt;DynamoDB: DescendentTerms&lt;/span&gt;" style="outlineConnect=0;dashed=0;verticalLabelPosition=bottom;verticalAlign=top;align=center;html=1;shape=mxgraph.aws3.dynamo_db;fillColor=#2E73B8;gradientColor=none;" vertex="1" parent="1">
          <mxGeometry x="795.25" y="551" width="72" height="81" as="geometry" />
        </mxCell>
        <mxCell id="wJlJ-6Gabz69JEOM5e4k-33" value="2" style="edgeStyle=orthogonalEdgeStyle;rounded=1;orthogonalLoop=1;jettySize=auto;html=1;entryX=0.5;entryY=1.456;entryDx=0;entryDy=0;entryPerimeter=0;" edge="1" parent="1">
          <mxGeometry relative="1" as="geometry">
            <mxPoint x="813.0100000000002" y="492.5680000000002" as="sourcePoint" />
            <mxPoint x="813" y="541" as="targetPoint" />
          </mxGeometry>
        </mxCell>
        <mxCell id="wJlJ-6Gabz69JEOM5e4k-34" value="3" style="edgeStyle=orthogonalEdgeStyle;rounded=1;orthogonalLoop=1;jettySize=auto;html=1;entryX=0.5;entryY=1.456;entryDx=0;entryDy=0;entryPerimeter=0;" edge="1" parent="1">
          <mxGeometry relative="1" as="geometry">
            <mxPoint x="851" y="541" as="sourcePoint" />
            <mxPoint x="851.0100000000002" y="492.5680000000002" as="targetPoint" />
          </mxGeometry>
        </mxCell>
        <mxCell id="wJlJ-6Gabz69JEOM5e4k-35" value="&lt;font style=&quot;font-size: 12px;&quot;&gt;Query:&lt;br style=&quot;border-color: var(--border-color);&quot;&gt;&amp;nbsp;Reference allele - A&amp;nbsp;&lt;br style=&quot;border-color: var(--border-color);&quot;&gt;&lt;/font&gt;&lt;div style=&quot;&quot;&gt;&lt;span style=&quot;background-color: initial;&quot;&gt;&lt;font&gt;&amp;nbsp;Location -&amp;nbsp; chr 5:10000000 - 10010000&lt;/font&gt;&lt;/span&gt;&lt;/div&gt;&lt;span style=&quot;border-color: var(--border-color); font-variant-ligatures: none; margin: 0px; padding: 0px; user-select: text; -webkit-user-drag: none; -webkit-tap-highlight-color: transparent;&quot; class=&quot;NormalTextRun SCXW6117018 BCX0&quot;&gt;&lt;font style=&quot;font-size: 12px;&quot;&gt;&amp;nbsp;Filter - Neuroblastoma of CNS&lt;/font&gt;&lt;/span&gt;" style="rounded=1;whiteSpace=wrap;html=1;fillColor=#99CCFF;align=left;fontFamily=Helvetica;" vertex="1" parent="1">
          <mxGeometry x="414" y="264" width="226" height="64" as="geometry" />
        </mxCell>
        <mxCell id="wJlJ-6Gabz69JEOM5e4k-36" value="&lt;div style=&quot;text-align: left;&quot;&gt;&lt;span style=&quot;font-variant-ligatures: none; background-color: initial;&quot;&gt;Fetch Descendent terms:&lt;/span&gt;&lt;/div&gt;&lt;span style=&quot;border-color: var(--border-color); font-variant-ligatures: none; margin: 0px; padding: 0px; user-select: text; -webkit-user-drag: none; -webkit-tap-highlight-color: transparent;&quot; class=&quot;NormalTextRun SCXW6117018 BCX0&quot;&gt;&lt;div style=&quot;text-align: left;&quot;&gt;&lt;span style=&quot;background-color: initial;&quot;&gt;&amp;nbsp;Neuroblastoma of CNS&lt;/span&gt;&lt;/div&gt;&lt;/span&gt;" style="rounded=1;whiteSpace=wrap;html=1;fillColor=#99CCFF;align=center;fontFamily=Helvetica;" vertex="1" parent="1">
          <mxGeometry x="635.25" y="575" width="148" height="41" as="geometry" />
        </mxCell>
        <mxCell id="wJlJ-6Gabz69JEOM5e4k-37" value="&lt;font style=&quot;font-size: 12px;&quot;&gt;Query for sample names and VCF files for terms:&lt;br&gt;&amp;nbsp;Neuroblastoma of CNS &lt;br&gt;&amp;nbsp;Neuroblastoma&amp;nbsp;brain&lt;/font&gt;" style="rounded=1;whiteSpace=wrap;html=1;fillColor=#99CCFF;align=left;fontFamily=Helvetica;" vertex="1" parent="1">
          <mxGeometry x="881" y="198" width="271" height="52" as="geometry" />
        </mxCell>
        <mxCell id="wJlJ-6Gabz69JEOM5e4k-38" value="Fetch variants:&lt;br&gt;&lt;font style=&quot;border-color: var(--border-color);&quot;&gt;&amp;nbsp;Reference allele - A&amp;nbsp;&lt;br style=&quot;border-color: var(--border-color);&quot;&gt;&lt;/font&gt;&lt;div style=&quot;border-color: var(--border-color);&quot;&gt;&amp;nbsp;Location -&amp;nbsp; chr 5:10000000 - 10010000&lt;/div&gt;" style="rounded=1;whiteSpace=wrap;html=1;fillColor=#99CCFF;align=left;fontFamily=Helvetica;" vertex="1" parent="1">
          <mxGeometry x="930" y="438" width="222" height="63" as="geometry" />
        </mxCell>
      </root>
    </mxGraphModel>
  </diagram>
  <diagram id="mq_ztOhCnN6YxIKEga_H" name="Ingestion">
    <mxGraphModel dx="1910" dy="1540" grid="1" gridSize="10" guides="1" tooltips="1" connect="1" arrows="1" fold="1" page="1" pageScale="1" pageWidth="827" pageHeight="1169" math="0" shadow="0">
      <root>
        <mxCell id="0" />
        <mxCell id="1" parent="0" />
        <mxCell id="sxkVZ_cRCS_OuBBn9tzc-39" value="Ack" style="edgeStyle=orthogonalEdgeStyle;rounded=1;html=1;exitX=0;exitY=0.8;exitPerimeter=0;entryX=1;entryY=0.5;entryPerimeter=0;jettySize=auto;orthogonalLoop=1;fontSize=12;" edge="1" parent="1" source="sxkVZ_cRCS_OuBBn9tzc-48" target="sxkVZ_cRCS_OuBBn9tzc-44">
          <mxGeometry relative="1" as="geometry" />
        </mxCell>
        <mxCell id="sxkVZ_cRCS_OuBBn9tzc-40" value="2" style="edgeStyle=orthogonalEdgeStyle;html=1;exitX=1;exitY=0.21;exitPerimeter=0;jettySize=auto;orthogonalLoop=1;rounded=1;entryX=0;entryY=0.21;entryPerimeter=0;fontSize=12;" edge="1" parent="1" source="sxkVZ_cRCS_OuBBn9tzc-48" target="sxkVZ_cRCS_OuBBn9tzc-47">
          <mxGeometry relative="1" as="geometry">
            <mxPoint x="470" y="1423.5" as="targetPoint" />
          </mxGeometry>
        </mxCell>
        <mxCell id="sxkVZ_cRCS_OuBBn9tzc-41" value="Ack" style="edgeStyle=orthogonalEdgeStyle;rounded=1;html=1;exitX=0;exitY=0.79;exitPerimeter=0;jettySize=auto;orthogonalLoop=1;entryX=1;entryY=0.8;entryPerimeter=0;fontSize=12;" edge="1" parent="1" source="sxkVZ_cRCS_OuBBn9tzc-47" target="sxkVZ_cRCS_OuBBn9tzc-48">
          <mxGeometry relative="1" as="geometry">
            <mxPoint x="440" y="1366.5" as="targetPoint" />
          </mxGeometry>
        </mxCell>
        <mxCell id="sxkVZ_cRCS_OuBBn9tzc-42" value="" style="edgeStyle=orthogonalEdgeStyle;rounded=1;html=1;exitX=1;exitY=0.25;exitPerimeter=0;entryX=0;entryY=0.21;entryPerimeter=0;jettySize=auto;orthogonalLoop=1;fontSize=12;" edge="1" parent="1" source="sxkVZ_cRCS_OuBBn9tzc-44" target="sxkVZ_cRCS_OuBBn9tzc-48">
          <mxGeometry relative="1" as="geometry" />
        </mxCell>
        <mxCell id="sxkVZ_cRCS_OuBBn9tzc-43" value="1" style="edgeLabel;html=1;align=center;verticalAlign=middle;resizable=0;points=[];" vertex="1" connectable="0" parent="sxkVZ_cRCS_OuBBn9tzc-42">
          <mxGeometry x="0.2357" y="2" relative="1" as="geometry">
            <mxPoint as="offset" />
          </mxGeometry>
        </mxCell>
        <mxCell id="sxkVZ_cRCS_OuBBn9tzc-44" value="Client&lt;br&gt;" style="outlineConnect=0;dashed=0;verticalLabelPosition=bottom;verticalAlign=top;align=center;html=1;shape=mxgraph.aws3.management_console;fillColor=#D2D3D3;gradientColor=none;" vertex="1" parent="1">
          <mxGeometry x="150" y="1335" width="63" height="63" as="geometry" />
        </mxCell>
        <mxCell id="sxkVZ_cRCS_OuBBn9tzc-45" value="4" style="edgeStyle=orthogonalEdgeStyle;rounded=1;orthogonalLoop=1;jettySize=auto;html=1;" edge="1" parent="1" source="sxkVZ_cRCS_OuBBn9tzc-47" target="sxkVZ_cRCS_OuBBn9tzc-50">
          <mxGeometry relative="1" as="geometry" />
        </mxCell>
        <mxCell id="sxkVZ_cRCS_OuBBn9tzc-46" value="3" style="edgeStyle=orthogonalEdgeStyle;rounded=1;orthogonalLoop=1;jettySize=auto;html=1;entryX=0;entryY=0.5;entryDx=0;entryDy=0;entryPerimeter=0;" edge="1" parent="1" source="sxkVZ_cRCS_OuBBn9tzc-47" target="sxkVZ_cRCS_OuBBn9tzc-52">
          <mxGeometry relative="1" as="geometry">
            <Array as="points">
              <mxPoint x="545" y="1211" />
              <mxPoint x="663" y="1211" />
            </Array>
          </mxGeometry>
        </mxCell>
        <mxCell id="sxkVZ_cRCS_OuBBn9tzc-47" value="Lambda Function:&lt;br&gt;submit" style="outlineConnect=0;dashed=0;verticalLabelPosition=bottom;verticalAlign=top;align=center;html=1;shape=mxgraph.aws3.lambda;fillColor=#F58534;gradientColor=none;labelBackgroundColor=#ffffff;" vertex="1" parent="1">
          <mxGeometry x="510.25" y="1320" width="76.5" height="93" as="geometry" />
        </mxCell>
        <mxCell id="sxkVZ_cRCS_OuBBn9tzc-48" value="&lt;span style=&quot;&quot;&gt;API Gateway&lt;/span&gt;" style="outlineConnect=0;dashed=0;verticalLabelPosition=bottom;verticalAlign=top;align=center;html=1;shape=mxgraph.aws3.api_gateway;fillColor=#D9A741;gradientColor=none;labelBackgroundColor=#ffffff;" vertex="1" parent="1">
          <mxGeometry x="320" y="1320" width="76.5" height="93" as="geometry" />
        </mxCell>
        <mxCell id="sxkVZ_cRCS_OuBBn9tzc-49" value="6" style="edgeStyle=orthogonalEdgeStyle;rounded=1;orthogonalLoop=1;jettySize=auto;html=1;" edge="1" parent="1" source="sxkVZ_cRCS_OuBBn9tzc-50">
          <mxGeometry relative="1" as="geometry">
            <mxPoint x="705" y="1284" as="targetPoint" />
          </mxGeometry>
        </mxCell>
        <mxCell id="_a7nlA9GAnXNiiO6bgXP-1" style="edgeStyle=orthogonalEdgeStyle;rounded=1;orthogonalLoop=1;jettySize=auto;html=1;curved=0;" edge="1" parent="1" source="sxkVZ_cRCS_OuBBn9tzc-50" target="4US6qlNFn62SGaoeN5Dq-1">
          <mxGeometry relative="1" as="geometry" />
        </mxCell>
        <mxCell id="_a7nlA9GAnXNiiO6bgXP-2" value="8" style="edgeLabel;html=1;align=center;verticalAlign=middle;resizable=0;points=[];" vertex="1" connectable="0" parent="_a7nlA9GAnXNiiO6bgXP-1">
          <mxGeometry x="-0.004" y="1" relative="1" as="geometry">
            <mxPoint as="offset" />
          </mxGeometry>
        </mxCell>
        <mxCell id="sxkVZ_cRCS_OuBBn9tzc-50" value="Lambda Function:&lt;br&gt;Indexer" style="outlineConnect=0;dashed=0;verticalLabelPosition=bottom;verticalAlign=top;align=center;html=1;shape=mxgraph.aws3.lambda;fillColor=#F58534;gradientColor=none;labelBackgroundColor=#ffffff;" vertex="1" parent="1">
          <mxGeometry x="666.75" y="1320" width="76.5" height="93" as="geometry" />
        </mxCell>
        <mxCell id="sxkVZ_cRCS_OuBBn9tzc-51" value="8" style="edgeStyle=orthogonalEdgeStyle;rounded=1;orthogonalLoop=1;jettySize=auto;html=1;" edge="1" parent="1" source="sxkVZ_cRCS_OuBBn9tzc-52" target="sxkVZ_cRCS_OuBBn9tzc-55">
          <mxGeometry relative="1" as="geometry">
            <mxPoint x="890" y="1310" as="targetPoint" />
            <Array as="points">
              <mxPoint x="875" y="1196" />
            </Array>
          </mxGeometry>
        </mxCell>
        <mxCell id="sxkVZ_cRCS_OuBBn9tzc-52" value="S3: Metadata Bucket" style="outlineConnect=0;dashed=0;verticalLabelPosition=bottom;verticalAlign=top;align=center;html=1;shape=mxgraph.aws3.s3;fillColor=#E05243;gradientColor=none;" vertex="1" parent="1">
          <mxGeometry x="663" y="1164" width="76.5" height="93" as="geometry" />
        </mxCell>
        <mxCell id="sxkVZ_cRCS_OuBBn9tzc-53" value="7" style="edgeStyle=orthogonalEdgeStyle;rounded=1;orthogonalLoop=1;jettySize=auto;html=1;" edge="1" parent="1" source="sxkVZ_cRCS_OuBBn9tzc-50" target="sxkVZ_cRCS_OuBBn9tzc-55">
          <mxGeometry relative="1" as="geometry" />
        </mxCell>
        <mxCell id="sxkVZ_cRCS_OuBBn9tzc-54" value="9" style="edgeStyle=orthogonalEdgeStyle;rounded=1;orthogonalLoop=1;jettySize=auto;html=1;" edge="1" parent="1" source="sxkVZ_cRCS_OuBBn9tzc-55">
          <mxGeometry relative="1" as="geometry">
            <Array as="points">
              <mxPoint x="851" y="1220" />
              <mxPoint x="742" y="1220" />
            </Array>
            <mxPoint x="742" y="1220" as="targetPoint" />
          </mxGeometry>
        </mxCell>
        <mxCell id="sxkVZ_cRCS_OuBBn9tzc-55" value="Amazon Athena" style="sketch=0;outlineConnect=0;fontColor=#232F3E;gradientColor=none;strokeColor=#ffffff;fillColor=#232F3E;dashed=0;verticalLabelPosition=middle;verticalAlign=bottom;align=center;html=1;whiteSpace=wrap;fontSize=10;fontStyle=1;spacing=3;shape=mxgraph.aws4.productIcon;prIcon=mxgraph.aws4.athena;" vertex="1" parent="1">
          <mxGeometry x="835" y="1270" width="80" height="110" as="geometry" />
        </mxCell>
        <mxCell id="sxkVZ_cRCS_OuBBn9tzc-60" value="5" style="endArrow=classic;html=1;rounded=1;" edge="1" parent="1">
          <mxGeometry width="50" height="50" relative="1" as="geometry">
            <mxPoint x="704.89" y="1481" as="sourcePoint" />
            <mxPoint x="704.89" y="1449" as="targetPoint" />
          </mxGeometry>
        </mxCell>
        <mxCell id="sxkVZ_cRCS_OuBBn9tzc-61" value="" style="shape=image;aspect=fixed;image=data:image/png,iVBORw0KGgoAAAANSUhEUgAAAggAAAGfCAYAAAA6dyoFAAAAAXNSR0IArs4c6QAAIABJREFUeF7svQeUZUW1Pv7V7Ryme3pyDjBDZmDIDDlKEhQlCPpUnr7nTwUVDOjzPTECZkB9iv59KopKDooCCpIHhsnD5Bx7Oud0Q/1X3ZMqnnNu51BnrV7dfW+dCl9V7f3Vrl27COxjEbAIWAQsAhYBi4BFQEKAWEQsAhYBi4BFwCJgEbAIyAhYgmDHhEXAImARsAhYBCwCCgKWINhBYRGwCFgELAIWAYuAJQh2DFgELAIWAYuARcAiEI2AtSBEY2RTWAQsAhYBi4BFYMwhYAnCmOty22CLgEXAImARsAhEI2AJQjRGNoVFwCJgEbAIWATGHAKWIIy5LrcNtghYBCwCFgGLQDQCliBEY2RTWAQsAhYBi4BFYMwhYAnCmOty22CLgEXAImARsAhEI2AJQjRGNoVFwCJgEbAIWATGHAKWIIy5LrcNtghYBCwCFgGLQDQCliBEY2RTWAQsAhYBi4BFYMwhYAnCmOty22CLwOhBgFJaAGACgIkhv3Xf5QFo437apf/577YBWAfgHUJI1+hBz7bEIhCOgCUIdoRYBCwCIwIBSulcAMdxP8cDOHSQK7+VEQWPMHDEITPI9bDFWQQGHAFLEAYcYluARcAikAsClNIEAKb8FwE41v05BsD0XPIZ5LTrAbwF4AUArxBCdg5y+bY4i0C/I2AJQr9DajO0CFgEckGAUjoewGUAzuTIAPtsJD+bAbwI4DUASwkhW0ZyY2zdxyYCliCMzX63rbYIDCkClNJylxQwYsB+Jg9phQa+cObD8AYjCwBeJoSwrQr7WASGNQKWIAzr7rGVswiMHgQopcUSKRjOWwYDCTwF8FcAz7DfhJDdA1mYzdsi0FsELEHoLXL2PYuARSASAUopOy3gWQkuBzA78qWxlaBbIgvVY6v5trXDGQFLEIZz79i6WQRGKAKU0ks5YnDICG3GYFe71bMqsN+EkPrBroAtzyLAI2AJgh0PFgGLQL8hQCl9L4CPueSg3/IdgxkdAPAr9mO3IMZg7w+TJluCMEw6wlbDIjCSEaCUXuMSg4tHcjuGYd2ZFcEjCtaxcRh20GiukiUIo7l3bdssAgOMAKX0AwA+DuC8AS4qNPvmriQONHfjQFsPDrZ1o6atB/WdKTR3p9GZBDpSGXSlKTqSGXSnKZLMTVCSfuUFCUwtSWB6eSGmlxdgdmURZlYWYn5VKSaWFg5l81jZLS5R+P8IISzmgn0sAgOOgCUIAw6xLcAiMPoQoJT+m2sxOGswW3ewtRvL9rZgbW07tjb0YHtzEvvaM+jMxjHUizOS/ZxjBEoyJ4WczG8XAQoTQGUBweTiBOZV5mN+ZQGOmVyK46aWY+Z4djhj0B4W6tmzKKwetFJtQWMSAUsQxmS320ZbBHqHAKX0JpcYnN67HOK/1dadwkvbG/DmvjasqenC1pY0mnoAIul7XpE7PEAUa6qQcz9ReEMEkXC/9rN3s2HEYUFFAosmFeP0WeU4a14VSgpYMMgBfdIuUbiHELJhQEuymY9ZBCxBGLNdbxtuEYiPAKX0owA+CeCk+G/lljKTyeDvm+rwt63NWF7Thd3s+iT+IQYbgZExeOklMef/62h8135gMkD4n0u8w2yxIASHVSSwZHox3nVIBU6bM6BBIRsBfJ/9EEJ6ckPcprYIhCNgCYIdIRYBi4ARAUopuwPhvwBcPxAw1TW14okN9fjHzjYsb8igk3cO8BS/ySJgkl4CAdDpfT1hCD7lLAyaRssWhCCJkkP2q7ICgtOm5OPqw8bjssMnDQSMLM+3XZLw54EqwOY79hCwBGHs9bltsUUgFgKU0ltdcsCuU+63p6urC39eU43Ht7RhZX0aqYwjhghPCDROhMxHgOg+92qmLvGdfP2a67cWWIpQHwT3faLsGuj3OgKDhkpEKvKBM6YX4vqjJuDsuQNiWWAEgVkTGGGwj0WgTwhYgtAn+OzLFoHRhwCl9GyXGPTbkcVkKoVn1x/Aoxtb8FpNCu0pT3UHGl+y/AMJAlBq9ikwWhAGyAeBJwpaoiJREZ8/6Cs6qwy4an4Z/v34SagqK+nPgcS2GrxtB7YFYR+LQK8QsAShV7DZlywCow8BSinTUmw7gf30y7O/oRX3L9uPJ7Z1odbfIVdX1o5lQPYCFKsQ6pwo2Qq0lgMvO6X48C0FMMuBylNCfBCMBXkUQ6htYR5w1mTgY8dOwMlzJyKR6DcHR+a8eCch5IF+6UybyZhDwBKEMdfltsEWARUBSulVLjE4ua/4pDMZvLrlIH65sg6vVafQzZRrNlNe03pLcPbb+Vx7HDH7tcEioLfwc3sK7taFsUEiMYjeinAyEnwQBEuCWCHJFUIlFJLTJdtiWVBGce3CEty4aDqKi/ot9sI9AG4nhLAjkvaxCMRGwBKE2FDZhBaB0YcApXSGSwzYCYU+PewUwhOr9+Ke5Y3Y0mrYOvDXzqqNXtm7N0gng6uB8fyj3nWQ19eMmoTFSXCJgctvAqcGgw+Ch6LJ5OHzEtWS4r1aWUBx1ZxC3H7GTBQXFfWpX9yXX3VJwmv9kZnNY2wgYAnC2Ohn20qLgIKAGwXxmwAO7Ss8z63fi7uX1mFDE1O07uMryASngD1bvWxB0Jw2GCWnGERCIcHjEyauBzipPC6f4j2zC/CZU6djwrjSvnZTp0sS7u1rRvb9sYGAJQhjo59tKy0CAgKU0s8D+F5fYXl9y0F8+/VqrKx39xF4XwJXM0aa2nk+wStMWTr14hRDqLuivJI3bVl49euHUwxBICcp/kLY6QwA5fnANfML8KUzZqOwoKCv3fY7lyiwC6HsYxEwImAJgh0cFoExhgCl9EcAPtuXZq/ZU4evv7QfSw+mQcN8AVzF12sfBFZJZknQ7QDE8kHgFLHS4H7wQRDyDCokCFaVITk0SKm/WB9d/0wuorh1UTmuWTSjr86M77gk4S99GQf23dGNgCUIo7t/bessAj4ClFIWz+DnANjNi716dte14Jsv7sZfdieDuAXyHQiSQjToR8VpL/AtMCvK7DcmqWXY84/2QZAiLpp8H+JaEDxk++CDoOscHp+jKyi+tWQiFs3qc+ClrxNC7ujVYLAvjXoELEEY9V1sG2gRYOEE6LEAngEwqzd4dPf04H+e3YaHtnahK3sxUvBEOw0yHwT2kum8oCOGBCIRcuzRTDjcOpkIil9lvXOgQiTCiEKcOAg+UVD+cNpraoipXD4bCrDrHq6bl8DtZ8xGSXGfLoz6NSHk33szLuw7oxsBSxBGd//a1lkEGDm4BMDfegvF65sP4NP/qMaBTtEmbiYGokJU9aCqoMUIiXoLQjQxEPNVhZuJGHDlGSI4ZuMg9MqCwDMp71JJB0f/Dgg9f+AYmBeHwcVfAn5OMcW3TirD6Qv7tO3wDwBXEEK6eztO7HujDwFLEEZfn9oWWQR8BCilnwPww95AwqwGdz6/Bb/e2INk1gnAsBKOoeAcQcOfE1RPMxDhe/76ZZEwqJYGQ+tcE7+iiE3tkDOWfB+UZkYce1SEq7zloDhdRhAVeXfF5QvF3Y24eGEV8rs68NXzF6JyXHlvupu9sxnApYSQ7b3NwL43uhCwBGF09adtjUWAJwcP9dbfYNPuatz83AGsbeaX1LwFgTo+CJpQyPJegfm2RGnF72fPrZQ1K/roLQ2TJUG0gPC+DM4besuFTwwUQhBFmKTypOTawFAh41cXJ+KI/CZ86Lzjs28xqP61ais+tLAMSw6f3VsnRhZM6SJCCIubYJ8xjoAlCGN8ANjmj04EKKV7euNvkEql8Kc3t+Eby9rQmpbFg17hmUMgBwTCCUQUFklRFwfB7Zuw2xxNWwKcwtdvNajHIoJ04Sv58NscnXyFMg17I6IPQoxATfxQzaRxwZQkzj/xSGUAb9qxF52NDfjaJcf0xTfhekKIvRlydIqH2K2yBCE2VDahRWBkIEApZavAnMPvtbS24cvPbsPjuzKgvkLnnAuzao+LkGiSHpJCVPVjCNGIWMln8zKWq+ZrsiWIxZgtC3yP984HQWcCcXKN7YMg8aS8rnbcctY8TKrSbyWw1iRTSfztpWW46/JjMHtKr0863EYI6dX21MiYKbaWUQhYghCFkP3eIjCCEKCU1gCYnGuVV23fj08+W43tbRwByNmkbijVv3OgFz4IGsIgEI7I659jxEFQDBURWxxeM0OcFrWCVTK1hMZBMLRrSrIeN1+yGHn5eVqw+XL3tfTgobd3465TxuHco2bnOiS89JYk9Ba5UfCeJQijoBNtEywCDAFK6TYAh+SCBrs/4fdvbME3lrWjLS3fWuitrCXF7loSeuWDoFxuFNRWMblrnARztSCIBod+8EGIVMv8cc04PghchmHSmGZwUlkb3rPkWCTy9Lc98q8/+sYGrGgryZ6lLExQ3LyA4GOnzkdBQX4uw8NLex0hhPmz2GeMIWAJwhjrcNvc0YkApXQlAMdbLeaTTKXwg39sxL1rupHhJYGrmGOb1A160ImA6JxWUH0Q+Eo6hRstA8PNByHUstL/Pggk2YVPnDIDs6dUGnuW7757nl2DmkSFEqrxXVPTuPu8OSgv7dWdDu8ihDwXc2jZZKMEAUsQRklH2maMXQQopS8BODsXBLq6uvCFpzfj4Z3JQDVnr1Xmr11mmnAQfBDCjvvpFtgxfRDUZNIn7r+Rpwm8HYe+xkHw2iKUG25BmJSsxycvPhbFhWaXEq9V7T1p3P38RqSLDMccCcFhZWn89JxJmD91Yi7DxUt7HiHkX7150b4zMhGwBGFk9puttUUgiwCl9GkW4CYXOFrbOvCRRzbitRo3toEiBVyiwAhDRMRAZeWvq4jggyBHVAxudQyPg+DFTQg57SCXHSsOQpjTpa/JhZx9uCJ8NFRY1S0ObYAoVlo6hTPGd+DyM44L7VqvjJVb9+KRrV2gefmcJUZ/DHVyIcV9Sypw0iHTchk2XtozCCGv9+ZF+87IQ8AShJHXZ7bGFgGPHPwBwA25wHGwvgk3PrYN6xo1pwEYIcjwEQPlvQP+/4g4CFyoZCEOQpQPghB2QU9QQiM4+uUGqARCTuODIFwmpScE/sI/Z6fNOD4I6vHGREcTbjnnEEyZYN5S8IhZJp3BX1Zux9KGPD92c9Y3REvUgvpU5AE/OKkA5x01N5fhw9K2AWCWhLdzfdGmH3kIWIIw8vrM1tgiwCwH7NKl/8wFip3VDbjm0R3Y087eclfkIRaC2D4IvgaVamPyQfCOS/pu/I7mNR/7ExW30VdBqQe/ZaLVmM6H3haCkDEfyVF8t1/jIEiE6ej8elx/3gnIMzgi8k1MU4of/m01GgvGCxUMmhFOUIoTBN9clIf3Lp6fyzBiabcAeD8hZE2uL9r0IwsBSxBGVn/Z2loEGDn4LoAv5ALFxt0Hcf1T+1DdwYiB/Kb7geKD4CkY3SkG/rIhmRiImlrWu0FqsSIDcZujVIKk6T1+oLEsaMDNnTDFsSA4BSW623D9UeNwzMJ5od3qtWfXwUb8cvlBZAr4S5pcZ9BQC4LoDJoPim8dV4D3LQ4vV1MpRg4uJoQczGUc2rQjCwFLEEZWf9najnEEKKW3Afh+LjCs3LYfH3x6P+p6PIUoKnA9YaAgA+KDEPgcONcZRvggZKtqsCBIzVAwieWDwNEVWRrGuYtB2xGG2x90cRAyFBO7qnHb1WdEdqlXvcfe2IC3m4uALKELwSciFLbnnFmYAL5zXAGuOj5nkvAAIeTfIituE4xYBCxBGLFdZys+1hCglJ4H4J8hsQQVSN7YvA83PVONhh7u+J1hYZtVOIEvIGdjt3EQsmpYH35A6Y64Jn6S7ME1C4tw3OHzkDA6VgQUoDudwff+vhYdBa5vgtHVINoHQUhBgKIExfdPKMIlx8zJdVp9gRCSE2HNtQCbfugQsARh6LC3JVsEYiNAKWVagZ1DPyXuS5v31+A9D+1Bfbd4WsE/1mdYITvxC3pzvbFUs7A4CBpnRaNvgVTP3HwQzJGZzZYJzmKhi5Tc1zgIlGJS1wHc/O5TUVhQENmdrDYrtu3Ho5vaQPMKfJ8J3wJjjBMRf4uDVaIkj+Lnp5ViyWEzI+skJbAxEnJFbISktwRhhHSUrebYRoBS+r8APhEXhf11Tbjlr5uxbE87ugrHuYZo0VQf5GXyQbBxEFzgekmYNOI12YUPHluBo+bNcvR7xMNOKfzmlQ3Y2l3KpTf0IwtIpbtd0yvDLdBMsAgmFmTwwLmVWDhzSlTV+O+tP0IuaI2gtDGG6Ahqja2qRWAUIkAp/TiA++M2rbm1Hdf8+g1cdcnpSKfT+NGTq9CRKNXcZhxGGAbKB2HsxkGYnqrFTecfh7KykljkoKa5Dfe9shvpghK/6+WtAceFw+CjEeaDkN1K0jhnUmBeSQoPXDAZ0ybnFEzJ+iPEnaAjKJ0lCCOos2xVxx4ClNITAbDANIVxWt/d3Y33/+o1XHFJ4PSWSiVx12Mr0JNXZriG2M25P+MgcEvvsR4HgXS348Zjq3DUIc6FSXEsB4+89g5WtBYL+zyBPjcRO6cf48RBUIiG319OHieO68EvL56NceMMURn1g9H6I8SZpCMojSUII6izbFXHFgKUUjY/XwWwJE7LmbXgUw8uw6LTj0eepIVSqQy+89gKpPKK3HgDQxgHQVjZsiWw4/2nCCPfSV8MmDTkPgh+veReCVbk2SSU4pBEAz52ieM2EocYNLR24uevbEVbnqqYVXzc8vrJB0G+DOPqaSl88/xDUVgY7SfBIWH9EeJM1hGSxhKEEdJRtppjDwFK6Y8BfCZuy3/5r/WoLZ+KiVWicvEmeW19M372z21I58vGCJMPgqfw+jsOgt55bjTFQSjpbsQHTpiJBXOm+90XRRCeensLltYljMclIvHpBx8Efqwxg9IXF6bx0dMWIJEwHuGQh+cqAOcQQlrijlubbvgiYAnC8O0bW7MxjACl9IMAHogLwWvrd+CGJ3bjC1efiALOM16e4DWNLfjJ81sB5g0vxRcIynLeyh7r6/e7GPoxDoKeZ3DNcBIYohKoxxNl00TOcRAIkOzEOZMzuOT0RbGJwd7aJvz2rT1o96wGIe3Sbg0YT3no72IIul3vg8BbEtjxx/tOSOC8Y3K6Rfz7hJCcAnnFHec23eAiYAnC4OJtS7MIRCJAKT0cwHIAZZGJAew6UIMrH9qN6i6gPNWKW99/CvLzuUt7pEwaO3rw42c2gCby3G9cRTEYcRCEuojiR1whCwEZAmWbZS4GVGSnO651zp/Si9y/LiXSJvNKC42DQClmJKvxyXefgTw/gFH4tkI6Q/H3Vbvw2sG0w8YipHGkBcFrb2gkxRyuo3bzm1SYwR/Oq8D86VPjDEcvzSWEkGdzecGmHX4IWIIw/PrE1miUIkApZQr/KAATXOVfCoD/6QSwDcCtzEwbB4a2tnZc/eAGrG4I4hqVJRtx+w2G25/dGb9h2178caV7Y5MsBRSi4KtIrUnBaDoPi4OgIQqqb0HUHrvBwiFkpNO7mpWzQB/cDAzSUbaslHbU4gMnzsKCeY4TIv+YsNlX34ZfvL4DqQI2JPT1UfJSuiEKH1MDPB5kIkwScQNwTFkPfnfZHJSXxeKsrADmO3MuISQdZxzbNMMTAUsQhme/2FqNcAQopScAYHZmRgiOdn/nHMs2DIZ0OoNvPbMGP1ufUpJV9NTjc9eembUk+I+0Yl69rRqPrKoLVKNyF8NAxkHgqsyug9bd8hhPf3HtUxWbpK61/5oviXKTe3pY2oZnpxMumpHAOScfo0RCNBGDVDKF37+6AZu62FFHz4LDlaPrcJ8HcIRAt/Vj8kHw+YdgJ1EDLkkmDJmw3TAzia+et0AcU+Hz9OuEkDtG+FQe09W3BGFMd79tfH8g4G4JnASA/+Fv0emPYpQ83t64He97ugFd8hrNndWHlnXj3y45EQne5C3l8o8V2/HSjg7pU1eRDAcfhNBz/iYfCU/hOpqx330QMmmcOTGJy5cco+1XEznYWd+GX766A5lCdxUeRoy0vh+SNcRT/NKdGYFi77sPAmuglx8FxQ+OI7hy8aFxxzMbmcxh8bW4L9h0wwsBSxCGV3/Y2owQBCilzIZ/sftz8mBXu7GpCTc+uhXLa8P25IGZtB6fuOZcnRHB/+yXf30bu7uKnct/tHcxeGKCN4VTHDKhGNPL8rUb7fvbktjXkkQykwkUtCJtpBW/sNLV+yBkFZZJag20DwKhmNpdgxvOPhJTJrJdIv0j16+pvQe/eOEdNOWLdyhEWi5k2iZZAkw+C/0RB4EnBvzgmVRI8ciFEzBjsrn9UrWfJYRcMtjzw5bXPwhYgtA/ONpcxgAClFIm6DxSwLYNhuTp6enBL19ch6+vZFEJxet7dacOFo3vxjUXnRTqA/fjJ5ejPsWMHoFi5hXdtPICHDe1DMdNK3F/l2JiCbd9YUBiZ1M3tjd1Y19LDzbUdeMvmxtRnzV5cKcZjHEQovbYTRra+1wyqQs0iVuiu1IwEIbSB5SiuO0gbrvyJJSXFof7SHJVSlOKB19ej/Xthe6REA0h8ntQrY/cOpVfReFjEO9+86TvhT2FoHQ5lwsm9uDeSxYIp2UiJoINoDQkkqLvhVqC0HcMbQ6jGAFK6QwA17k/pw51UzOZDJa/sxkfeL4Nre71zWaNFSjKC+cX4NwT2eEI8fEEQDKVxjcfW4VMAVOAvu0aly2swJWHT8BVh4/vl6bXd6bwl83NeHpLM97Y2ybkGcdLP1vfUAuCvn3Op3qFaI70COS11+M/z1mAmVMmZP0M4ha9el8zHlq5H5m8IlHT+lsmmq2PCGnsh0Y2HL9kphXtXQyS5UHgAVx9ZHyU6rhbTgyH7y4Crjw+9tFHFhOBbTWwGAn2GUEIWIIwgjrLVnXwEHCvVmbE4FoAVYNXcnhJ23bswOdeqMfS2mAFHqbg/Nwoxfmz0jh/yWL/I3nyd/SkcecTazBn4jhceXgV3nNEFY6eEtwD0N8YMILw6IZG/PEddpqCbUVITg9eBY3n/OOcYojhg6CxIOR1NuFdh5TirBOZj6mWXgSfc0DWtvfgZy9sQlceO5wiv6ixIMRwzuRxF3Lg8eESBQTAZwZa1mTe4hDf0ymJyQUUf7l8EqrGxyaO9xNC/rO/x5DNb2ARsARhYPG1uY8wBFzfglsAvG84VZ3dsbBz1278dFUz/rRd0j3GZS2voSiQSePDJ0/GwvkztSvhggRwWFEGx08qQgn7Z5CeF3a24v4VtXh1j2dRUDS2qGtDl/Gqd1+Q3GxSJ+6WR6K7DefMJLj4tOOE1kdZDpo7uvD7V7dgT6qUizPUWwWtBz7awuKUF+6DwJEdpXoSgZGrIfG3903pwbcuOgx5edJpDPO4OYkQwuJ72GeEIGAJwgjpKFvNgUWAUsqWiowYDKtVTldXF6pralBTU4cHt2fw4HZ+796ZvoLJWAcTP8vTSXz53Udl99L5Z1ZpAidW5WNy0dCJhAfW1OMXK2qxs7nHdVFwNZjxrgHDmJAAUVukIQo9nbjisHE47YjZyjG+KHLw2s5mPL2uGkgEPhnalb58jNDUcYYCheT81kDoXQwajFxnznALgkRC+WzcbinMo/jd6YU4YcGcuJPTWhHiIjVM0g2dNBgmANhqjG0EKKWTAHzWJQfjBgsN5kvAftgFS2n2dzrN7vbJrgCTyRTaOzrQ1t6OtrY2sIX1fRsyeKdJrJ3Bad9465GXPq+nFXfccHpWXbGfEyfk4/jxsVeBAwoR81H41qvVeHgD23bItb2mFbDJcgDkdbXilMnAVeewsBXqEyYgn1u9Ay/t7UImId5toaz0vWz9FXtMYie9J/ggaCtr8JEwEaYIZqkQEsWoRHDquG784pJ5KC2JvRVlrQgDOoP6N3NLEPoXT5vbCEKAUnoTgC8CUL33+qkdTNEzK4Dz042u7m50dnaiI5lBexLoSDk/7akMUhnHhtueBuq7KGo6KViwwwOdxjVstpbqylLWrJKiBUFJVx1+cNN5WDIpH9OKB287IS6s33n1AH7GznBmL3s0KH7FRO7mHmlBABJdrbhgXhEuOFkfy0DAVar0sm3V+OvGenQniqS7KsQKqfpXJSpxAkTxxYuWCTfOgREfA0BuJn3xQcjWyd1yuPvoNN570mFxu9ZaEeIiNQzSWYIwDDrBVmFwEaCUnuESgyv7s2R2/LCltRXt7R1ZC0B7ezvW1Wewow3Y257BgQ6Cg50UB7qAFDvpJ88+Jugz1FeI6uSMUjAmYhC8l/2LACfOKMP9l8/FzPGxV379CVWsvO5fWYdvvHJASduXOAj5XU249oQZOHzOFBRxl1oZlTD3xd7mLvzmlS1oz/Mw0yvggBj0VkHr4QksRr6Gl5ifQxgG1AeBnayV+OTCkjR+f+EUVFXFdli0VoRYM2DoE1mCMPR9YGswSAhQSplr+ddcctAvpTJrAAta1NDYhC117Xj7YAabWyh2thHsaM3uGQSPLNdNx9XcN4i0MlQy8tJ5X4QbGvyY/2fNrcDPrpiPKWXsRsfh/Ty2sRG3PLdXB2PsS5sYLGXdDbj8mKlYfMT8bF6RUHEl7q5rwe9e34a2PGcHyicoSiYSEfP7xUAkTCZ+Q+WUj7OBrdSAUiJB0fRvP/kg8EThS/O7cNOZR5nJiVgNa0UY3tPOr50lCCOko2w1+4YApfREAD8CcFbfcgKYpaC2rh71DQ1YXd2Blw9QLKuj2Nsu5WxQIMYVsDEkcpSCMZUrmbwJcPGhlfjfKw5BWeHw21Yw9csP36zBD988mNXqWoFlUrSZDMYnG/Afl5yICeVBPIK45KC2qQ2PLN+DXd0OkVL7TZ9TqA8CR09M1TbhMGQ+CF6FND4I3qmJ6QUp/Pn88Zg6ZUrc6WWtCHGRGsJ0liAMIfi26MFBgFL6QZccMIfEXj919Q2oq6vD/sZWPLwtjRf3U9R2hx2rMxMGx9TvhDY2hsyVYuwHuUmK31+pGprmzvKz51bi4esW9rrLGFU2AAAgAElEQVT9Q/niNY9txxsuA4tSrCTZgXPmleH0w6ajcpzodxqHHDR1pvDAS+uxL1WijeucuwVB30HRREJFXKi/t+eQ8ykGJ99en2IwEIZPzO7GrecFcSMixou1IgzlhIpZtiUIMYGyyUYmApTSbwP4Sl9qX32wBvsPHMD2phT+tCWF12qBHifKsfCEWJzddE6KOBYER4DzikXDJCJX1MH7lUV5eOi6w3D8NC6AT19AGeR3GTm45vHt0q2PHKyZDMp6mrBkVinOO22RcruiiKe+33bVNuHB17ahOb9C7CRva0jbwRqCGLZ1oIukGFMKx7EgaH0QNPVxCKoXaMpgoZL7WLm8y3nP83mYmJ/G0xdPxMSQeyq4LNkNYccQQnYM8lCyxeWAQMyhmUOONqlFYJggQCl9CMA1va3OwZpa7N9/AGtruvHrzWms9U7ehSxhw03gTk2EyIe6yimXJoUTBbPTXhBp8LsXz8WHj5/cWyiGxXtsm4FtNwjtTXZhfkEbPnLpqSgsyM/Jt8DTkRv21OKZdQdQm2bkyd3T116n7H4d45ZLVQFzEHqEI9DQ3sAItyjJw8BgYfKJhC60NHc7pjqMe0sUXDJLCG6Zl8Snzop9KOh2Qsjdw2Jw2UpoEbAEwQ6MUYlAX8hBY2MTdu3Zg3fquvHrjWmsamAQhewFcAtZlwFImLqC191SUBS6t9XA7fG6tobQctV85OROuTcsmowfXTJ3VPTzu/64BetrO1GVbsKFR07G0YfMQlGR418QZ/uAB2FHbRt++8pmdBdWBApaS9iEO6xUTS/3tomxSRo5aqvEz9YfPj6z0Pel6a6IyEBTeuSE+mWPm8rFqhaxaQVpPHXZVFRWuJiGj7oVhBDmG2SfYYqAJQjDtGNstXqPAKX0RQDBHccxs2IxCnbs2ImtB1vw03cyeKueCl7ivV5xaWaZs8I0+CC4At0YCEkXkc+w4j16cikevu4wTCyNvnkxJkxDmuzxtfvQWFSFwkJ2zXRQlVzIwd/fXI/X9nUjWVAuEIMgj3BFLPgg6O5SMBJGqZb+FpH6uQlkIWV2/ATHYr13gnFqQEWwYOj4jvieUUkoV2c4TOZLCyluOn1B3HHyHkLIk3ET23SDi4AlCIOLty1tgBGglLI9zXm5FrN33z7s2leN321K4qldQNb30BP0MZd6kclMFgTP1CyZjBWFpVnAaScwV5G7LpqNjy6O7VmeK2yDnp7dFP3XA0l0pp0OiksMujq78OzqnVi6PwlaKIaZ9jd9IjJTCZth5W0aCNLnkeNFQje7daAhBPJAVWqlKcghqAqlEEpU8onwQfBePrwkhT9fPgclJTLO2uHyICHkxkEfSLbAWAhYghALJptouCNAKWXSqDPXenb39GDzlq34x/Y2/GJDGjUsB5N3eAyJLq7w9DsERh8ETwHwFgRFZIc5xYmtXzipGP/88FEoyh85Rxrj9N/KpjTeaWaRpqIJQm1bD3793Ao05o0HEiycNIefs+D1M4n0DXHTq6cYpIy8LP2P9RaC4Fptf0kfzwfBA6k3PggcaupwVtuhxVjjg+EQDidHVq1fnpjAmUfG4ukp11lxU5y+t2kGFwFLEAYXb1vaACBAKZ0KYBuLh5NL9k1Nzdi4bTu+v6obL+zTaBtfIcSbJpFbApwecOopaRyuGOdPvcD2Vn7mlaKT+/+cOxufOoVBM7qe5iTNWhGcuyvUh+Hy6KvvYFVND5IFbEjoFbSHr5mwSQRC0Khmn5TwSIbBezH4ptA4P1/TcMzZB8EwvtxStRYEvkYhFrHzxnfiJ5cejvz8WHd8/A8h5Juja5SOjtbEk3yjo622FaMQAUopc5l+GUBOdvQ9e/di2ZYD+PqKJPa0yQqEU9z8CjOmRI/UI0yQa30GxMh4epN2PAvCzIpC/PMjR6GqZHT4HshD9+XaFPZ0iGdNd1c34K+rdmFXD4tfEFhNgt5VTAYaC4IamdAv22hB8FKIJYnHCLkWaImimQ8KOpn/x2hBUOsj8s2Afup5qDgfjERUmTaBT01JguLZi8bFDZy0jhBy7CgUTyO+SZYgjPguHLsNoJQuZotFAE783BgPuz1xy9ZteGZTM364NpW9KMk/NyfPBl+Qx5sm/WlBYE1RTNAauS/UjNN/XzhjBj5/xowYiIzMJGub01jT5GwzPPv2Jry8sx3pItfpUGpSnEuJsjgaV+ZOhurhBP0LZguC2IEx+WbAT7wKhFgQtM3QDEyxvYZ2yEMjJJKibhT9v7kpfPbs2Jc4XUsIeXhkjsbRW+t4km/0tt+2bIQiQCllFoPnABwXtwnsNsWNmzbjd+904DdbdJGO9JaDwKQfbpJVhLNh6WWOW8AtLbULWXnJ5iouGQAC/P59C3HRoZVxoRlx6d7e24SPPvIOmhPjQH3Fqe8faV0ftFWBU1nai7h4XyvFqGLUUcCG8SIQT8knIqQnAkIR7qzY+y2OKPzcymmcFYkXP4Krv+OsOBsl8a6C/g0h5KMjbiCO8gpbgjDKO3i0No9S+n8APhK3fc0tLdi8ZRt+uKobz+51N69lAe7NBmFpR9WQtIZCjStMvV5Xl6RcOudPzYth+sRNnkcS2HDLcWDRE0frs6u5B2c+sDk8ToQuEJEAiIuycUXuZu8qxKB/DS+4TqaKgpbGk9evZouT1GsebzWF3uYGnlAzyenVy1VsR4gvhfeCKTCUyQfBc1akwINL8rH40NlxhuEOQsghcRLaNIOHgCUIg4e1LamfEKCU3gLgnrjZNTe3YM2GzbhjeRIraoOlubrAl1ZQ3r+uadVo8tfIc51+550StRNPYhiRx+o8xSFldsKMMvztQ0fGhWfEpjvm/vVo7na2GUS8RUCC/zT9y7U+1ikG+XQgFzpZJnRGQsERhuzK2+h1qnaN0LLs9eBqAKPQSIocUAJv8T+PcbcIT6QFHx11VF89uQd3XnJE3DF2NiHklbiJbbqBR8AShIHH2JbQjwhQStltjM8DCK7nC8m/pbUV6zdsxDfeakVbJh97GzrQlipAOq8INI858GmOvfl7rY5CUfawDeXpLQgR1/Hy8ljRX+EWBFYNccXoVOw/TpqKb54fa9XWjz0z+Fld+7h7gZN5z0bsPwlf/pRIFkdZGsr94f+vZBQQlGx3h1gYuPEW24Lg8R93xa5GNPQTqDyJC63M95DYXn19lU9lS4LxFENQn1mFKTx9xUyUlsa6A8SeZhj8aRRaoiUIw6xDbHXMCFBKmRcaIwenxcGpra0Na9ZvwvdWtuPCC04VhSeA9q4Uqps6sX1fHTbuPIj6DopUoigw/WsjxYWXrFU00nFGveVCzTfapB3oJf7t31y9AJcuHB8HohGd5lp2w+M+7o5tg8YVLQhck4UltHvpUFhEbTd98JqBKPhxEEKIROhtivpuUdphCG8Rm6B4xaimBKECkUTBo9AabcK65E+nF+H4Q2fGGWv/JIRcGCehTTM4CFiCMDg421L6AQFKKdtWYNsLkU9nZxdWr1uPb7xWg8uvOM9Pbxrw/OeNrZ3Ysa8WB2qbUdvahbauFFp7gO5MHlKJQo0mlxU1p0l0lzB6K0HditWlMdp6agwKIutxFNLj1x+OJXPEa44jARuBCa59fAfe2NcWevxAZ2GR40uEGiB4PhGhSD2nxNjXKMeWvk6/EraloHvCfBA0d4jk7IPgFSsRKu9YRxTh/eD0bvz3BbG2GdiZovGEEI71jcCBOYqqHHuIjqI226aMQAQopexWRnY7Y+TDjjKuXrsOX/1XNS6/wrmSIQ4xEDI2KWMgSxga2nrQ3pPE1i27wLbBqxta0J0EOlMUNJGHJM0DJXnuNoa7kgwV5G7pLPpPNgIQAUlQkAyzWbOPKAhlG87s+wwSmRRIJo08pFGSl0aCpjF5XBHyCcXPP3gGDp88BghCv1kQPIInmwikoaZYELzv1dGV/aSfTzEE49gdTwbC0DcLQo4+CP7sCq59lifoESVJPPTuef6lWhET2N7NECnhBi+BJQiDh7UtqZcIUEqnA3gBQKxlyIaNm/DNF/bi9IvOQMIUXS6ENMS5BCgu6chQCuoqefZOJpPOmaywScqEPuGD/yRItm384/176fQCTC8eXeGVdUMnjgVB6Cd1qesxA32fyCSxXywIXCTFHKVvHAuC2F4x8JaPoXBJVIxTDIoFwc0p4hSDV14BAZ65cBzmTJ0URwL8lBDy6TgJbZqBRyDHITrwFbIlWARkBCilvwTwsTjI7Ny1G799YxcKDzsaFRVlOSvjOOSgL9aIsAmXc74cIDxXGDMEwbMgRChus8lftADktNUQcnqBjSGnSiYzlLtlkMPpBSG3sOOOzNIkN8SAT+QpGY8H8DB51z4LzrUGN17umOVXD0vjQ6fEuuFxEyEk1kIgjjywafqGgCUIfcPPvj3ACFBKPwzgN3GKYccZn3pzA25dmkEm2YXSRBIzq0owY2IpFs6ahLmzp+nEdpA1NxtyVdbGiTQQeUpgyPpgrBCEJb/bjD0tPZqhIaln1yKv3F6o7vz4FgVh695Pp2Qklu12hKCPw66Djit9vZW6IZIhH+JRyNLktBllCZGJgfYWR93pTBOgwEVV3fjJ5bH1/lxCyO44c96mGVgE4g7Rga2Fzd0ioEGAUsrORi0FEBmnnfkdvLRsNW56sQvN3Z6Ek4Y3zSA/1YWJJRRHzJuKYxbMxJTKEhSw2w77oMg1a8WBJR0Gy4H38YVTCzCndHRvMTBisOS37gWAkRYE0VKgmpVcQmHS/0ZDgNmE7wQWlDLUEBVRoUeLAYH6KMcOHReV2D4IJuIkE1C5Wl6l/fc5/Pi03PezC5L4y1VzUFwc6wroGwghf4xGw6YYaAQsQRhohG3+vUaAUno7gDvjZLB9x07c/PcDeL1Gt6AUJaEy6GkK+ZkelCQyqCxOYP6MKsyfPRWzJlWi3L3sKFeLQl8IR9xJaTKJn1CVj+PHj94oiqyHH9vUhM88vzdiaGgsCdk3VI2vxVxOxpnMtQW7hGBgTjG490+ZLvniSaPPhwyMpy8+CPzWimwxEcoVEWJc5rmLxmF2PD+E7xFCvhhn3ts0A4tAXFk0sLWwuVsEJAQopXNc6wFzUAx9WLyD/3thHf57pXMCIHQFxU4IGAWbL+GcP7LylZ0YSKI0kcbk8kIU5VGMLy9EeVEBKsuLMHXCOFSUFmL8eC7uQB+sEXEmpDEOD3OCpBSTaCeuOrQqCrYR/f1XXtyHB95pcONchaMW57KmbHfHZIGBwcLwQiwfBI6mxOl0/vIur6Lye70mKCbTSTANBF4lWA6c+aQnWGK+XzsCuOGkWPeq2XgIw2R2xhyaw6S2thpjBgFK6fcB3Banwa+vWI0bn+1Ak7wdHRU4R2cC1hSoTBLdBzQDFjY3L9UD0BTK8zPIY+SCUEyZUJn9zYorLi7EvLmzUJAgyHNPIuTlsb8TaoA8V742NTRi34Fqv2ZtHZ2oa+pAOpGHliRBGiwyZCEy+Sy4ZAKHTCrBGx+P3JWJA+2wTXPhH7diU32XoX5BB2X/CjS6GjlTd5rFpPfDmBmnQdXiVIuFUC0jyu4A8AitjhBwhNfPU1DgXOZ+duGEwKfJcjKhYRofhAgLy3unpHDXxQvjjKlGQsiEOAltmoFFwBKEgcXX5t4LBCilJ7jWg4Ko1w8cqMYtT2/H8/uDJaBxUEuEwKQ3hNj4UZcj6QIhSZETlTZkV1xRIfs0kf2MiksugWD1JxdhWnkkfFHwDsvvX97dhhuf3MHFOxobFgTnAnAudHe/WRB8SqDtb5kX+Im8L8K2GjgCc0xpNx557+FmC59Y+iGEkB3DcgCOoUpZgjCGOnukNJVSei+Am6PqyxwTH3lxBf7fa6nsnTWRKzc3w2AhKC2RTAqYl59ave68aDZRM2e2sDt53ILlhaZpdnKfuyU7NeSa8/v3LcBFh4zO655veX4vHt/UFDI8RODi9LfwxoBYENQBEC18xfHJhcFw+1vvJBnMA3lABQYUYdwYkFQMcFEWhAhiXJWXxj+vmoGyePcyvI8Q8liUDLDfDywC0WN0YMu3uVsEBAQopWyTchWAiihoduzchRuf3If1TZJCUBS6fpgbz4FLvEFZXxm+V1Z4ysLeEehGHwlewPJ3PIURBeEuqKBiVx1RhfuvHH23566r7cSlf9oaKMg4lhhjvAGRmCkwm8aBe+zQfLmTtCevMteAUIYZkqTxkx03ujgE/gCV1L5f/5Dx7zNL82yTeYFPRLPxGKJ8EIJ8WT5/Pb8Ch86YGDW12fffJoR8NU5Cm2bgELAEYeCwtTn3AgFK6R0Avhb1ald3N+7960p8Zy2TmJ6+MGpuN4H3y7RE1JdqcGVQTAKqgolY4fFLfla0l4Hv5CZrCHkLXWqvVIG/ffAInDC9LArKEfX91185gF+trjfUWVpxK8OBIwQ6i45p+Lh769oARJrbEsUVvHYPKoZa5gaEe5xRsVBpTFbZsk0D1m9+PLHvZy8QjYjbSUNGE0ECdy7Kw3sXzYoz5v5GCLksTkKbZuAQiDdSBq58m7NFwEeAUsqsBsx6EOnqvGnLdlz+6EHUdYfEjo9wmjJaEHzGofVpk+/64XrQkaRxTlEY1nRCgX79TCENXMFtMqHfdMJk3HkhOwwyOp79bUlc/MctaO5KC4Qv/KYN7rpuLWGIONVi1u+OItZe1y2t5PnxxFMDRgRzsCBofRCkiIY8z/R7XTEBeITaMNA1vFTLaLz55d4JoSXIkoXno7MzuP2cQ+MMyIOEECeymX2GDAFLEIYMeluwjACllPkdMP+D0CeVSuPrTyzDfe8E1gNHgEU4/0WtoAwrSKNvgWS67hcLgmdCNnnXS5H5BGdHqQLlhfl44cNHYO54drph5D9ffWk/frOmPnqLhu8XwxaMrPAE6EwGJuPWgmS5MBEC6fNo4SsyQNUnwEAzDYQgMFhFOclyBEImIGxLQbokSrCYSKcq+FHHSj13QhI/vyzWSQb26kxCCHM/ts8QIRA9RoeoYrbYsYcApZRFTTw1quV79u7Du/+0GzvlS2F9eWrS9BEmerlgaXbE2WrQTijJkqGm0dc365SmDYwTf6vhC2fMwOeXRIaSiIJ8yL9/aEMjbv2HExjJ6HSo1FJayQuKM4bToIkomHwauAGiJxwSkchR+hrvWIg8nSMPZJcAyFtchl5Wtzbc8cfdCWFub5ApS7OwJIWn3xebIFxECPnHkA++MVyBHIfoGEbKNn1AEXCPNi6PKoRde/x/z72NW5emXBNvHBOxYYUXQQhUp2xJkevlbshxBl4wa1rKEQI90RCXoKaFonxM8/HrF2LJ7JF7/TOLd3D9EztQ22m+CdNDVkBV8eVwETP2m2n0uURD7hTDFlboqYnQ0yxS+ZLFQslX1tz+loWJ2Tjj1xDWSKVXuvZmGZqYVLAgaCEMyp1YmMGr18yPe9TxWkLIw1EywX4/cAhYgjBw2Nqcc0Agbljl2rp6fOihTVhaqxm67krKKAAV/R4x/OX0SnI9YVCTqeWIn0j5uLiFWhA4bJ32ukRJY3FYMrsCjCSM1OfDT+/EP3e2+tXvuwVBJFpRhxxUHqknGrxzoHlFHXSQeevK0FNyxEKvkMGwIOgsWdwpBg1v0BLlIgK89b4ZKC6Ote31CULIL0bquB0N9bYEYTT04ihoA6X0BQDnRTXl5RXrceVfWrS2d71iDnFijGNBEBZM4YpYUNQhDTESGMkZUbAQGG4FzKbREhfx8y8smT4itxp++FYNfvjmQddAELX21S9tg08Nit2DyigNnS+0pwg0e+5DZkHwiKWJeXADKo7g15+a6M0phsCCwKr44mUTMH1C5ClmlvTLhJC7omSC/X7gEIgzTgaudJuzRYCpekrZPbAbosBIJpP43J/ewu+3u5rUX3ir63FHoss8QvwgVB9ozpuLika/YhdXjvoSlHxkDW881qZvj682tUQhEOiPXzeythq+/Vo1/ndFbTAsfH4WJbak8RCDQAk8K2Jg+PEI/BW8ZJHgCYeO2HE8M2rMu8xIJCjeMJZW8EotYh13jD5GYSRGnLNiLuP+12eUYcn8KXGabi9tioPSAKaJmmkDWLTN2iLgIEApvQXAPVF47D9QjSse3I7t7fpzf4E8VJiBkLVx0BucAgUFbIykGBYASRTdJn2l3AAZRXAiCIGM57zKYtx32RycMrM8Cuoh/947scBrRrOwkr5x/xWJmI4wuurXOFw4Ta4unI2+JqIFgYNSX00N1lIDZEJhtBAYTif45ToZRdlhlC0X/jij7thn5F6JUwHPwvatRfl4f7xYCL8ihHx8yAfjGK6AJQhjuPOHS9MppX8CcF1Uff76+irc+HxnkMywQpLkofGynsjBzwgDi+HMGSyCFZ15zz8o30xUPJGpPabg6Qf5dQNhiGtBYHUvL8zDPZfMxRWHcbdPRgE/yN/f+vxePLS+0cFdq5CUtbJUQ7FnVf3FKWBTwCRtmyUFq/SP+IE6PFWGEDkGXdXq+ZgI6b3iwo4dagH0RrF5fPLNN+p/7hSDQwDcx3zcJ5vmU4cS3Hz6vDij6lFCyPvjJLRpBgaBeONzYMq2uQ4TBCilxQDY/cC6H3arGjtQyH46pL93EkJ29rUZlFK2yRxqc8xkMvjE75fioZ2mqEGOhAoUr7lWxkEvEQJvj8KsgHlF1U8WBF5hGQgBf0pBUoWBs6JBwXlxE+68YBY+unhyX7uuX9/fWN+F7y89iL9vZz4m3CMwPl1YJAkoRQ/rCYFShDIwIhS+iaBK9fXLUfmBAT+3XEkz+8VJhEDIP8tbTQUF7QkV/PrinfgHHGFWaJqRSYiz8urpKXznggVxxs6LhJDz4yS0aQYGAUsQBgbXYZcrpZQpeubKzmam99v7u69XqzKSwP+8CWAlIcT1LjPDQSldDGBFFGCNTU0451cbsJtRFP3t877PQVwvd+Pg977QKhqdrTkQlcJte0bxbyhZLo+vh7KXHeYNz0l4bSRA5/vPL5mBm0+ZgqL8ENIV1TH99P3v1tTj+0tr0NDJjq+6mcow+Xre1HMaoqALlCQdH/R7TyFkcuNERafWM6hX9q8IohAtfEVNraQ3+SAI5UomEuHfiBqYiIKHHzds/PZqQk/zs4ONu/MmZvC/l8aKpriKEMLkg32GCIHoMTpEFbPF9g0BSimz4Z0L4Bz3dyybXt9KVd7eBOAtAGvcH7YiSPKpKKWfAfDjqHI3btuNJX/Yn13A+I+wgouxtyrrHVkhyILVFYTmhZF414I6mfQax6Q3zHcxKEwl2xJJHUWHgNYQq+OmleLmU6YO2ZZDW4pibXMaN//hdVQTZsCS+lc6JSAioScEvGIOizQpEAPtAJRK84mLgUn4ClXfX3q6ITQ49LgqMRACfj5oBbo04CKFvptAGV8GHhl5+Zhk1zuuMo0/vzsWQdhNCJkbJRvs9wOHQORYGbiibc79iQCllEnXiwCcBeBMAMf3Z/79lBe7hu9vANiRxqWEkGpKKYuUdkFU/r94djW+9CbzPwjxutYKNnN6ZfDrCINg8pdi7ysSP+ZtjSY3MVmvePVRBDPXUK1Bw7T0cyrsH8fkCMO1R0/AzadOxcIJbLdp4J/uDLC7I4MNLWl0pChqG1tw94v7HMc/j5HJHeQ32yS29IRBsSgNiQUhRuRGBXa1H4WWD5UFwRs3xmO55v5hhG1OCcXf3zsPiUSk5YoFv7jShaULABMA7Lf3k/2fENIz8CN2bJZgCcII7nfXd+AKAJe7P8NrUzkcW0YWXgLw71FdwPwPPv7AW3h0dy+PLUoFCAsqIda8v6b0NKkff0i/wBQJgzqZ9CtNow+Xv0INihf+0mTnvKIwI1OLRRuClF9VST4+cMwEXHlYFY6fVhrVLb36vrYrgz2dNEsOutLiXRrfePh1tBRyVwF73vOcCUfEWE8IRNO+dFmTrtam2zMli4tfDWlF7mfp63OZ6emhMgtffX/GsSBoTylo6hsq+LVEO3DWVXlxPMLmpSovAJ6/eDyqqvrNUZb5R60H8A7/uz/8o3o1yEfRS5YgjMDOpJR6hICRg9kjsAk5Vbmuvh5XPbAZ77RoBK9mbz7yGJdbuknO85fa8AzBOFmMCkwRpbw6N28JeIpGazkIW4mqK06xBs73oZEmXb6xZFY53n/UBLzn8CqUFkSu9EL7c1dzD97c14anNrdg757t+MRVzMClPu3dKXztma2OM1wIcYtUrBqepxAtTfnm03oSLfF4iQ+LOi4D4hbmAxAxDSRLh0JsDc6Kjslf63wijPxI4a8lCu5lTVL22aQhpxecYeWiQoA/npDE8UcOeHRPjzi8AeAVtt1JCGHLDPvERCByjMTMxyYbYARcawFbbbOfMeW4s+6d9bjoiWZ0Zky3Fwni39wTRv3pfiErJplIqJczCGUFk8kwraL0t+z0ZQx677VXv9IMKiUqCqVW8geugA8UjHOs47x5lZhXWYh544swl/tdbHBufPtAB5btb8fqg51YV9uJHU2cBTiTwt1XHY78/HxtP337sTfRmD/e1W+SYlbe0BBGn4LFsxy4fEjKWU9Eg9DXpv6VCJhBT0v8hSvb0J8+YQwvN1DB8sCNwpFLrzgx6gmBA3OcLTVuNHIWoY9PqsMnzz4aJSWDs6XFgbwRwKsA3gawnBDCftvHgIAlCMN8aFBKmR3OIwZHDvPq9nv1mlta8OsX1uKONXmy5bj38Q08eRghwD0B6F1va5ws8nE0rSITl1zOiivCpULhQxzD0J3fjyAwyrFNuZ6yXvTqJ6yU1RVxnFMjTtYO4ThzUgrvPftYLbl6a90W/Hmr64pqKN9sIdITBoW4helZ7Qg2EC3/WGwO5epW3sZZozJKoSQTofUTxSRQpvINfEXwEVF8dGKc8gHB0UUduOMo4Nijj+p3mZFjhmxr4hEALOYCc6a2j0pZLSbDDQFKKbuj9yaXHMwfyPp1dnaiu7sH6XQa6UwGmUwa6TT77S2qGmAAACAASURBVPzk5eW5P4ns7/y8fBQUFKCwsMC4EuyP+qZSKaxasxZ3vNWJV2uZNI7ms6EpVHnrUQVHU8c55x16373XapMGighTIBGCOBEcfaIRQ7F5nMRPKlfTX6l6KTwN6GkK/tQGW6ErgSOkWjgZKl7uqR589+qjkZfnMA+5Gl98eDnSheXmSIWmBiiwOx+EHs93FZz4qr7/shaEbByAkP7lTOlGnLlRJwJmHKBOOwyEQD5OKfAD/9ihhqDKY0bkQeopGZmwxrIgcMdxuenB3E++PqMaSw6dgXlz5/SHuOiPPJ7gyAJzhBzzT7TEHfMQDT4A7tG/2/rbv6Czqwvt7e1ob+9AR0cHOjo70dbGtul6/zBP5MLCQhQVFaJi3DhUVlZifGVFlkj05WHkYPXaddh4sB2fXJYnOQtKkkyjlkLLNq2M+BU4k2thXtoGoqAqGnUv2LzXLWoOcWUeEio4lpOiRlBzAluHl2hSjzpPrzst4vVTAoRpVu56ylPKG3HdRadpKd/bW6vxx3XNXCTFKPVtWik7rYoMdBU1HmRnRQ+sLFHQ7/W71ET8PryaXBfoiUKg+A0V9j82FSTW1yj8TUSBj39g9EHQjiSt78v84m7cPrUO06ZOwYJDD+mzzOiLvJHe3e4ShYcIIZFX0PdjucMuK0sQhlGXUErZkR5GDM7ua7VSqTRaWlvQ2tqGltZWtLS0Zi0ElLIVHbv/wIm4xv/flgI6UkB3mv2m6Mok0JOmKC0ASvOAsgKC0jyKcQX69/n8ysvLMb6yEpUVFVnSkJ8fnzA0NTdj46bN6OlJ4ssrgHXN3PZCCDDaBaRWfnMCWOsMx2vOuBESYzj/ifpf3WLgnLyybTHyoIiVscHSIqwsdTi6x+aIcM+0B5BnOg6Yk1l4cApMe4cBUNDZgrs/cLK2N9OpFL701EbQ/ELl+0DxSvpUSBmUT8J4i6JnI4hnCCHwqIjXbS4zicNTgzSG45fOhHX5FZ+jX92gJ4Q+MTgNhhIDAVaJqMgvugxWzU+Po0qMCc4tb8UNE5tRUFCIQ+bPxdQpsS5x6qt4zOX9+wHcP1aJgiUIuQyVAUpLKWUbsowYfLgvRbBVd01tHQ7W1GQJgfNwAh4EzT0Um1oIdrVS7O1IYFd7BtWdCbQk5fPx3l0D+j3FcQUUFQVAZT7F+CKCSUUUR1QAJ02mKMvnh5VTfnlZGcaPZ9aFyuzxJt0Z6NraOuyvrkZTU3O25neuTeCNWsLdhRAuwHm1rsXRtDLyE2sEom6vP8IEYBDXnCIwbJbI9ZOP+Rlma+QK2bQCjoAz1IKgUyTGLSD3EiGJeHz2jKmYM0UMjuQ18UePvoI9BVP66KzoqW2FCYjDw/h1iKLL8iQDgELIb62zSBz+oN0bcYijocL+8JUGijJutDRLnTJyMRHj0RwwKZiZIoFxPj+7vB03TmjMygm2dTlxQhXKyspQXFyEzs6u7JYnI63MKsnkRl4igUReAolEXnbhwWRLjJgKfRGt7N0xSRQsQejrsOnj+5TSO1xy0Ksr9piPQF19A2pqalDfwCaZ+NR3AW/VAisbCTa2AHVdrvTy9iZdi0KWR2T34D2vZYkgeCb1bHqVAPClzinL4PBxwOIJGZw0CSgVCIOTkpGF0pKS7N9t7e3ZrQ7WFu/5+iqC5U2B1SHOQPXTGBWf84Vxb1+3QlLaq+twg8A16w9Pc0nH+cQXdCsu4YWY5/d5/qNdUXsJ/EupPCA4wuRvqXgWBA9H0xI9JDyDm31eRyPu/sCpSGhWoqkMxRef3qQsm7VIGxSg0WdT0y9Bvrr2uN01pBYE6vgg8I/fDvHzYB4YJ4KeyinZc/2fJSbS2DdaEAJCIFRX209MzgBzCpK4pLIFJ5b0buufbXOWlpagpKQEpSXFKCstQ0XFuIHYthhTRCGO3O2jCrSv6xCglDL33bsAvLs3CCWTSezesxcHqqvdrYNgy+CNWuDVGoL1TQkc7GKCnJ+wokXBUzhBSFrzioc3eTuKRnRak23iXrlHVGZwUhXFWdMIppdkjFscjHi8XQ/8dnsCu9q8iHohe+cG4KKJgqefeQXICUBFrrrEIobzgBDaV66fWzGTnPQ7Snb+Ms1Sz/RsnMV6BSHgo8PQdUZTztObcDFaDlyvPsJ8EORxxwqm+NTicTh03kxtDnc9/iZq8tghHoMClPdgDEQhjpOiTv+ZnGKNAYs4YIWqGPrH3G36b7L9wYia0VnRHae8T4rAd0w4yopf5iEaoiBszUVFHnHKjRx3BKgkaZw5rg1HFPVgemEK5YRZD6K3NHVbpgwvtsXJLJYTqsZj3LhxvRG1pne+C+B7hJC6/sx0uOVlCcIQ9Ail9EMuOZiRa/FdXV3Ys3cf9h+oFl5dUd2Dl+sKsLQxD8090oSMKCRy4obLDzV3Xp5IAmpmSRrHVwHHV9GsqbAznUF9N8n+vFlHcLDbIBzD2iDJryCppNGM6dw3vD3bXhxbjCUA+WJ8kakhZIplQE9kVKTCp3Ooosw2wGEGfihmhQCKpxb05atbUsL4khbos9GIW99zmrZ312zdjd+sD1aUihrSEpbAd0Npr54vqd76cm183wypxX5+kuKNKVWVkNdaghMQArU9aoOyWURMaG0xQptdomFySow1PzRiQfCJkLcwPctUcF2kXwwB8mgGBQmCPGRQQCjyCUUBKAoTGcwsSGNyXjemohPzyvIwIU+47sWvSEFBPqrGj8fEiRMwccKE/rAusLtmvksI+XWucnykpI85lEdKc4Z3Pd1gR8xqwC4oyulhJxB27NyFmppa/z3mN/DQlg4UT5+JIw+bg//+EzvGy28hcMfq9IYDwUXBX6HwKxV/y0G1GIgCLsQ0a2opJ98CSiM5xYUYNMKy1elfOb3QXl1mXv1c03LUOskYZ0CjmISJZ1AMTv3MIW595zXjLNZrRIPvmsirst0tXkalOk26iiTE98A7fmLs30wG371yIQqkwElek259eBVokRj2OWiuhgCaFF1Y/7oZxiVcgeIKi/gYI1CT6eCu1+9yhdjU9ix3HhGQVvLRoZZjWOQ0PMiZTwaCFDk/xB6LGi4iwQnBkRuf81K1uO38Y9DR2YVd9S2oa+1EfV0tZhemccoEoh61BTBp4kRMnjQRkyZN7CtZeMolCq/lJNRHQGJLEAapk1xHxJ+5FynFLpXFJdi9ew927d7jm9oOtKfw2I4eHHHC8Zg4oSL7eYZS/NeDq4VjVU7nmhW3VwlhwRGdXJ6/4s6CoNB5Aa4zMTs1iFO+dqBGKV6DCdo46HkfDK6H9IpDBSpi4ebnGMhZqQFSWAFFEWoUh1g3Q8u4Yow4egqA97nwBbBXdb6COh8EtyDTClPPV3Bkogb/cSW7Y0waD+xWr/X78PRW7yiuREiU/PSaTWmzBgTnoxD8fMKk24oSKxJJwJR2mhiKiKeSr6Eg4/gyjWlTs+Xx5jdTqpcizfQZRlqwhLganq8Tv2DQx90g6RTuPGMSKgxRGe978R30FJbhyOJOLCrsxOxCx8LgDW/296SJEzB92rSsdaEPD9t2+DYhpKUPeQyrVy1BGITuoJSeAuD3AHIKPl5bV4ctW7ejp8cJVbuzjeLJXUmcc8ESRdms2bAdf1zheP/Lj6JoBMXpTMBYPgihSlNTrkEhyIwi8m4AjeIwNjQskJvktWYc/LwFJbTNagOFPMP1jUYfSYrGdBdDL028Rqc9RTO7itgrR6uIw1aingIJIusI40vausjvbsP3rjtJVM8udixg1xee3gya3f7wCIRUIRMD0POVoEf1fCKaKPB7/AKvCOqVzdo4/r126GaqeQArpwS8+vvtkGiOCRfTfDLU17dk8eV5Ts2u86qBEmgWLGZ4ZX5mPJ3j19MZXxexyJzH6q+kqW1pxx3LW7NswBl2GVTmpXFqcRvOLWvD+Ly00AllpaWYO3c2pkzu9b13ywD8FyHk+UFQLQNehCUIAwwxpfQcAP/KpRjmZ7Bx8xb/uF9jN8FPNwOv1+XjplPGY8GhzhXpvJ54/tVVeGG3N3M4QZqdwMppR2lrwf1eF9rXe98pUdyjjpCAcQeXJN/MJCdS4GoUh8YiEpSnMaFHEixDgvAIs9LhA0M9tXcxhCiMOBoobItGBt5dkYrOid4eh2oBCvrX/cvQ4ZH9Swi+cu4sTKl0txKkfP7noaVoLXJuedQrXqOm15IOVS2bKi6Ojzg+APK8DJv3gq+HLqFMBA2EgGNO3BZEjC0/43xyiYYMi1+++IU4DswTTuUrsmDyvWODvuZx0ZggSKobPzp3BgoLCrRQf+Vv69BcOlkdB65rR2WyFRdUtOPMcd1Z3wbvKSkuxpw5s7JWhV4+/00I+VYv3x02r8WV4cOmwiOpIpTSdwH4ey513rt3H7bt2Okf+fv9doLH9uahixFdAnzl8oUYV1GubAf+4S9vYF2z/uITcyeLE1TxKZD3oKWGCBZO7Q5CfEKhraNGjwpVMAg4NS83oWQyDU0X8CF/pW9ML3vZGwWvW3t/L1lVVbxkVC3IXDu4VyMFtJc2XI8rzm1++VpLRlCBSBz9RSNff3HAlHYcxLduOMs/8sgjs/NgE+5ZWsPpQTMhcBJxDY0ibkYcNbPWz1YC0q9O0PHZjyLGQRzcxPEu2dp8hS12sFAdZcKE9JtpPpl8IvwFhVNinPnh46ITikoGbntNAowQXDapG1ccO0/Jjb2yo64Z31vbETjfShOqoSuD6o5sABiUEIorJnTg2qo2TMx3rAoseWFhEQ6ZPy8b7bEXz9OuNWFtL94dFq+YoB8WlRvJlaCUfgrAT+K2obunBxs2bkJTU1N2qq2op7h3UwEOdnM5UIo7b1isjS3/4z+8gIOErbI8L2B5j9jspWj2WuclRvB+tLOeIKYjIdDI1yADt9jQ8/ueZcMkyKQaiO2V9pS1eiFimsRWvF6zDApO/jiyPfzWkFmh8d8IRcgMxGuH0iG8aUkeB5wXpQGm0L1nz+mOZvDNi+ZgXLnokOgpni88ugbJ/JLAgqBTfCYFJ+rP+D0sEWS/HX45UoHuv8b2ho1DrcIUARXK16lkv/wIZmK0xEhEQ+5Pn5BI9fLrHt4Bqv730nsZ8BYEjY+LBGx+TxvufdcCLTlgW1Ofe3YzUqVVvt82n7A9mcEuFjqW99EiyJ6MeNf4TtwwsRXTCxhRcMY7Oy552GELwLYgcnwYs2VbDr/K8b1hkdwShAHoBjf40dfiZn3wYA02b9mKVDqNjjRwz4Y8vFKnLNtAUj2489+YO4P6fPM3/0RHISMIgZksm0pYQXEmUy7wUXZ/TvpfJ3/4JZHqsxBmgg5HQrNw0Ie4j5R7ToLoS454Ra1ZYhrlXEQFjIGL3PYrREKjYDyNKPeb97lRvYV4lxr4iP5UAndM0OQDIVtMZAWhalLHxyXCInVSWSs+ePFJOtWPn/99OTZ2V0T0rx5P7fjKBUeBMLlbe/LOizRhsq9ESNfg6whm4eJp5m0GIpHrFqBhImp9HzwfBHFoS6ia6hWaLLA3maabS5yvntSFCxeJ99h5Jb68cTf+VF0k+kC4X/ZkKLY392SXUqIPd1DfBKE4v6ITN05oxdwiRiScZ+aMGdmQ0KbrykMk3d2EkNvj6oThks4ShH7uiVzJwdZt27F3375s/JOVDcD3NuajyY1jIDsPJHo68Z2PnK7UmHXi137zCroLmQANnridK8m/SERyzjciRz8/xQdCbotGAYTtsesUVyyTs1hObALjlacINim/MMHnKtJoi0mI/jF0UGAwMFRAOK5m8j3gnRMVxiP2dITec0xhToew9iZ6WvG9a07QRlY82NCCu149qBHo5gEQPa6dFOb+5drn3YUg8DDpzQg4xNHseunreJ1sgvBgkkz6qiCIsCjJytzUcCMh0Q+s4FMNHkL3cANCE5lTJpBB/0nHSQEUdjbhx5cdYZR3n35uGzJFQXBaLy92ant7a0/2jhml5zV4MCgurWzHf0xqQWU+u8sGWX+HhQsXYMrkSZGyUkrA7nT4z1xfGsr0cWX9UNZxxJSdCzlgxxfXrnsHDQ2N6MkwJ8QE/lGdBxqyCi3sacE3PhLc48R33ld/+ypSBWxCqFsJ4gTmLQyeonAgFq/vdW/fo+ItfHz+SqAXQ0/FGWTaNF71RN+lkPHgvKB4XZvqFbGiVU9JmjS7KHmN7eW+CFRTiIKT62dS/DludguKU1F4HAHQOa1qjs0q40vnTJYdYGGRN1m/JfDFs6Zg+sTx2sX35x9agVRReYiFSOofk8LOFUcJMN9CpZy6EzOOs9UgvGF6gdsKEtIbrp8WqqunQGZipKjckMvK3ABS3p6nCqtKGIyXZ2nKNcf5ILjt2DIcOjlYEPEl/d+r67AsxZQ3Px4cZ+3drUm0JyUrq2lCcJmOy6O4aVIz3l3Z5hJYihnTp2PhgkNzvQeC3RB53UhRanFk90hpy5DWk1J6C4B74lSC+RusXrMue/XygU7gv9bk40CnKGZ1+UwmLbjtA3qC8JXfLUUmn91twK/wWC4hpmfdiiI6eZTl1K965OBy56/gDGco36hQpfSSiA72WOJYGgyEQWmHUcHIgHpQiIrLvCfPhdLNxelLHiwm4IVAOxqgFSLmMQRdO9hWThBKWTvu+f7VJZB8INi/FW0H8I0b2cEf9XlrRz0eXNPA+eDoCYECRyhjc3AQFbU3bTQKn3O5MK1AI8e9N0xMPiamcWggBPKEi+MjlK2jdmAHJjbl68g4ISohkLb4xa5RCxAiuwULENE3oaCjCT+67AitpYlZCG7+527Q/CKhfayoms406jpT5sArponOfX5oYRKfm9qEo0oc5zB2/8OxRx+F0tx8E54nhFwcR1cMdZq4Y3mo6zmsy6eUfhDAA3Eq2d7egZWrV2evMmbxX766qhAtwRZXNgtTp8wrbscnrj5D+/2XH1gGmqc/6iNSD9XCMGBxEOIAwrdXkvfquWi9ovJWGrzzul5hScfWouonKzCdIg4jKHJ7hGOiYV7uzotOzP+wvWw3nWnEmIiMXy+lgk4L3fcCIhMuJszH9QKG4Pu48BYuXxEGIZ5Jshs/uoZdbqrqEnaB021PbdHgEk4U/NpHEAVzKGeJKHhV8300VMUYR7AG9QrpKN8Ur5ELhsujxH4zD6BIXFwCoxBayXKgyix9e5R8DMPPa6lKpJ0XPjqf4OT507Wy8uFVu/FiE+974BCetp409mSdErknBiEIJoTnQ+PMjysq2nDrtMbslgN7Dj9sIWbOcOoU8/kXIeS8mGmHLFmccTxklRsJBVNKWSf/FYBzNWHIw64uXbFqVZYcrG0m+NqafHQGFxg6b3oEntfjbp5LZhfiqrPYHU/q8+U/rBSCybAUcTs3UlBIxcXOlxcAcXzoJIXMWwjD9+S9aRwopDDFqidMZsDkapm6WC/QuNSe4vU/kiSkEgfBS6iXpCb5ptTPLzecEDh3MWRcy4CeSPKxn82WELEGaj3DFchnT5+OeVOci3XklF/685voLnFiIggw6jol5m2XwvjPNttQvxBCEKc68rlHkwI0lx/Rf0LAM7MgCrdgiadEhVzk2yTdL3MOdObDK0bm9H1S3F7X3VVR3NWEH17q+B7IvZTOUNz84n5ACtvdncpgR2vScd+O4UMiH5PVW1qAeUVJfH1GLWZnTzsA06ZNxZGHH2YGXv3mKULIVbm8MNhp48r6wa7XiCiPUjoHwDMAjo6qMIuG+Pbylejq7sYrNXn4/qY8ZLfCGEFQFyDa7P7t7Pk4elal9rvbH1xlrIK5k0UNnnMchKhG+wLEkJAr3rg3qXNy4k0FcXyNvOKjLAJyNSVTr6pI9O0yE66gwdk0xo5xvnDvTopOp9Q7fGfJuMKU9E8AV7iYMEa883H314Sij4xgQQiISUFHA753g+OMK5f81taDeHC9HMk2nBia+4OrIH/6RfxYIQyCftPVMuo0i6BYQ7xmNVsNAh5DZUHwKiExjaBuhvEi42LgO7yCFnMieO+Ublx0zDzt1Pnd0s1Y2sWIZeA8w0jD9pYepLJL/ShB636vVN88vooJxWemNuLicU448AlVVVh07NG5+CX8gBDy+ZiidNCTWYLQB8gppU8CuDIqC3Y18/KVq9DR0Yln9ydwz1a2FaAxEegUKpfskxctxNzJZUJxrAM7e9K44xEWi0OccXE7N67i4+WmLxdNC81YFgynvkocBt607uYfpaJyck70EZQ1otSTnFwI7WNFrmjy1fpASIJHOlYYKXD58+xhFeQ6WLiOWhbQLiMIVoR8Am/znYuzYTKtmOSwn52+N319Q4E7zpuGqkrxVA5rIrtz5NantjjsyahgxImklmb4JKp+/WVBMJnuDb4H/rwzEIJA7/HzKWRAmAiM5BOhoDRgFgRvAonjTXSaBhLdbfjppWrcA9bSZE8Sn325GjS/UOABO1uS6Ey5ZlplvEQMVJOPiGYv84Lydtw2tQFFhGZjJhy36JhcjkLeTAiJHTMnSt/05/dxdUh/ljkq8qKU/gjAZ6Mak0qlsuSA+R68XJvA3Rvy/X0rLQ0O2WK47YojMKVCjJbIOrCxvQd3PbneWBVR0QyiD4KsXwyjTfnYE5T8XmfoHQti0yNvadQRMX4laFA8RtMsx5xES4ieKESaeI2nNvQV4/R/uM+CT2RMDeSAyeIdIR5Mis7HIyhHvYvBM+XLTrUO6zm+oB4fvUx/pPeuv67GgTQLWKPBVzMLzM0Q39eOQ92pDeG4od77NY5gjTxtY1qhm447RvWvzH9NBMtEFLz0Gt8Yp+jwcaXiK3eW3wB+NvqJPnHUOBw3zdl6kp+f/GMV1uczH4BAvu1vT6G5O22+hVKYOLrqR40v93u3n+YXJXH39JpsJEbmvLj4uEUoKmL+ELGejw/HYEpxxnGs1o2lRJTSTwO4L06bV61ei4bGRrzdkMAd7xQi4wUyMhgQxABE3h6dMxBvv/IoVJUV+sV6nXewuQs/fIZdTS4pSvavbFnT/O/LIZPA0OUbo/H666BFZx8hkFPIaBQEkIHZRw9mp4HGPVNDHAatYFP2MjX5Gl4MvYTGFY3CSt+AdZT+Vvd0OQIg5OkJZh4ffoBypxXCnOYMHRDIYXMC4RpjAOXdjfj2tWJQMO/tZ5ZtxrMHXAuCDhtRz3Ap9AM8sn4+YZPqH64P1ZpFrdBNHeoSZWPAIs6SEzoHRH0m4aKzwLsvGJ1lDfPJ1M2ChcSzSMkBtHjCGHRkoqsN911yqBKK2+uCTz+/G5kCVxkToKErjYMdJqdETT/6lERP+BywjAC6XxNMzk/hBzNqMLMgicLCQpyw+DiUlkS6p3l98SFCCLvUb9g80TJ12FR1eFQkl8uXtm3fgZ27dmNtUwJfXVeIJAspwEc6jCNgODn931cfg/LifMnwQLCnvgM/eVYlCB5icTs5Zx8Er/58QbKBItZWg26P2t1K9CzacfJxBVDkylfRkyEd4cmxWOUHYkQQKBqTpNgnnODh5ZNSrSgFFzFHfHkr5WNqvtHE6gHonAox4s010vmTb6cXecgUGhz47mXzUVTonMzh8WIk+3NPbgZInhIqV8sXjBNAbLiSzLCFEhDq8Mu+IucdH8E0ZsWzeXoZy/0T6FMTExRpoaHfBSc93bj3ANAMI3kGyJ0nYKICLod+9V9fUtiAD515jFh/979nNuzH09Vs38TJsC2ZwZ5W546FnJwSjQJTAZbDVzVtVuRl8N3pB7GgqCdrQTj5xMW5WBLeRwh5bHhou/iO7sOlvkNeD0rpPwBcEFURdlXz2nXrsaUV+OLqInQxcqCbkBqLvzhvggR3vP9YlBYwocg/BFuqW/GrF7cafBA0zjlKDuJ4jzr+YBZ8fAN1sdT1znN+fkaB5Q7UiD1aWZEEzYxQBF5CJfCNVtxpZo2Tf3SIZ006sStdgSalMw02414yf45f7H9Bwfj5cgJQCfHMDVC2789FwNN5mRv1XDabcJUpbw2dNq4ZHzhffw307X9+C50lE/TISMUE/5oHmIOL4XsPHnn8hSfX1E1UNKp+NOAjlM8TBL0CDEfZeV9Mo1eAwbwUx0ekz4OpGVqFbWLEXpwNCpLswk8unqe1HjCQ/9/zuwHXesD8DXa1JUFDnRKNA4QThFpmpCUwwTQKCCPzRfjmtFqcUNKBkpISnHTCYhS6ZDdCd+wGcCkhxLxnHKV8+vH7yLHUj2WN+KwopV8G8J2ohrS1t2PZ2yvQ1JPBp98uRl2SUzSy5dYfyMEXpk75znWLkJ/wPKWCVK+/swtPrmnQV0vwaejFXQwGfhFn4KhpJAnh/mvek5epkMxspBWcOL0NAprHOUQgc5YDLyNVoKsCOtQJUK5flFOaSWHxFYoKHR22FRIhsNV+4TosyhKbrWNQgHgXA7+Xo/FBcN8r7GrC96/nthm4DthU24GfvbEfVUV5OHZKCU6apjHjEqCtJ4P19V3Y0tCNGt/krNfsokLUDHxfT0oDVzOMwueH822oL4pu9AYVFJmrou/izE5d+foJqeCisSy5LVInrG6c6OF3I22qxyyPQh1uPn+RTGez/z+1egf+1uj0fXeKYldrEmkvOEEE4Yv2YYkQUCYLG9dP3552EKeWdqKsrDRLEmLe4fCcSxLkQ/BRqqffv483kvq92JGXIaWUSaqXAOjvVHablE6n8eayt9HR2YlbVxVhUyvbK+VNsWzGhD+mTvnu9cdpVeCTL6/B6/ucUKKOByQ/XTUmCsH2Jp0i0IRqls8FC/POlH0ck7xOYfqX+ogGkTgDNefQz7KgMvGFaGZgEPi5EqKgIG1VNNkJI8n/3qAAte3gcnA7Voxg54Xclr1nuVWoqXN8+RrVe5LCdJMTmsE9Vx0uKMOqQgL2M74ggc6uHhw5MXQ6CvDsa0tiQ103tjZ14/mdbVh2oMPtN1PHi9RQ8NUJmcJqbl6DVP0ZyhSE/tQodI0CDEVaqUa4AlScfQ3jh9OHoU6yASHyGiZGSAwUCpYevwAAIABJREFUtrMIyuZLKe46uQKVFc7pLbkKNz+3HanCMvRkMllywIJpmY8z6uejbBGRA68FzCQicJmG8RUSintnHMhuN7DTDYuPPw55edJxJf1YupcQ8pkoXTHQ30fN3IEuf8TkTyn9C4DLoyq8cfMW7Nu3H/duzsffD+YryQXA2T/BFqyv4LXOfTSD796wWKt2n3hpFd7YbyYe5k7mJ4zmeuioFa62dSpjiDa9G/a65PkcY4tBJ0SCaooZauUdL19MCtkIqPNCZFwAL6BNxB5/5GmMcPlu3IMVBLqeYQR6S2OBkJe+cRRENo3ffzoLAj/+XAFKgJtOmIQT5lZhZkkCs0oTmF4cS7hGTdPs9y/sasMTW5rxxBYnrkKgb6WOF3mC2r+a8RAuWJ1vc7UgBFsDkqaXOiBOqGV9+foBFWRvmhAOQOZIlOIMNG5haubDnEwDvnJh4HvA47pidw3u35YGu3eJHWdMZskB95gGumnAmgSCqaNiWBBYbSry0rhv+gHMLExh8qRJ2TgJMZ9PEUJ+FjPtgCSzBCEGrJTSzwH4YVTSxsYmrFi1Gv+sycMPNgenDXz5kiUE7No6ydQvZazrFLaauvsDJ2ir8PhLa7D0gBtxyb+2WdpSDTEk+IJRCmwmGRoinXjlykUOLt6ywuqdjfXuOifGwEQUOxqfB12FokzysoAx7smrgkhtLydww0zyBu9orbwKw8Ws+T0JztmWwkzoXiH8XQsa4hdF2ATLmW7oSoTNq7/7+7AJRXjvvEJ89OTZKM+PHE1R09P4/caGbjy5pQUPrm9CEzsW509Y8Y/BtyBIocF5fHyfDrUfQ/mr2ySXooTuqQ+eBYHH2dvbc+bzd86YgqqihJZTfO5vG9BeVIVdrT3oZiyhN4TARIB1W6sRhN7I+AjBlLwUfjpzP6ry0tkLnubMnhVnvPa4Ww0vxEk8EGkGbtYNRG2HIE9K6VQAy9lV4GHFs62F15e+hV3NPfjkimJ0s2sZ2eMrbF6BCbNUyVZLEDJp3H3DiWpaAjz24mosPSBvMch77d7E8zSw+Jv4mpkzach7CZxC8M/79/cWg08UJCKV05YFr3gMThQhPmmK97N+YaUenPYvQzKMFFfAGFeOgpd/2ApTzN9MJDQrvriER5fOUHEzLwmAc3wzDOdI/ekQpP/sSZPx+dOmDOqM39zQjZ+sqMOTW1sNADv18+MXhDRHL1jFgaT2m9RfElFRLHFK+YHaDwXOLVhfvvqmc0pFYriSYtW2V/pQ3RHR5MsVz650vu9yfWj51p40Pv9qTdYhsSuVg+VAIQTqNBZP25icFUMEkmGesNDM903fj5IExcknnoCKCn1MB6kHVgI4kxDi7IcN8mMJQgTgcR0TN2zcjP0HDuDW1UXYyPwONI9ZMQSJ/UttssSCeY07CptkenD3DScJuXr5PfLiarxVrZnYMQdT1MJTzsY8aETFLKxAZCLBZRqnfGHFY7BRahVl2Jak3DCtwI0T38DJKLZXv1+uLEG5ceBkGL2nqxN4vGIR5HpUhtJdDCZnkyiiI2mC8PHietW7/GHx1BJ8/tQpOGc2u7p8aJ5HNzfjJyvqsb2ZeRcHcTuiQ19740DqABOxCjNR+xaCYByo5avIxlLUEhFVppPcv8qwEUuJnL8+IQm7e0FewADXz0zhvMP1K+1vP78Or3VWooNFSfTrp5lPUfNDlKhyB7rfmhiV97VhhKuMCGeVteNrU2pQVFiI0049Oa7T4tcJIXcMxWywBCEEdUopi/W6AsChYZ3T1taOpW8tw9+r83HfNnlrwR2hriUhSwD8CRpx7I9Xoukk7r7x5EC1cD338AursazasyBIisU7p+4XKwcq4gRgVjBwTmn89a4aBR938MRJl00jm6zDFxg6ChYeCCme3A7ylY496sWxundgTMcpBD0mYoMV+WLQ74KA1plM+TgMcSwIvNzjTdlGRRdOZIK9c73vgTcfPrHYsRqU5Pefn0FvhSq7FpiRhP9b2yiZrjnCaDgWyw8zsXy3AzkchXGgUSgu8/QVlXBKRik/oNGh7Tbpu7D+FSsSKFJufGh9EKSKOPNcrp1aIXa08efvOkTbjNbOTtzwbDVaM/yxW15YShNdGv/RWxHcBNAaINV+FHmGiTA4qW6dVIdLy1sxceKEbLTFGA+zHjArArMmDOoTR3YPaoWGU2FxfQ9WrV6D7Qcb8LHlpWjPBu/yJLkkHgwC3jBdnI9dYpFIdeOuG0/RbnP9+YU1WH6Q3zLgBYXZxK4Issj6OQmCQcO/IEVEU53ejV1rVnBBDcUIk+Zh6wugOBYLWY5EWRAi8BHvlDCbII2nLWRCFNUf/pZGCHNQTMEh40H2GfAVlgSU+7m5HRLRie55/OLS2bhigXr3wlDLgx8vr8OP3q7PVsO97NLZKQl5lPkRakHQOMX48BkIo1++mWaKCkutrDNPTF757jyX6y3UK8hTmL86XBT9z30gDMeA8SzOb8Anzla3F1iV7v3XejxaL95J43RQyDxwEkgC2SB5TeLFZAI2fs7HIwnKKkxQ/GL6Pswq6MGRRxyGmTNmxBnmfyKEfCBOwv5MYwmCAU1KKTMFMOtBqMtpS0sr3np7Ob69sQCv1ztR30yPAnb2A9HC4Eem43wXWKpEugd3f1AMPeuV8/CLa7Cs2nxk1qjQ5XPqsk07ZHTEGTjiFoMcUlUjYAzz1fs4vB0GgdUbouAVpMgTWYMbBG+ECVffDk1ehnooMAkSOnpPJfZxUN6Z1iT4Q50+A4GvErz/n73vgLKjONb+ZnPQSquIIpKQkITISUSRc87R+GED9sPP2TjhgDG/A8nYzwEnnE3GZGzAGJERQgiEMkI5b453794w/+k7qVN1912tYOXnOUc2e6enQ3V11ddV1dXJxPzq1IkDEhxEQ/7x/Cbc8WZDcnzYYV5E1gn5RlIkybTZAF6osGUFRwAFcm1S+tGk+HSZMgWgEMyjUDXRAbUZPV0Y3b+7fy12GSreXBt9f+J9S9FbWm24Y+HDBAqm9Zf0a1J5L+4ctxFVZSU48vDDXF0Nl3qed29/AgBbXS5y3lbHv+V73/evBWA9YsKucJ67oQNfXEjl204EoRjsIwXWcFTUTUpJlgGExMXAK80H5yzEXCoGQVaQyt+WoCu7vnEHREpJXvCZTQ5aRuXlQFGXOREmcXkHQsuvcCSiILLHmASjIBcdZ8GwjpeKeTC4GOjFHo6DJeGKFYKGcSQXkFIfsYMzAaKBajmQWfWONxvxkwWBJcH2WI+5hoyi0k+/44zXusVyoPAWqSfDlqkOkP3TV0jyvVRcPe4sLeAwiHVIqhG3nL63QOaojacWb8TNy+Q7FvoREOjWD2VpkV2iWuROC9DzBrfj2qGNBQsCsyQ4PB94wOJ/AAIxK77vzwMgRgVKZZubWwo3NX51URUWt7MUyBGj0lOtIG2bAo5iF7Jp3CJZEKK6HmKnGFgMAvFYFUPY7+LvYqAzMwqnN+yaU680tQKm/1wmWvnI01AQAG75DdzyIPCprOjxWE3aCoBRCKYNcnQ+J284dsojHZK/OMCQQKOdx3IgL6fAktCYuPkM0lN8pUeacRmTaTz28Qe9Eer9sCwIMWKRADK/a9HJIm2KZxXZf3vWKIwbFOSQkUXHWXe/jbbKei4lOddQ3J1+BAzacRAT7+TiEGOWbh21CftWpXDYIQdj0CCnwNzveJ53owOY6Jci/wEIGjL6vn8RgPtsFJ7/1tt4YW07vr64OmBYyxPwj+4+ZxFJ6ybFy2Vwy+XSKYawPZYH4VV2zFFyEbhObiKoLMFmYXtF1xvTRd4xBH8XnUhJV43LMUijQiV8wdp6uYrE9W6AaElBkn6Sb1sLYGKFQZh2DRYERcEI85Lkn0jalQgtCEApA6ekyAScpZn/H50wDhfvUW9bMgPu/X8/uwn/WCMdg5R6+WFaEIQ5VvRkwrfiteS8Zk/Wgcp/esXbJwtCDHd4wVmCkt4U7jxlcsIxXCdY2uzTH1uncS30IyD4AC0ITF6PLsvgrjHrMWLIIMw6WD3GrlkA6wEc6Hke83nt8MdV1u/wjgykBnzffwzAmaY+dXV149XX5+Kz71RjVZd8gRL/JedikC0MFBDVNOzls7glzIMgf/bIiwvxCpVJUfAhcqcU4tiH4NRC7COOTjHEkka/w3VhHJcyotLiFa+qsGmF6XSpX0JVBShoBCQbthS0qI5HEkzU5UmSgrTu4PkMtDomlBCdS/R4UE3wIT0v4XjC632Ngp/rlwowo18S+vAxCGftPhR3nuKUKGYgiYVCX1a0pHHpk+vR1J0zEZKjNO37IjNlxmQT+Sumc8yXhMKWqUbJGTJIMaygCFdIoQmKscLfk9fcD5J42S2zFV89eX9tMPaPX34fD28ppROE9GEHL5KKFAzh8iky1bIyPRKBwj8vG9yCK+ubMXOPGRg3dowLz3/d87wfuhTc3jKuMnx729lpvvd9fzaAF20dXr7iPdz79mZ8fwURe8Bv6MX1ZqxanBD2V5QHIYNbLjtAuwYfe3EhXtqkVus6uYKAtw1ckAP8CqAsGEW6BPj2uepdxqIqKp2kJPIaRIBAM3730wkS0LDla5AFCDfIWOAqOxoO52gFkMFlIQEVJYo9FLDieCmLF5PT+suyVKonA6urKMXDF0wq6g4FB5b8QIvcvbQV17+8VcspcSIlXY/6GMMRAVWXa8z1fMMJIGNQqSp9Cl8KgIUbGKVPCcUo8gsvLxIkfsdRo1Bbrh4TyeV9nHj/cuTKOXnbF0BgsrDJQsYRQClT7dSv5KtSD/jN6HWYWleCIw47BCXxhXwkW7Orew/wPM9syuqHVeEid/uhmZ2nCt/3fwXgE6Ye5/N5zHnxZXxmQSVWdrqe2Y5MwtzCiAWG2JpuUliq5VsvZXcxqM8TLy/ECxv6EoMgtyspfIsCcGUeulzSnvYYoyRolHoUQRSMh2zPVp98isM1D4IkSNzGS+qXeACUnBHPcbskchIHbu1ftHPUARhTzAylSDjbxTeP2AXXHjBy5xEIRE+/8PxmPLyy3ZzIij/NQgCGODEaBSj4DIYRHaMJJNandp3o2M0G8ATAqK1ATLBIMZYMfIlTPjWpFvz4DP2hsWcWrcH3lnFAR0uv6EepI/GfGgHQ7y4FYl3rJBPXzZmVPbhj1EbMnDEN48cbk/ZGDXzB87wf7+iF5Crjd3Q/BkT9vu9PBfAOgBpThzZt3oLH5y3DZxdqzuLKH/J4IFI4FqprX+fzuO2y/ZRusbLzVmzGfW9tC23iSarkYCcY3tEQMygPJIIFk6yfaEfILzTZMqC51ElQrA6+dmkUcfuGxDNOjGpLdSwEY2oyFSqAI6JP2DoBSBJqWQpE8o2QY8opU21/OOIp47W3H4wkLCfvkLifg2JmfvCiTJ+FaEr6iVwgR4yvxf3nThoQa317O7G+I4NzHl2LphR3d0PEX5Rvpq8WhIj9bAqd159aQ1LCx9r1JPVbBRqSiV3mF5mokmKmYzOCik6s68CFs8LbO4W6PHzswbewyhsmthCzuwYQSLE6gvgzAQap3TiTpo5hyHkmFril3euGbcUZQ9OYfcRhLlaERWEsAruvYYc9TnJ3h7U+wCr2fZ+ls7zB1q033nwL33mzB881avIeqPo0rk5dcLqWCAXs53CbZEGI6luxtRO/fv59sttJu7wCETtK7uCJWvWMI9avvZVSUx/JhNYYAH3nqHWYlOYVPydJZf2qyB1CsXLdED/RK2w3PuBcrRagQFoaZMQRKRCBI6XMmvxYoo7qh5HUIhCcn5PkQ8Zfvz5tIk6fMvCSIdnWO/X+hle34Y+LW7QcXVhPJqDAB+fy+kSn2HjFz2s6on43/ne/TdIFKGiDHiW+MaYi9/O444jhqK2WXbZB68fcvxJ+KTvZ4GTCCihmWTeqqTEcqXaB2ubTJNg0AEbTwV3KsvjjmDUFK8IENyvCpzzPu7Ov/Ovy3X8AAkcl3/efZ7xoIlw6ncY/X3gVl745CGnGq5pYA+p77XrWAAopWDyu7taL94llDj9x65u68ZNnVYDgOrmkfC8KHKiFlXEQisalfWEsZD0iQNFmTrP6YFXAQAbrFXtqhMMXWtIqeRDMBEto4jbTQmyBrgORSdk4ceEdIToFp9QZ9Iv9776jqvHUxfrUuS6CaiCWmbclhQsfX5c4tUj9og9uS/iemD9pYdB8GCEIgD6doHQzIakNaESaVO6mSZ9qFKDaTGIyHNG9Gd8/U3ahBg388oUluKeRM+rGy6JIgaJV/FTq5z4Cghjg6QCDgpgkvOPhK8O24PShaRw1+wgXln/D87xDXAr2tYybZOlr7TvRd77vM9vnaluX12/YgFvnrMYv11TFS8D4jQQACgs4emz8XSiXVHDT+XuhurxUAb7bOtK45UnmoIsqFBugJ1lUqGoehPCyqHhlW8pbd6w0pQp9lOmhWU9GWtsUsKzQCfqr8xMUjG/xs6wal0yF2vFKg1PzIOg7rApe88BEYGGKsg/Zj/IgKPSmCXPj7DG4Zr8RtuW1072/4u8b8NKGLnnmglNB/WxBYOybQC462EbAFQZXAwk4bK4GGTCYgILk4xfukuDY5fr9B2PSMD4PQPDS932ceffb6GC5DyhTGTVgZRlwHbW4YMQJtQiWPrsaeDkdzOe4sl7cNXot9t5zJsaOGe2yHo72PM8aVO9Ska7MfwBCSBXf968E8HsbIVlipMufT2NVSn9HucmiQJuCVXaMf+EAxrfO2gP1Napboz2VxXcfXfLB50HQ4xHBxa2zCMo0tgo03tdOLmzZNaMzMQYtq0wvCQCpgBvA2p7gyJAiQuIbw2kLjmCCwCWZNxmffofJtU9e5sSnyg5MHTQQEiXzyOoy/POyKRhZEyS/+Xd67lvehq++GJ5oIBWlnoMSeUBwmLAwDC4BXs9ocYnaMaFF0oIgadjoI+JnvUmfi0lShhlYEBo7uvG3c1j4l6QwAbBrnc+Qcx/E7Ws6ogQdaqsNf7QgGyPA03Cx0C/iPS+BtADGx7eGb8bZ4ypw4AFqzJmm1ts8z/vyjlpT/wEICUC4B8AlJkJns1k8+PRL+OjbAdItEK8YF4NOMxbhYvjyqdMwekhgueCfdDaHbzy42Kgegpc8R+6IGASxC0W7GCRBJ2tyLZDQuiR141QBgxEosIRWYT4AysIqCrSgI8YFJeEQcsLiPAiKBFGnkTx2SnOyPZFPeMuxxXIQ7ejoUQcK4Jr9RuLG2U67oR0l53ZYvV2ZPE56cA02drKroTkgpmtxe4MUqeBSqS1rTEqo+BReJT5MynEKlbG7S2pwrm86vtvclUFdxxbcfXlkKRdb+/WbG/CXtSy1MhF7YIjZ4KKvJcGkE8R9dDXEie+EgYZ/9A3AsHsafrXLWhx15BGoqqq08e5yz/Nm2Ar19f1/AEJIOd/3mZ3QeHphy5atuPHZFbhrXRBIExBPF5UYMYajwtTxlkahf/aE3TFxuBjEE03gl+57V+EBAcBEb+V1xu84CH1ELCcrz1mZi1eYksDRt2nuoN1CE3xPZm4kOiyKLK0Jg+MH2nLB4x9xelXkUGiT2GHYEx7xLRky48kdimIQZCAp+Dq4HaGW49QYjscumIyDxhiXlpWXBnKB617cggdXtMddTICsOU+EeDeLQcEUgIWbBUFkYT0iFfpnIKyyTpTbToOPBeAu1McBihg+Bwvdh49NnVl09uZw3dQsztx/d5V+AE66ZzF6KsLTYvF6sC1U6b2KhKSO69eLyt6WvB9OLhBS2AtBIjeP2IAL9xyDyZMmurD+WZ7nPe5SsNgyVhlebIU7Y3nf908E8Iyt74sWL8WV/2rFwvbEVBoT0NGSIBCc0HdCGa7eTxwzGdNH12kX0pfueYeUIK6TXPRdDDotTllELMTV9lGiT3EAQFVUpEVCoCgX1W89RcF30KQ4wwa4QbqNlxBIpPyzzXQIkEKFQ5o7IrlO4TFBI2hcIRw9WRKYJZ+YiboK13whtlU48N7/aUkrvv0KczOIClnVS+p8ivLAJhDYCnXga2reXPqn2aknfZQqtuUJ0Shm9lMeHjZ09CKVzaMkl8FzF09DCWfOjz5b29iGK+Y0WxM12S0FsiDRCS5DAhWTq4GyIOgsG8q80P06saYd3x7fXrjp0eH5red51ziUK7qITaIUXeHO+IHv+7cCuM7W9xdefQOnvVCCDJt8PsGc8KHOohACVp0+0SlUoiNnzqjDMfsGecrlibvu7rfgl7L4BFlR0TteHjfHldqLm83oNoBsAhCGBaT1tWvoaWZojYLkx0u07xJ0WJgTUjCLEyroV57wkuJW61MbsI9XZBYSmERMpYtBiDvCIyZdDIIq8GYOr8I/L51iW1o79fu3t/XgHOYnl3Gg5FJQ1JLTjlPy4ZvWZwTsdIBXarxQ1NY/2YQVTS91Z4gGEPDCir3O5lEAB+lcwGhT8i343UUHqLQDcP0Tb+PltOa+Die62QSRwdJHAWgLvfoURCnMSzKB1cjjgTErceQhB2HIEOvRYIZOp3ue19bfC+k/ACGIlP0HgJNNxGXRtN++7yXc/H5iKg2IRwMC+bXWJ69plJqUGVUduObsI7QK+it3z0OuVOOvkgW+fFlUdFtkfDcD94FB4bkwjksZAezI7UkV6PMqqDsqMjpbEpxC6led4DW2r+cW4ROCfgJAENoVP4jHQc5DCHiskC2sgPI9K5ot+EGho9VHzVcUmJLPn1aHn568a3/LrQFVH9N1M3+/AmmWk0wGCTEhVQYTgxQJH3usYR0yZorTLGlIw90mFmSrzV8QuQS141WgUOGHTN7Hho5M4f+j53NTgPMO2E3LwafcuwjdZbXW0yDa48wc3ZLUpLp+WU6b6CwE8SQTEk7dAYQLSl4fCqITqPmNYZvw0T2GYdrufAAnyfqXep53b38vDFcZ3t/tDqj6fN9nNxkYb8lob+/AxfcswnNNySkCLfEMeCEQuBZAIVsHuOLjvFZ86aKjtLT7yl9eR4756pK1Z1UbijCzcQMvgHTDUDeQxDzzBaVbAfkvuGLG6Pt4WWk6IPfTYEmkdgAkWZzHK0pR0iLhmgdBJ5R5gUjsgGhgElUYAo54p8TbkH2wtMAluV5UeHnUVXiYvMtQ1JSXoL6qDHVVZaitKEN1mYchNRWoqShBdWUF9q4vw7Q602VmA0oU9LkzFz2xHm9sSQWzYEOoZJCgsiKF/pDVcgwa/CeleEI9ZeufeJgy6QPhJVKr49oP119P1i8EcrI7FRKFnsfTZ09AVUWFIqvaM+z0Aru4kHucLAcmF4xtwZrpRh9bJeaNWnCKQFHpxWo8vKoTt0/qwKGHHOzCl7/0PO9al4LFlLGphGLq2inL+r7PDmdbr87csHETTrh/PVZ1s9vEEj2f5DUwacyENALB2R9JZuTEhUlQsrqnGd/7LymPU1jh9X96CemKIdov6UkmFLUQLW04J+8449p1IpFL20fBpGc5xijJBX3XRAFhdQko8kT6gRi/Vf5GIlKpTuofmXpaKkfOQ1hOdl3I5cNiJfk0KvwMakryGFLhYZe6SkwcNRiTdhmGXUcEZk6FfzVt82UOG1GG0VX/vvEH0fD/3+sN+O2iJKuiSCc93xRrQVBOyciLhptuSbNyPlGNLHKyIGgm2tHV0JVhAYkZfu9SqGx0bxPuu/xg7UbmxqffxXOddcy8+3/WglBW4uPe0StxzvFHobTUCrKXeZ63h6NIdi72H4Dg+8cBeM5GsaXLlmPWIx2hGTFYiclO0PA1pwjjYHCB6iqwUE3pQf1l6Q7ccgWXYYur54Y/z0FnxfBkQVGX8FExAJHJUANYlKB2R66xugRCssXViRtWEYiR0CcZkPbWRZPlNq6Tl6waUzA1vQqAoBBD9DvPNy4C1w5IFEVk8lFHCj6fQXWuB8Mrcth/8igcOG0CRtQGljFqaosFBtHoZo8sw4jKf3+A8OO3msD+FWhIIcR4OgNqKrQWkLTKH6rLhzr9F1ZETqbtwnGif32wIHSk82BHGYUnBKzf3r8WJ0wdpQyUuXNPvmcReiqTgOyQsP2QaplOLa7cbir3zDSvuhkV5tO0g+HmS1q/X6jfgq8dPgmjRjolGdvP8zx2l1C/PY6ivt/aG3AV+b7/eQB32Dp23/PzccVrnP2eEqYmF0OhER4xRBJDWj9EZ0oyadx2OWdu4mbv1rvnYEvpMMHFEBsCZEUoa/wC1NHY4iOTt6jfCpItNvlThhOTKV/qj/70hHjO2umYV1iv9rpiJ6AQVaA/PUAuFu6FcUEpOzwCAMR5EBQJpeUMtc1E4JRlUxhT42OvccMwtr4KU3YZgrqaKiFqnK/0PwDBJgn073mAECt/k0m8oKeI+ScUC6VvhOWky4tBKDb7dd0EoNUcdyz0TWKeplQeTamM1gLAbqd94SK9b72luxdnP7XRYDngBRI3HxTi0v5uAAoWF02/uhoEuaQICBxV1YFf7luKPWZMc2HM6zzPu92loGuZ/wAE378LwMdtBPvG397Arcs5M49yisHuYtCuU9nULvwdKqpIoed9/OiSfYSFGE3gH56ci4Wd7LywZketAQTactooSsrCEVGM3rIaq9Ota2ohUwBGkq92ZiYEHiFv4p8JOU6qb4skJ19zBLOPJTI4JybYslwPBiON8UPKcMBuo7H/1LEolZjOCQBQMtfQKerV/xULwn0L1uEHL69De2kt/IoaQHfDJTUXAkNoJJGqN4JCmvViTfHshynDHaBmXD2R/0DVowkw3dqVRVuav+kyOjUR9HtQuhVPXS7evRC1d/e7W3Dnip6khxR94nWpEQQ6xUsq/qTferIQ3C24QCmBtn0xEXUlOfx9yiYccfihNhXF3v/D87xTXQq6lnGRQ6517ZTlfN9/GYD1Zozzfz8Xj2+ObhPT8C41el6/FtaGZEGQTxXw1y9r6vzhOTNQUVmhyIdHnl+AF7eVamMgHfV+eNcAl1L3IXQuAAAgAElEQVSXZRJkQUV8RkEnX7/Y8YTJ+IUsAg+BEaNitnPWCn0kAGBR7CrzmwWNAb8IPSEXFfci+E9Le5QAZJ/6eZRmujGhOoczD52JqSPrUMaSDmgVh/Hnfncr8F048v+Ii2FlZx4rOxKFuGxzKx6etwIbspXIVwwCSrjNBTev5PFdHX/oYkB4RahMP4UsQn6gFFzMzdJ6in6P+Fhm31BcbOroRXdWtpSKi/XomlbcdLr+eOMZ976DtrLBjncv6BSz1FFKDhDBvHI+C1XMUIBBJlD4t1Zw6I5ZauQBgDtHrMbVJx+GsjJrqvIez/Pk6zC3Sy//ByD4PrvEwBrccfDP5+GddtEJVyCessGmfQzWoLiwPpNC/8Kh9Ziw6wRFD7yxaBXuXdytyYMQBRVEfCLv+OXMgnJQUB998nIMhIFNYyZUFnLyQ6GMReEbdCO3Ug2JfeT6zfJVLzdMO5eoF0aBRWQ+9POozHRiv7F12GtcPXYfMwSDaoMMc8IitskuqdeUACimzp5MvpAzv60ni0zOxztLV6I3m8em5k784oL9ceCEodslpHaGj3mAINO0rb0DqxvaMH9dMxY2Z5GuHlZQfgLfE4CAH7siP7SKx2Ah4ACBft5FxlT6Z1kf2RywobMXvUzkaA2LCYL53VHDMXWUJvAVwOwHV4vuBZVQCeJV1psjYBCYyrLQHWNKJFylppg0yDd1IScC75ODt+GHx05Bfb0+CF1aH8d6njenv9bMfwCCwxFHRuw9fjof73fqQggMQQc2YcwzDA+4he/ElXbBFOCIg/ZW5r+lI4WbnlqpPUaZTHK0JY8aTv4OdjL8eznzj7zjN7lUghYJ+SUqeuP1y+IwXTM9ujK1NQGSVJELwDMDGYkuJOAJXlRmuzCmLI1DpgzHUfvrMWwxilxmGhdwsGlbExav24o1TV3Y1pVDd85Dj1+CjFeOfEk5/NIyOnU1SvDguRNx+LgwVW5/Sa0BWE8EEFxoyrp//8tv452GDFpK6pCvCDd9giJ0AOZk6mMXhWfOgKkmXOMWtAYo9GYZOEgjV8gFwbWvAQpl2R7869KZWhlx37z38LN16oV0YmF5YcqAJAEiNqAiSxhjTusiY0bUDY2m3wpQUQXnoVVdeODIOowfN9aF8z/ueZ710kGXirQy3PXDf5dyLncw9Pb2Yuqdi7Glm3E7+5cAWCsdeMUvB/0VPtb5+KlaPRw7MoWzjlXPxTLW+wK7j4FDuwV2VA0Goub+QO9i0COieC9F+TqdAh45n7wlAwQJIGy55nUaVnC5EBpf+jlpX3rh51GdacNp+4zHkXuMR3kpcWOojv+IQdkUVncqBZbjY3NrN7Z29uKddU1oSHtIl1TCL68O+Ul3vEQXQ6YO9KbZo3HVPsOsy2RnL7CgJYdtPVymJG5Atjlg1pcH3liBNxtzyLHIfTKokBI8iULUtmU75kqsF+2pCY3W6Or1CycVCpLRYjlgRWZ4rfj1+ftrW/3EwwuwNB9anGJ2opjbsN5iRGHyiToAqe0+ZmliBA7I6BZAOG81pT7empXC9GnJfRWG9XKT53nf7q/1RMrK/mpgINfj+z7jxGZbHzs7OzHpl++hPaMKADWa32xRUHZ8mgUllJGq229QF/7rNDFgJSr/pb/OR76MoW++Bjl/AF8hL/hZhnTx70KglZ+XAq6SDseAmkdMmuFTFjqe7rRgS3wV9qhrG3ATBYqV+YuNgVDkDSHAuDwIpdkeTKzJY9ZuwzBrxgRUFOYveWzKJZaDGiaWv+3N5bFqSzteeGc51rX2os2rAVh67rIgpkVOFEVbTAg6Kp31cOnMetx+3DjbEtvp37/ckEVXwe8uPsXOX3NLG15Z04jX1nWgqWyIGLsgA+UPy4LArffWdA4N3ey2RQ3XEuz/mck+LjpIn377hHsWIc1iNrQKkxc0pkXCKV6Ty0/DrwPRgsBG+sj0Fpx9qGo51pDpz57nfbS/FpRVRvZXQwOxHt/3GZcyu7zx2bp1G3b93YbQdpBoQKc8CDwfM2pb8wyYFLqHSeXt+Ny5h8e18hN4/d2vI8VSk1KZ0IhRxnXQ+ky3/DW18RVoxsEHRfGWlagDhvb1jKprzzabkmuQFyDURoWU+hbAQYynNJfB+IoUjps5BgdN19/WVqxikbvY3dWNZ95chuUN3WjOVaC7pLpwV0ehXmHCVUGbtE0kpgjnUT2mpwrmg8fU4NHzJtknZScuwXDBc1uks/59yCmhm/MXl6zF35dvQ3PZUKCiwmmHruo9tWbxF2J1yT/z6xTAtu4s2npYYKY478OrS7H38ErsO6ISB4+qxMjqMnT05tGRyaMzk8NJ46oKoLQ9A/SwPNXhwy5vOunR5E6LxEQvdSReV9ICU9ab5r0iyfqQarmo9h2BjBYQJeP+4eit+OpJSVCnYbm87Hne7P5aTpQc6q/6B3Q9vu8fBGCerZNz312G2U+w26Ajzgi+cCKerAiZyYr30RXlYgAG9bbgpo8E6Zbl9r9//6togJRcRHcumneOyXcxyLfF2UCFgXh6saRzqUiKpVhTvwCXKICldlQVpKGJ1LV9jUDSRqWzOchnMbk2h/MOm4FJ4ZXdTiCAki/hx3nfR7onjdVbW7F4QzMWbmxHq18Fv7yKZFABHxSmQy9oVctPMeWCeodVlmDR1Tvsunrb0v1A3s/fmsJF97+L3WvzmL37GEweVoMhg2pRXqH60oU55/5wkSXr2nvxm+cXY2vF0MDapyQuCuaHTtQkzp95fSakk/kgBw+bO9JIccqdgYFLpw3GKbvWFoCB68PqaOv10ZkBbnt5JX61lvVKAwh0Ek8LCPpHISs4wti+0hFJQVDjiVrh5B8BFK4etBW/Oc8JIGz0PG+8K/1t5Vz40lbHTvPe9/3R4Z0L7P+jf9+3DeDP/3gZVy1Q77PXE492MRRvaucS9oSKvKS3G7cT6Ul/9cQbWNadBIQFct8ehCDc+65cJyv58FwzNLoCKMOGlo9mpBQvP3dWZg7XMTkPcgVKeUIQhJ1Q9Kyfx7jKXhw5ZSQO32McSkoSib694GBzWw/un7MAa7pKkakcpD93LzE2mZgnllOhgiloHspXxLmYdMc0NYvppcunYkp96MawLbad8P39K9rxlZfYhXqRXsjDS6cwONOGQ8cPwnmH76OqlyLBAc8vmUwGc5ZtwJy17WgoHQJwaXhFAGJL+GVWbAqQLAHSLG1yV2/hVka2Ps/ZrbYADC6aqm5Mip3KjR29+NniDvx8cVvB2qAFCorLYDsBgS5mwnb803SqgQISOsRBiRNN/WcN7sSDp++G8nIigFMkdqXneb3F0l+LTfqjkoFYh+/7BwKQ/xXdVXYHwx9fXYEbV7IFEM1oUo1VKclCWgkBUDUulWq5sCTzWdxxiZhgJGrikRcX4oUt+n2By8BdTwkkgtBWa6Rw+JUgA45g/NrLmKQFZKc1356tbwZXAz9AXYwTiROYQM5jSL4Tx+8xGsfvqzet9wUcvPT2Cry1thkbUh5SZYPgc+fqlfrMOIbzMBQHeCiBncgzzYT5wO3HjcWlM/99jzp+45Wt+OvSNiW4MJkXHyXpLgzzuzFjaBnOPHAqhoZX+Np5mrZUsm8zvRnc//pSvNaUR7qqHigpMVsQuKA7vaRQNWY0v8xNsLWrt5Cp5fRJtbjhkBE4eFSVfaEVWWJZay9+sait8K9gpFCQSviDwr42gcF9p9WGxGzE1Urvte3rAMv29+vAQRm8cMoo1NaoG1XNUGZ4nre8SLJri7vwZ3+084HU4fv+YQDODv9tt10zm83ipVdew8MbSvHLdepCMBNPY0qPkamZHLZJ+fGFeykVsG8WrFiHP77dHt7zHlmOpZSipo2h4S4EJUO0w4zaxqEADQG5ix0tuq4CmrKkbpfHEJWXNtCkAuQGUNHbiY8cOR37jmMJi+i7B1zAAXMbpLpTWL61HY/Oex/NpUPgl2iSpPApr03zwQlYIx3D8Scm6oggYeVSgg4xqJU2GR06tgZ/O/ffMw5hTXsGpz68FikuQFHkF0lhhGxd0t2KPWszuOCgqRg+uAaVLL5A87jwC//ZH158B6+2VADVzKqktyBES8O2QPi2G1I5tKazBcPSdw8dgW8dPNxBAmxfkbca0/je/Bb8bTVz71KKV/e7JFlIIjL6mIJFKMBgEywaIKEbAFGNENMRfjeyAnjvtDoMGRzkjrA8J3qe909bIZf3rnLXpa4PpYzv+5MBnBP+09+F3Iee5XI5vDFvPlpaW/H9NUPxRot6m1ZAPNqlIDerENsAWONvNdVfuc8g7DcjEbhRNVsbmvCD59nN1Tzn8T556ZQCd2rBi6MnuShKSSHwAic5vUEAkL64GCwEs+YtCL8nmdoG5OX2LUCBXX+8W20Wp+41FntMVC+dsc6/1N9cLo+7nnodS1o9ZCoHwyuYjk2JIoIKOP1v5nQBAJgkY1gvEZuguogpwia//+7UCThlt+03Q/dhKe/QT340vwn/+7Z6EKowJ5aJiYFEuge16WacOmUwTjpoz7i/xYKDqD7mgnhr5QY88V4ztpQPB0qjDLBijclftMJjiVQ3d/QiVUhw4OGZc8bjxAkfbF6LOxe341MvbSsuNoFSyDpukI6BChMQx+hoPqSO+QjzrjNBRnXFC1LPoxLAazy9GsOHOx0ZvtDzvAf7g/F3WoDg+z4DBeeH//o1vSRbYHPnvYn29k6054BrloxAOgrI0cUYOs6E3nVFBe3xv4sMdWBNG644PcgOzU9gb6YXX3l4eeyPdp1cZwVjU8ASHYq+zdHQYe0rEQcpsXbUtFDrV6yA97WLNZXne3H4+Cqcfcg0VJa53VSo6z+7tW75+2vx7KKNWNVVjkz14BhvGucufGkHQqLgp+uMBFWAiLSXXQmJtIIx08cgOUYJ8c0pk+tw16lBBtB/l6e9N1+wHmzsDI/5hQQh70qUCKadj1wGtalmHDi8FMftOR7jdhGBJwkaiBddqRTuemkJFqdrkWexKgWZQRSWfk7n/QI4KBhHfKDtk7tjcIUbv/f3HL/XlsERj2xEA39qgheLFCDQ4mBqATkobJ3JwQQIbC4Spd/0huDto8uw78RdXEj7Cc/zfuNS0FbGVYfY6vlA3vu+zzj8uhAUqHb2fujF5s1bsHjpMqTTQYzHHWsG4cVW2s+mEtBsURDK08DdOJJdMg24/rJjtWW+/NfXkWHniHVARlKoggkyusQl8lGy/+fvYohaMwFiotcuTCaW4RYqd1eF7ZJaRV4o4xU7aO2XlAdhUk0O582agikjwhTH1gpU/zGzEnT2pPGHZ+ZjZYpd7KPjraDjXoH+YYJLA0e4BL/yGt2ZjrKJWuHXsJ/SMTed/mEl/3beZBwyxsmH2g8recdX8YclrfjOq9v0txWaEJSin2hGKutqxumT63DSPhNQXlau3MLpMvdR7e83tOPHL61EqnakmOpZ44tr72X5DcLkR/Cw6PJJ2HOY++mEHUX96fesw4q28EipoJi5FhVyUoAg/MYUdDiALAj/OhQ4dppTTpGveJ53a3/MgYOI649mtr8O3/evCMFBEBLcTw9zJTQ2NaGxsQkNDY3o6k7FiczebCvH91YP4XInahSMu4fBvuOK+FVoRm2gqqcNN1+huV/KA35w3yvY6tUH+kATVKkjGwWA1aBMXiHoBi5q5KJdAgRgCsaieE4UF6orM6s7X37nIG45WFDoXvV5XHjotIKvmH+KEc5dqTR+9thr2JCtg18Z1cMDIRUIaOWctCPSA06akFogxit4wTIgIyzR52I/FRFQK2rz0j3qcduxTuli+2l177hqujJ5XPjkBixpSieNUBYEYoFZ+ZUnfz6HylQLZg3z8V/HstjrkLbWSlSQunLdRtz7ziasLR2RJMkKJ4pZtbZ1ZcNTBEEbvz1+NK6a6XQPwI4jOFfz4N+tEfqnAlIOEJCnFDQ+UKfTC5oKKQFKAOpgY6bzwfJySCXlwwcC5+zpBBB+4Hne9f0xGQ7s1R/N9L0O3/dZViBmNTi377UALBtie0cHOjq60J3qRiqVQirVg54edq2oLAg9rO4uxfXv16MnL5Foe1wM8gAKVRfjYgiFQjaFH11ykLibCLv5yKtLMWeDeM1qMgJ1nFH7wi2TksIwggrDpJhdDMm4lR0tod+MCrMvlg0dOQqC0itcjHTMlHqcNUu9h90VGGzatAXPvr0KC5qBTFUSxa8uOg1QsN1R4TJewgdAL3qxH4Ubi22CzBgikdQX8devTx6P06c4BVptz3Lf4d/ePK8Rdy5sEduJ+YlxNKFIhHlzFL+cvitIDD+P4T0NOGp8NU7cb3dUVtA7e6oF9nsmm8Nv/zkPb/UMhl8zBFnfx6aODHrzUcZYDz88fAS+euCOD0gsZsLmbErh2MflWKviFS6tqC3oSwAEXM+1AsrSL9v64qq/b1YFLpox0oVUd3qe9ymXgrYyjhxqq6b/34fuBIaCvt6X2ru7u7F5y1Zs29aAtvZ2MNMuDxB5S3pUf/T+rc4K3Lp6MHpC3xvVvhPxeEChvYtBlTHJL3qFzoLjbjtvhnj9Z9iZdU0p/Oi51YUqnPpnj6VShl90vZYJjOsjjt+zgbi0aQQQMUXMtznWoxvXHDcTuw6tVsy5PJ+YhrTo/U34wysr0VMTLWYR8ZAAgxtA4T8JoBT3Q+iQVtII3RSBomYEzKXBxyAIqbe5a8DDAdjpHbTBtzttaAXuP3siRtZYr67ty7L/QL55fXMKlzy1gZsfkRKC/ohN1Or8kDwtv4hwFn/tejhSP5fDxHwzPn3CvhhWJQZSm8ABTyh2amZVYyeufXo1MhVJJtZr967HL45x8nl/IHTnG/n54nZ8+pVGqV0JScm9InfuYUGTq0EnUZX1ybVfdOyB/TTFnw8dhI/s7gSu7/U879L+mBQXudsf7RRVh+/7F4bAQH/gn6iNXaq0bv2GAjBoa2snAQEFFF5oqcTjDdV4vydIRmEkTsgAhWj+Ih6hTq0CMKdaji6L+tbJUzFisJgtj1WXyeVx3UPsBuvkcZ3k7c+DQAAajYVGWbs6Gkr0UQVvkccYZXHC1T+iNIXz998Ve08eRc67yXLw3ur1uPvV99BQUg+wS44sTzAWaoDBx4oBgAAMtKLWf0Dzg1i+YEHQxkCIgtAIeKJ1wo33IzOH4eZjxthINGDfX/H3jXhpY7cK4GLy8UBLWoiS4nBam1whobwUI8RyLcyo7MEnj9oTg6r1CXVI0BC+uOelhbh7VRqlQ0bitQsnYvrQgZvg6jtvtuDG+ewECQUMImRFjLpfXAomQUsBBg6QmHC9tLB+PmswPjXD6STQPzzPO7U/FpATf/ZHQy51hFaD/wXwMZfyUZnm5hasXbceW7ZuRT42j9lrWNtTgvU95XirvRJvd1agOStFcbMqDDEGxRKvMN+6uxhkxWXvOj6y7zAcPD0RsnxfvnDvO4WreIPfithZEgrISZlr+mylD79+WTdJheRmQShYGoT5MgGWoMND0YVrT9oHY4cEZlqbAOWH2dLahn8uWIm5m3qRqhiiSVAjtR/uYKwKNbSkWF0Z8XgdJ64QlWLgB6XdaEIiQSeOR4kxsQKYpMBPjh+LC6YPHL+2w5IrFPnNuy343hvhzlUABEkNMQ8J/7EdFoRIn9iCViPLjp/HyEwzzps2DAdMGY/SMC9HMbyd62jDsVNGuJLlQyt3wpOb8dzGVESh5FhwMbEHUe/7y4IQ10dITmUiHIAMgFv3qcZ1+zolHHva87xT+mNSrDK8PxpxqcP3/akAfg1AH56vqYRdU7t4yVI0NUu+QK5sOl+CFV2lWNFdhjWpcmzsLUVjphQdOSZdZQWS6FNB0RADcCKeKWaBArYOBJtS3o7PnsvyQgUPX9WX/zIXvfGNaLxJXYdQAsSSKA5uy1ioVK9QXMbuUkbouzwdkg98u+oTaOphUm0Wlx02BeOGime6XYRoRyqDnz45FxvzQeY60YhumrxggMGtlDYTVXha1aWcIODsHyRjlDS6/Cel4CQiaeVdzJVBf8QYlxJMqCvFH0+fiOkDIDLeYbkVijyztguf/OdG+H4EmKQvOXki0ISgo5WfSTqHL4gTh/xdDCWpVly7/xgcsKs+jkCnE6tLPew/rAxl1g66Um7HlXt1aw+Oe2Jzcgyd5ztjMGCRuwFFUHFjktaNYNEgYwyKj5m4fa9yfPEAe74VAA94nndRf1B9QLCA7/ssJP9l1wExV8Ky5e9h/YYNhasGZCZvy5bg+ZZKvNZehfdSFSjk+IgvMZF8AvyOU6Nskz6ppoTCDqrQAcnSQAEKR2oLxeQdcTjg8lQLbvvoEdod7/cLJxmGJvjHQlhBfvFlo3HxKOQDvYsh6UyhjzKdJYDncmpiVEk3Pnb0NOw6QvTluQCDlxcsw2OLG9BVOZw42mZWuDowJ+hRTuBr+xNXHwINa2SG2B+tIucFWOhTCDIkyjEHMv875EEIJ4w6VjltWCV+edK4nQIkvLyxG598bjPY6YWE7HquSeSRojkkmCoDDHmhSvNHpSDgBCDRIyDTgynZRnz+5P1QUxVaywimn1pXirHVH06+A1cdwJe75Z02fHVusyFmhwB0ArDWtCysN+J9vIAlwCAsbKr9sAHSciFmwvzRDB9fONjpFMNdnudd3Rda6jiwP+rpcx2+738HwA2uFTBXwrLlK8CSGcnP/I5KPLitBku7Ob+ZxkUgAnqdxgtqLpQzuBjiMq6dZ3Xy9UkWXFKB6OrPZfG/l+6rbfmRl97F85vtFwPJGnf7YxD0hCBxESf/+uUuBsN6G+534DOnHYCRg1SfqgkcsORTz76+CM+t60G6kpn3itmhywogWfAuWJGOAQjrVcZrVkgJfxHlZHwj+2gNn+nkIT/6YLxqLm8WtPjLk8cPaJDw1tYeXP3sRjT1BNH9gvxQfogsJrogUwtgc5DOhbYjhUIwEXWbYzqXx9a2HkzxmvHpQ8Zj78nqpX/lJR5mDS9DqQuDFiH3dnTRs57egsfXdnMLwxDka7Pg9cXVIAyQAwT9aEH4xcw8rj3IKdnYHZ7nfbE/aP6hskEx4IAdUVz47mK0trZKthkfr7RW4cHGWqxOmW+6CjacPCDQkNDymkcM2kuVTDELbvLbui+MZNIXZw3BxIniImdNbGnuwPefW08DHL4f/HhNdzFEpLJn/o2J6spcImDjppcEENIAQorp2htZ2o2rZk/DhJH66F8TOHjohQV4bksZvEKqWtMT9Ee8FZMubxwv95nSNyVq0RaboTJcoGCIvsmnExQXnEj3wFViP49pzCzo+5g2rAq/PGnsgAQJS5vTuPrZzdjQkUkslQpCMAE2Bz5IkJuMKIVU24reIuifTG8yX23pLJq6s0lOF99HXboJN5+wG/Ycn5y2YZaDqXU7j/UgIti8hjRmPbLJcCzXzvfKTMXkkxaM8DuHAJTlJv2gLmhzKnVpfu/Zz8cleztZEG70PI9tvLf7cZXh292QXEEx4GDN2nVYtFiMzGf1vdJShXu3DcK63kCA6wej+hC0AlryPCR10Rq/UMZiYeDHreUPDWWFcrr6Q747dmQK5x57kFYhf+7ed+AzxRZ6QIJCGmQQXgetzYMgH8vUKWyqf3YXOw0kVL0W9F6PCySVGijqinwPrjhoDPafMobWhxrat3d24rdPvYFV+aHwy1mWw0QAuCyWoEzYUWKnQtYTveA+1y48iYFdMyNGK0TL/wKjBjESdB4EsVd0MGU0YSzGRY7OFadt2tBK/OCo0WAXOw2U59m1Xbh5XgPeaxWtlTEfxnpUndHCLxSQCAdo5QOJEHHsCpWfQgZ4AHI5H9u6M+gu3M+sUVg+UNvTjE/OHISzZ83E3vWlGFrhwukDZZaSfpz19FY8vrZL6/6LBYgJ0GoAuKhY9PQj55kS+BR5LZaLZw8pwQnTnE7/fNHzvDv6Y4Y+FE5wBQcsqxezGrBYA17Bzeuowl+21GBNurKwgzFdjyzLPZVoutgCDWmdYxXkb5MPk8xzXBmpefHYpE4jJuOdWt6Oz5wTBCrKE/mNe99AZ2mQe932WOSY8rkr02jXh87lEytG/XiDIDf7w9aXl+3FGdMG4+QDdtPSJapFrm/z1gbc/dISrPaHKTcnJmXNAsLaR2fFH84nJbBIBSP1jx+sdqMvlS+csw+DKHXIV9rR6NWialNV+UClI+N7Fu953cEj8dkDPtzEPOzeldvnN+FXUSKkaN7CPBGkCSacLzduNcVwhBRL8JV0ZxfNSDyt2fXMjd1ZsDwH8WIQpkecmcmlHVj1qWTDYV9xA6vEX1d24iPPN3Cdsiy4vrgSDPRThRQ3jzpSUa4OwjK08Jhy7D3BKVHS1Z7n3dUfs2OVaf3RCF+H7/ufAcCOMhqfbDaHeW/OL6RBjpBvj1+KOzfW4oVW/W1i+sEYAAClj0gBzF6I9QU7b+4pJmbBIM9t9GHvB/W24fuXH65Vnnc+9RaWdjEARey8tYqaMxnLdzGoMWpOSpv104XJtGUkl4eqLzkC+nkcvWs1Ljh4Mkpsx7ok4t509/PYUs7y04e3JxIWAPs4gv64nFIQ6qL4QP49/lt84dovuwVBqtdw7JRXOLQFIUEoQR+JBRcr1qDBY3atw5cPHol9R9F3oLisj76UYcGIt89vBIs7oK5LjukdAiolSlrRS/QMufBBPA7PS2KYZHIW/g5qYye9t3Vl0J0JM6rGjUgMJf35qb2H4ucDNDGSy1xm8j72emADVrQH11LrFbbBJdYvFgTJ5SB03AEwaIFEoHaaz6rF0Pogjb7lucjzvAdshVze22WLSy2OZXzfZ8kbnrIVz2azeH3uPLS2tcUuznc7K3DHhno0ZaVrl2NwrNniSw1ZNmRhaYtFgmsmrs84IMmCIMRARCuUq8BFoYe87+Wy+Mkl+kDFZ+etwBNr2C1z2pWiY1tDFLA4QJJpJPlfjEtAjZp3aJO1l/cxrqwT1568L/+sBRkAACAASURBVIbWJgqF6mP0e1t7J372xBvYVDYKKAl5ygrYOMnfF8BkkQ+x/gxN1y6nMsRxWgfARWto+ELJgyDxp7CzkdeJTmMFc6jqJ/3s8EGZteUluO6gkbh85hDUON6YaZMrpvcrW3vxxKpO3PEW25Don8LlWToTtQTc+seCIF2jLrjYFAQSd7gznUNjKrIaSHRW2EN8/+vjRuOaPXe+3BT8bH17fgtueovFqXH8SFoKbOvFDKgUBKKwtQMgMIlnrt8jS7NYc+5I1FTbk7ABOMXzvKe3Zz1E335gACHMc/A6AKP9kIGD1xg4iIMRfTzUMAh/3VaHfOFYYbQR4Y5hcezgQhRBYAkWgeTruIzBIqAnniVmIWqCFSNSC7tOCiv33dOmoJ5TjNGy2LStCT94YYsooKkdnHJO3abJ+mgVkAAEv1HXzpuEMGSFWdnbjq+fLZ5MsAEDljvjgZcXY35nDbwSFtRqWKEa+SoiK97iEvClce5oua4ffswfhCAj+d4g+EhXg8ZFbSOmtf2EwYUYlxhoiCYKpbkSYEJdOc7YbTDOmFKHfUf2v0XhmbWdePz9Djy+qqOg+4MFQwxcnj+5HEf2oIYi502rYJIJU+mT8B+LNWjszgTHMBXpbhgPJyH+ec4EHD9h4MSAuMhyuczill7s9eBG6WfLwjNZDgriwQVIcE32BSjoBhs362Gf8g4suHgamf5d+ny653kr+kI/+RtXXbTdbfm+/yyAE0wVsZsVX31tLlrb2gvF8j5w6/p6vNZZHWUY1gtS/ldFP1tiADQ1monC1RcLAE0lOhO+w10MkVhJauQrSgRqFPR1WH0nLj3hYEUmML/jFx5YBD/aHQsCi5MgBZ8zLxh5l0nEobzEcUkFnYjHoiwYBGCSFW9JtgcXzazH4XtOirPEqXRT5eRvHn8FC1KD4ZUQpxJkk0foI7Sb0IO2BODpgjs4ASA5mR3dMjbBJfKl9VIswYfukAfBogBjrrGZ7iI8ahHEx+1aizN3q8NhY2swfpD5xJJJzixvSeNf67rwxOpOvNvQo8mAGa2HCD+G/CwLBnn+DKdphP6Q+sqsyCgLRlc6h4aC1YC14sp4qkJb/dHdMGlw3+m63Uqinyo4+JHNeLMhbT2tozQnzKdJMUiMYAIEpKujuFMVp9W04snzZ7pQqMPzPKcLG1wq+0AAgu/77G5qdiMj+bCAxNfmvoHGxuaCwurKebhhzQi81xOlDCY+DaPwxUtmzEMXBTlt09cSR1L89rsYxA/0Oymuvy4uBk6ODO5pwP/7yDGiggqru+G+V9FcMsSgbHgFo1H8RLBMIvhDeSTiB+1hCf2MJO2Tt0nyLj3fx+SSZlx3wWzt2ta1kc/l8bfn5+GFbaXIFy6iSSq0Mr+kf4tPLSz1iKvP2HY0v5RJW1NtAlE0EkkZh27CCAsCX50zHlFHl0BG+lxtTN8IkRGAgf28+9AK7DeyGvuNqipYFijrAgvef2NLN97e1oN3Gti/FDZ1ibedCkDGGOUenUojFDk3bB4iU9JIkEPaQmo7PGXZRbMNHb3oyvKgnlf8rhPmFfIeZD893UVnDPgy177ciF8u7ZAQUB9jD2ILglrdB3J6IWz/M8Ob8b+n7eVC+zme5zlnI7ZVaJWRtgps733fvwLAn2zgYP5bb2PzlsAk3p338NVVI7Cul7s0idezmsrIgXDfBfKGTozEi03buNj7oE2DD0IW5OyDfrqLIRJAJb1duOPSA7Wmp3+8tRpPrWJ5ykUgQCZIknzM1HfOPlYbEXn5F7lctJcDAeW93fj22ftieK26w9HNPQMGi1dvxG/nbkK2ksqaKNElUkih5SASAK6LxLZRVvhLBmBSQ3S7yRuhjKIPVAVRKE9VHP6eKC4b31iiGOP5JRqUupec8uE6IuEdquvHD27DJUeLd7tFZa95IrjdVHk4+mvrleZHsSQlhBKqtvKLTOcEoZgNABxgTGVyhUDEIEts+DiZwnnEnYivafUVWP6RybYVu1O8v2t5J65+sXHgWhBMMREEQP3tbm246og9XOh/u+d5xs24SyXF6sJi6ozL+r6/D0thDsB4Z+h7K9/H0mWBy6QzV4Lr1wyPwYEQhW/pRWHdGVwMqoCmK0wWuQ4ABJIt2VFq6tG5GCKBaKS+fB2xpX0/j5tP3w01NarvsD2VxTeeXM7pA1rg63fwug4H/VHLq/10CbIT9FXUHK938j72G5LGlcfvjYoyN3DQ0NaFHz7+DnqqzBebkII8Ugz8Dt4xQVSsgF0svTwfxDuVJDjN7trg+ZBXFJSlWSqv4oegkkixU+ftJXan5zlGCGBXlAeJFQgEyLv+KcsVpVjZBS517bjsmP0SXcn1sQAQDPMRnVagMhDKviPllIoAFKL1YReZNKDUD5T9ytwIzT05tKdZbgYD8Ion0sQXyfezx1bjxfN3tXd6JyjxTlMv9vsbi0NI+E/b7e0AVMJCIXcSDu1b8zIELb0zK4V9pk9xof5lnufd41LQpYwV7LpUQpXxfZ9FUp5kqoNlSHzxpVeQzwe+8M+vGoXV6SDBj6A8yEa4GBJLZwWBq1gkkh+Mil9ab3b6cPXKPm5NDIM4IdKxw1BwChnsfB/XHDwK+0zU37z2eXazY1mYXpjQ93GbVGIkSZGRw5AUjp25JKAlLdjKXDe+eeY+GF7jdnVtR1c3fv7UW1iPYVKgmQiMhIyHsgldM6HKOAjFSgMO3pctA0A9QwV1URo8XBvKa0PHXACOLQ+CdN2mEWCZXDmyQtUd33OZB67M0XXt+EgIEOR+JRYEvcBW51fDyNrEUXoKGPlAmG7HBVOYFyCdzWNbZy9ij0L8uXne7UF2wAEjqzD/4ol2cbaTlBj0h7Wq68UECHSuBF7u6bSRVjBYYgtsQFVD3wllabx5/CCMGuWUA6HfAhSd9G9f+cH3/c8DsGZz+tecF9HZ2Vlo5qb1wzG/U41ULsyDxcVADoaLUYgEriyfrEBcIIIupsCBSuFn238XgwpkxqMNX73gcKUTbD18455X0F7G3yFgskgIW/dgx+ezy2n00YNqgiq9oLIrTumOCviYPa4cFx8xraCSdA9fJwvInLtkNf6yqAN+aYVTgJ+eX6T+SxteK+DR6x+6/xYFb3dZ8ADLBblK5S0Dst4FETZpdTnFpzuIXN488C0s9PicZ7DuJUuGrtt7Yws+d6a6BlgXSRdDrAAIOhIKIm5fMYiIE+rCL0aIwb1s7s6CpUsO9JQNECgdD7+TLUtJA9OHVmDZv4mLgQ322Cc2Y87mtD2Vsc60ZFMQ1HstYLDEPlgtCD5OrGjGU+fvgbIyW8p39GuA4g4DCL7vs3yQrwEwQtKly5aDuReY4v7d1sF4rKUuiRHgbkm0LjRWgwuA0K0rjUvCOTOjAy7gi9AxEHzH2A7T/gRlwsx32R787yUHCB9F1pJ7nluAV1uq9KESvEKTYwBoHEGeApN7rY5DHGcC2MKSHlCZS+FTR07A1HEjba7yQnMbtzbh1qeXobdmWEQRSVNyAwljC0jFa5C7ceXb4zoILQL03QSiALe6aJRjldIANOPR8lZUzpYHQbpsiQ7aFFuh5a2kUPl+GJaAbgyTejbgmxcepf3qmsdXhUqVZ3ixaKHOuDt6RlABk1G9q32RigtBmQRf9WR9NKYyyORCk6ogUETLlPZcPu+6klcU15/xg8qw/konE7ZdOA2AEsc+uQVzNvdIk2y5O6QvLgdR6toBSR8sCN8avgXfPU2U7wSJ+zVAcUcChJsBfMXEJ93d3Xju+ReRz+cxp70GP9k0NFmg0odGhcmtGxfFKsQ0FASiThP28Zx/od+mHXokeMIBEh0WfrYp6vD9TcePR319EIzHu1I2NrTih3M2cQ3qK9xhdzGYFgRPBt/HnrU9+NTpBzoBg95sBr969BUszY1IEh2ZyaoEa1ovG1IEuoYxpfEZeTDWTwQSkatXKiMUF9moHjCQsQ1yccd66W7yx3I1fCcJZAU4EeYjXbcmpjfgWxeoAIGVvfrx90MrmI7AyQSq4zDQmzN06KSFlQ+0if6SPC853wezGnT2cicubCalvii4cPhDK0vRfM3UAaDa+6cLBQvCFmZB0DxWCwyxPuNJ1awrCiho5V9YEcUk0gJ9cc9mzD7A6QRDvwYo7hCA4Ps+gzrMeqDeq8sRkeU7YGmUN/aW4kurR6PHp9B4SOHIFBNnM0kqswKIWDC7MZ9ZQasmfrda6fwr8vf0eNibIMgrUejB30cNaceFJ8zS7u4/f987yJWy6eAZWzMOp+ACKg+CSgUnwAagPJvCN8/cq3AVM7lmwuqZO2Hp6s34xdwt8MtZYCY3jtBCoB0m1z2j3otWBbewXcdhBRw2AMPRX9um9KPrscto6FpFzk9b2H5SL+ESiM77x+xECNRovJRg5TsW+fgti0kcQ9LuhJ4NuOHC5PgrXy4GCAQySshOzHQkz20KWp5fkizBCyold3s6h5ZUJkgMp1VwDpaDwncaRSYorOR9RamH9LW7u4qyAV9OsCBQiFjgXx2QIFYOtZCM811c3oNo+qaXduOfR1Vj/DinWxxP8zzv7/05Oa6yz7lN3/d/AuCzpg82b9mKN+a9iazv4bOrdsHmLJfRjnMtxEGoLq1br2nWAIpE34quDcEUrDHtuSgbos/6PAii4nadFL7c2HwTrr9IzQ/AunHHY/OwKl2rwQdiEKSo4EKCsrDpwiU1fQcAydcqQJlU3onPn74fKsq5I61EWwwcfPvuF9Fcwe5NoKlEthf6uoOodQfAJstXsx6Me03rw6QClzlW5kNnIna5hElqjGxbLqeMV08ASl7yDBeUCb9XgGjg21BM7kVYECakN+GGC45U54BZEB5bKVqZeD7QrWV6AoNRRO8NgEFLY42+5lk9nffR2JVFr3B2ke8gMXOW/sqnMGKLh9SfdVdOwYRBVj+3izT+0Mt8+BYEQ4wxv5HRCtZknv+rehN+ecbeqKqqtNE07Xlev6cadZFTto7F733fn8BOZAAwni97/oWXwFLe/nZrPZ5std84KHSStyREDG4AZ3znC+uZz0NAKnHDkCWXtt5FISvCoD7HDUhxMQjhDrq0tws/uexApeOsJ3PeXokHV4YBTpqh7VZfgb1HVuOgsTU4eIw+1Wpnbx4LG1J4d1sKK5rTWNGUBjODmh4Tc3l+HhfvUYuj9p4Uqw4TCHnopXfwr00lwRXW/LEieT4cuFWr0CKTscYkaFSonI/XGjMQ9s0IYGR9QJoogxcJ4LQeekjoTA0o/F20IBhcZkIQK4HqBACj0ZC8pcZBGolFEsAxrmcTbrzgCC0vFSwIQkZRqa/sFAUVrCb0Tw+Q5JHb9HXEvxHQYMC3OZVFRzpyJ/BAiqCradVQHVC6L/5w78ljcPHudQ4raOAX+XexIPx19BpcdoI++Faahac8zzu9v2fGYUm6N+n7/vUAvmf6oqGhEa++PhfbMqX4n1VjQautqJZwZ8FbFopR7Lx8kwW0YfTxK0U+boeLgZQk4guxW7KG0LUfLPRbzpqOmorg4iG+js7OLnzt76sBjynXPKYPr8EFM4Zgr5HV2H+XakwYbPQGaanNzKBLGnvwyIpW3L+0FQ3d0blsg083rKkmn8I3z9oH9dXBbsWkrzp7srjxb2+is0KXEVICYuHO0OU2RVO70mm+ePzWxcKCBjnAQB1TpOvhFIPOMkDoJ62rwbAIrQos7oajQoyLyeWTvwsKOEbI+gQLyc7cMWMwNzNj05twUwgQ5KHHFgQLQk+MUsQMRQCKsEDw7Qo1kNV5aE9n0dITpUlWgYv2cqiomEB3G5Cw+8w+t+8w/Hi201E6d6XwIZU89LHNmLtNikEoNvbAAqhUwWUDdsUFSU4t7cbD+2Ww10ynBEmf9Tzvp/1NbqvMc23Q932mZd4GYBzNKyz2oLEJ3984HPM6RR+yLkrR3kEeQIQTQAEIU2X8TtRx0Nrq6A1XeFrQUCDeESoSQPS1E072vSpa8N9nHaZVul/661ycuOeuOH9GPS6YUU95DRxHLhbb1p3F/Utb8MDSVry1pdugUD3sUduD/zl5n/hKZpOifmruUjy5Jge/rKwIq4pFM5pcC2a9QF7/y8+WmYCBACFPMXB6U+yKXlG7WqTIPC7CTCUH/cnjq7FiDGz/5HKSEIj2DghJm8ankIzTJ9GB68B4zoKgAATZgiABGvqOCgtgK1bOcKZl5kZo7M6il+WCjhmoOAWiNC/QnXurTFSEdEQgdvTYasw5lxmBd/5n5F/WozGdd7p9U3v6I+ZwE7AS+UNZEDYgaYqNAHBV9SbcevxU1yued/c8b2V/z5xd/zq26JJSuau7G8/+83ks7a7A9et3cTS5S0FxBkuCcTA6AGDZIOkBgHiJTSFDnKKwaaIpO4tiTNpStUFdSQWV6VbcfvlhAp9WlADT60pR7/di6vAdf1Pboyva8KsFjXhpfZDbIlIkXj6Hi2cOil0KJgXT3dOD2594G5sxRMiApyguKaZAcHE78K1WbvLzQesjsXatwtH6BgSaqF0UG7RsuGO+IxM/mRSYuXvBvFkFnHyqi1hQimVFH/zokmpZzzcedpWCFHneuyqKQbBaENwEgsvxRKGfHKMxt1xLdDrBSl8bYOBHqZlsCagJrjlN8cEVpWi4agpYwOLO/LRn8hjyx3Wa5UXzZyBGDe+LBQw6ArrMNyfPHxy1AuefHNyzY3ne8DzvEFuhvrzvN07wff8hAOeZOrFs+XtYtnwFblg/EgtT1cQORPUJuHQy9iESMQqBwDObLgt9t1/VYBHyEgV4YKKViyrAoPMwRAOIvZjisUrfxy2nTUZtbXBn+ISaEuw/tAzDK1wo2Bf2ob/5watbwf4xglblUvjWmXthaE2FANZ1vVq9tRW3zVkPX0qr7DoCEoDZLayqR4DbIAQjNTOQvY/B9y4WhKA1m0CzHMfVfK7vIzdQbcxAOM9S4iz7KQpivASh7OszrE+z85rYsx7f5o458k1cxVIt899oFKfCN5r5tvcv5BJifO3pPFoLpxOIp0gFotQijIt7q/Qn/EHDH6+cPwGHjw7kx876LGjqxQEPb6ItfvG4+wkQkCY6RYCIJDUAkiPLWvCrfUsxc48ZLtPwA8/zmHu/3x+7THNo0vd9dj5mKYDAAU48zz73PBY39eILa8cGy6/QuiZIQPpe30npu76eYiAMAC6E0ZZxilngGYd9IPGNA80L9NOU+9i+QzFr2mjsX1+GfeqN0+HYSt+LMSvCH95YjWMPnG4FBiwfxo8efh2r8iy+NRxZlKciNM1SFjln+knywDrHUgF1PasCxlqnovhpE5I6Xs0AXE5jRATi9IJ+VsX6SXpLCpZO/BTVx47lam4pkxQipcfI+eVM9pNS6/CtC48O5Ar/gQdc9cQay3BD4EGcEhFPAXD1Gya78Cp8z1IkM3dCJj6dYJkIGxIxAQGBnWwMr77/0n5DcdsRO3ccwoOru3Dhcw3JnBcbeyCtF+1xUYGjOHmutcwVDxRurF2JL586C9XVTgcTTvA877m+S2r6Sxd5Zm3X9312exS70pl82trawU4v3LxpOF7vYtfuhuvHgg/0lwIVo1C5oL5YIIW4hOitkSi8RSBaX1YKBQX6pOAEwJGYHIPLb/hjigFBmQvxR2fvhV2qqCTFjp3tx2IL23JY2BpEaOtou3FbE378r1XoKqcjqLVzYpN/rvMb6zG9Sdd1keh992onSPnPvYgVjMEVoFWoTuWJEYXtJyZ0U6ptnUVOBUwx3zu5NHRQQDT9UHOxW2otvnHhMQo4YDXGAIEgvKpv9a1Y16+k93N5D82pDLoyOftlUTpejcmpp6tqYJL6bUNcmvcTBpVi0aWTMJj5JnfS5+aF7fjavBbNwuPzR2gGZwJeCiAwGRRdACDRvg+MK03joalNOGTWQS4zsNDzvH1dCvaljKvsM9bt+/5LAJJDyJrSy1e8h1cXrcTH3x8fvw3Wq92mb+4kBwDYitHkUdCJnVhbyYKrSABgJaBkUUgUe5hjnuUZEASXLhGRnvxy26dNGYwHz9utL3yww79Z0p7DghYuK1zY4rz3tuD3C5oAr5Q08duD7MTuC+vcSWESw1fuYiAEtfQ5zRPJ906Ah1IQrsDIoFdojkoIpuhToj+0HpLHG/4tWA6k9csfN6RwjCbY5NCybfjEKZwblvuWtiCIBLLpU96xR6LdEAW3pYK7E8STwNz4TSuOQiI7BDAkt4dG6+zXx+6Ca2YO2eEyYUc1cMJTW/DcJi7N8k5mQfh09Vp86+ipGDXSyZLzVc/zbtlRtLTqN1vDvu/PBLDYVu6VV1/Hr1b04s+NLKVywOlC4wZLgthJfUGXgWgBiSbo0aWuUA4Y7ziIEX5IHJvlMKKhS/tBmUTAHbNrLe4/dzIGlQ9c5L+iI495zcHB1nQmi9sfm4/1Pnd8UVZo3N/CXRuk4rBxYfA+mQfeYkDb6u3zEfGzBUCQ+kH/woVfCn2zNJtQhTjvLzFe0q4pk2KUCZCnm0QpR30YN6/V0OK8aOfC83DyoBZcfPT+4QQnI2anBa79x7pwnRKE0h5PVXnJ7nIBunvzhSyIWQb8bVGzkotFaVEABBrejolBj0sLnUmGDuo5fkIt/nmWU+Y+twX3AZbqyOQx+E/rLfjXJkA0fCzUGL4n1x33XtcTAwAcggzuHbsGpxwXuMssTyOAfT3Pi3Lp28oX/d4u+yxV+r5/FYDfmoox//LjT/4DX1w7Gqt6kqt7pY0zUQW/ozZ3Rj8YaQvvB9dKG++HNx3hKtLCwPdYK/9M656908VI8ILX9zFrbC3uO2cydqkd+FnQVnXmcf/SRtz+/GqkS4NgKEov6FzC8QcyXTg6ujK1Kl9DwBBeeywziku9QRmewVQTBs1/3MQW+NQmiCR96MDXIr0NiqWY642VaqIfknObYh4EPSVt+s6UAfPUwS248KgDlFiXjt4cPvdMqDAEhesyL3r66OYvkweauzPoYe4EiqFtPortsRwofOdoAid85nPOHQ927HFne/68vB0ffak5XBg24FTke9O86uhoBYBq+1dUbcRNh4zGxF2djpv+xPM8dmvyDntcZJ6xcd/3fw/gSlOhpqZmPDhnLv577QRB4QWNE1GCYYX2WxqLMMk7jbafjlXqFL9ObyguCBlSqPThfd17jazEPWdPxpT64pMd7TCuslT8t+WtuPKJdeoGyzA/LlNHKnxJopN1ES+Sn80a2KrgQuBAnrvnjD/G8XI4wg6ZOZcBVTjW54HFwBPuV5YQMXc9rfGURTGAjdrBS0RQ5oFTqKfXNeP8o5Mb76KyzT05XPfcBv3IYzpakBVFbw/I54HWngw6ehgwkOqhJtGqOKLu2hhS056gqGz9od9/fI/BuOvYXT4sEdHndhc1pTHr/hVIVQQX14m4qQ/0FHrCMQIBrIw53C2ujiElWfxh2AqcdfJxKClxsgQf7Hnem30mlsOHLnLXBhCYeYNd70w+q9esxbfnrMVfGtmVvIyy4bxRClOoqQgAoO2BTsGG3YgsqDa+MYxNMX0bXCWsGqEpQi65Tgo7rvz3i6Zg9gR7umoHXvhAi3zjhc346ZtJpLF2zLL8sshxi1hVxqeuV7PAtc9L8H3fjyeK7avXC9N6ThSE5ql0TgkdexgMjGpKpcxNCJ1h0hKDUHgtamjdPHxt/0GYNj7w2fLvt3Vl8bXnQ4AQD0M/His/CPrGR0dvHm09mQJIUBqmFItpakwWBNMExwO2AQZphZDrKXjx6OnjcNakIKB8Z3nebcmhI5XGhY8uxaaKEXpTMUUvRYA4AqwC4NOYQq1AUKz/U9Xr8Pn9RmL3qU7Xbj/ged5FO3pe7DLP0APf9/cJ714w9vPdRUtw9SvdeKOrSrgLIV6Qha9pzVropFXxmi0RBcFRlIIJ61NOCzCJGOZLKHJ2nNrXxWzKQCrkxRtmj8FXDxlVZC8GRvFUNo/TH1iFNzd3i6fIiKBCJ0ZlOfW1Qa/i12RdpB6UJ0Bfg31+eQChMQE7yiNeAxI90VjmDDosqiQUaLFrgwyi0VkaaJO209zxiZkKLh7az6dL4PTdQ+sxYUS9wtybOjP45guEi5ZTFNq7GKTaAvIEwKA9lUWO2+wk1FWD/pROWV0NiqYSqicXjMK/RTKUNFFHjKnGy+cmQeUDQ3LQvdiaymNjd5Jl4gv/WIIXe4ZwHj9ygYeVOtKLAgQuMSfEnR/jSnrwu1FrcNIJx7mS+WzP8x5zLdzXcq5rV1u/7/sfAfBnW+Ovvf4GTnujGq2ZcOFH0xFrfhMKoZLBqIjBdTACgJRdHGHQot21YUlSoxmSAnT4lPS8JddGUAAnTa7Do+cPzBMLDt0vFPnX2g6c8+BqGrhJE9qn+TWYXK31ke3TgEH4pFjAIcsnWwfD8jZ9I0cx2gFSCGQcd7T2PAh8cCQVVKNZTwRQSNZvEmT6g8OHYvQwNfJ+4YZm/Piddk4BcNyp6ANiwgqf5MEuLGvrySJIZ+AIBDiXjBYoGN8TQEH52abYpA8oBtDseG8+bAS+sr/x7j3X5b5Dy6VyPla05ZBLDNSF9n722vv4/dYwl0BMpoEHFL5fsxwfO3ImRu/i5NZ5xfM846nB/iK2TQQZ2/F9/yYA37R15ndPvoyrltUrEkBonLAQWPMgWBMkcSZM0WRBdtuVKEE5SeDpLA4CILJRywQ8AsYeVF6Kf1y0Gw4cveNTJ9t7u30lvvfqVtzyOsu4aDLRcZcgGSwExc2bDsHpBYdSb7GKn5fPjndBFNo06SuBXJaCsnpUooPDEYa/i6mEo2hFOdFRsRY5HZ+I/S64VExPwUKktyz85JhRGDxIXQ9/eXEh/tURAgeFTMG4jXzj+ehiwCCVRZbxns33bLB8WBOh2ExQCTISqaRlUK6IERAYCOB5GFFVipfPHYfpAzzGaU1nDs1pCR2EVuO731qN29aUA7Jfv1h6ksssWj8E81qCT4+shQ5mbgAAIABJREFUaMHNE7tw+KGzXIXp1Z7n3eVaeHvKucpUbRu+798HwOoH+dK9L+NHG0PzH79TLlgqHfMgkC4GnQ/TImckgU2dt0x8tXQsZbEEFMrrGM7BxXDLsWPxmQOdzshuD298YN8e8scVWNbEnVsm5seoqKVYugRx0BLbOnfS/Fh992F5ekefVOgEAGT+IIEJNVXFAh5JYVvbDwpYL2OKdRBfoS42KHofIgUCMCRyPbEg/Pz40ajRZJ371XMLMZeZmV2uc5YQWVdvrhBjEBxZ5B9OIdgAgwXwWHwpFh86v1BMgIBjTBuA0by/dPc63H3i6A9MHhTb0OauDDb3iKtZXoPvbmnDla+0itfFyw31K2Aw7AQ4IFiFHO6sW4qLT56N6mqnUyPPeJ53crE06mt5q4w0Vez7/gIA+9kav+zu+bhnc6U9YyWrSGOBFDupRwpxGUOsQjAvjoDENigSeNMWBY+ZTJmwkV0LevGj7cG4unIsuHIG6nbiTGfywG6ZuxXfe2UrCldMFuijKhIXRnUpw9pOyikIQEtzasOdFOYVJSdhi1XoUcc4/WODui6+87gOIUZDU3PUbkygYvMg6HtLz4uIqEhgxZm+qbruOnVX4YbQqCfXP/QatlQFqd1NwS58valsDq0plhqZzaU0nwpQML3nFbhJYfAZ/jQaWlBcpvcSYCD4Tzg+ZAMMYZWf26cePz6CBf0NrGdrKodTntyAL8+sxYxdgk0oxUfvNbThsjlNyJVzLgeRMSQ+KYaeZkuMXrAAn6lag2v3Go49Zkx3Jexpnuf93bXw9pZzlanadnzf7wJgtXMf/6d38a8GtSlhIg0WAmEnL/eE3znqe6mcS6eAIv+5C2GCMjpAoA+qVOokGjG1/T8HjMBtx+6cSUwoZl3Zksahf1yBTLRTiwSbBKTE2/5kJJnU7jJ3gr6IP+UUlsY3bJPTSZ0qwInlkMvdCVE3+PEbVjoJeIhvEsBjQDBkHgRVo7hZTOj5ihRWEHwYZhjVKS4liDIZ4O/PmKQd7ZcfehNNVZK1jZjI3mwOLd0Z9GotBg5AwCVq3RZzUGjGFVlKnK4VMKZYCRGgKQSMuxFU/J2Dh+GGg9hJtIHzfHROI/68shNePosf7FGCk/bcldLFhd8bOlM4+8m1SFUO1rjwJLqb6KlrxWX+OcB5aFkrvjNiM04+8XhXgv7B87yPuRbuj3KuslRpy/d9Zg/pdunEzLuWYGlbXnT2WWMHgprjDjoBiGiCuV7JLg3ZWqiOTDqmRpskiiWePZiMjZdvj8uF7zP6leDpCyfjqJ3wWKONT675+3rcv7yVLOZCa72i1Cg0qhVCIbsqYJsLOWqWBBrcIPXjFQWYlSaSwCLLx4Cs2DwItlmV1jAf5c1PS5wHgaeQiqRUeR24GLyeDvzugr2FzkRlP/fQW2ivHh6+01Mgk8uhtSeLnozGYmBzIdh24P0WpFik5YBUkxbTt6W/3zlo6IABCcqdC34e39wti/P2m6zlBf7Ho+59Fx3VkkVECwgMsUBFAoK4fQ8Y7mXwk0FLcPoxh6N+iFNaa6ZrD/M8b6HbquufUlYZQzXj+z6D5dtcujHuziXYxB0/icWADigr+tgxD4IVcCQVJ0FY5oyKLsTRB1FyA5PuhhBORxB5GKh2DxtXi39dMtWF5Dtdmb+vasclj64RXbLCAjTkF5BG6zJvAfjkGVCzw5U3FDp+VUSRpp+a74x9DMsXgvZMCihWe7pxaFggqpdEKOI3avsyQZJgfhvDBU1S9A6BidygTDfCglDd1YBfXHywVil86uGFSFXogxSzOb9wKqG7N7wjhJxfjnA7GhDEFgRi/kyqT6vg+s+CEDX9qb2G4OezP9wYqAdWd+Ei/sbGAnsxwJjHqeVb8L0zA36g1llPuhcXPLECG0uH0a4nEz11DO8IGBi3/7BmKc7ca1fMmD7NtnSi99/zPM96IMC1MtdyrrJUqc/3fQbTVrk0NPrOJWBnVOWo7ELj9AadB1xJM7IcDy0CyUCIApHlTnPrrDwGkSiG+lwGz5UpeodZ+DZp/4dHj8Xn/o2CE2XyHXvPSry1JaVd1W6MajpOl7Sm1Y9a03agGMhbGjX60oUlyJgGsj4amWjpEhdXvxPKWxVwVCBCIqKCtwZtxgAmooqCUER1F1UvpLpWKZrMX/DBxFwjvnNWcvMdP8ZPPrIEvRUskVii2bP5PDp6suhkwEBQ+HoAZEydvL2AwZjwgacbL0go4BiOnFwsZvoLt8NSCjDs78yhFXj2jDEY+yGkd79reSeufqmRDjbwgIMy6/GLcw9GeRl95X02m8MZDy3G1sgFVSzAcgQEskC7qnI9rhiTxdGzj3ARF6zMytB6wO5e+EAfN7mr6ZJrkiT26chfLEUjS0UqAYJ4w2AZshlI8JYBXUfVjYugIOJPRCAgWgb0HSyWeFr+00RlCoKXs0DMv3I6Zg53uh/8A2Wi/mrsK89vwq/ebtJo8uAnV3on5USFZs0HoChMcWTmeoMOUsfw+JpIgCIN0MW3b6SLgg+CH+i8BdJ4ZURL4BR6XpIPFNcZApdZEjRM5UEwuBrC6o8d2oOPHjFDyx9XP7YCubLKwsB6c7lCSmR2oZLwGBWqifEsCjfW7wTh4vfKfyQM32cAYzomawMKfNCkZnWH9KotK8XPZg/HldO5tMb9JQyIes58ZhueWBd6tmOy6ifwAGzFL07fB5UV+jtqoq/OvHcB1ldzpzSKBQpFJEg6vKwFXx+yAScefwwqKwO+dHj+x/O8XziU6/cirjJXadj3/cMBvOLSo/qfLUUbQ+uxwDEIfGnDXhC4lkcYhClWQbt1kxqwH3KIexO0q7MwyIopHK8jtXXFJg2pwNKrZthIsVO/v2dpC/77aT5vPqVg9ISk1rXWclWglDRPhInHfoqB4OdiFSrXkAurqN01KyJr+bCAmKmQ4m8XwBYCkij40KiIfRRO+Zge4hTG+ePyOFPyO0fVfPzJ1UhlgfaeLNIsw1GfFG5Ym20c1h2lg+JV+scRhAB88UwYF0AfouyjpuN6pQbC/rDgxY9Nr8Oug3bcZXHPb+7Bp19txpKWXoPlQOX/kZ2b8MxHEuuSMiQWSNebxn89uhjvVUY3BoTjJJcT917HrwSyn1iawg9rluGkow7HsGHOyafu8zzvkg9LsLvIIW3ffN9nN6PMd+n40J8uRmshAEh8CnRkYN4mF/jPFHmliS0wdYoHAMa7GCjTsjiOYgkolHdSIMH4LpoxBH88baILuXfaMsua0jjkTyuS/kv0sdM6VEiW2xRjISHjOLkBpX1Nh4jQBbOi4ywNBhO1VaFHektZWOZjc4K817ZPKHZiAuzzEi3xcMEJlgPd+g1rFI67imzB47tPTivHYdPUkz3smOJZ97+HjHBZAjdgowL4gDIlxjEHmonYkYDA5hpxyBvBC+7hVaX4+Iy6AlDYY2j/XRz3TlMv7lnVhZ8sakePnCbRBZABGN7diEfOnY5BYZ4MHb/mcnl89OG3sbh8jEYfWQBBpMCoheB5qEcGt9UuwVH7THO9a4GxOHPhn+h5npMrf0cIfpe1TQEE5yDF0b9YjK0sD06B4RMN7dS4NfiQ2L1Fveb0uShwHWML6GI2XBP2gBOAUtBdsoOVgJOG4rceMxafPmDgnUPub6ac8kvOHVWoPKCfC6+4x3gQyCBqRHrtcvqE9dSueCleDRuUBmAdsy2vQYyEEkNXUCehGcOgyGS8OjoZFHrMDNx4jMc6+XHTG8Oku3yMScJ539i/BruPFYPmWM1bu7K47JH3ScCpDYoyAKboummSGa0KK0nspF03NgZSGEIDWIWKRfqSa5Vi8Lh6gl80AKaq1MMXpnq4/siJGFRm5WCyS4+s7cY973fh/lXsJH2EhG30o/tZm2rBc+dNQ1VFudIm38tL//Y2lpSF7gYKQLpYkrhWKr08bqpajhOmjsT++7Hri5yfSzzPY8kIP7Sn7zNY0PU+U/tWR8r4n7+LjWm1KS1fahSyaycL5RQXg1qhsA5l0ofF3e9iKMLFILdFDEz384uXTsXBY6wpJz40Ruqvhi98ZA2eWdMRzqOooIoOiiNwAK83xX6Lii1WBHr9bZbxBj1s5edQ0Yh5H2gKJ7iCkmiRgJVPHRAEisbrfIqC6luSaKkQg2BBcLFrg7qsKZ4HcZw/OWo4htQlN5pG9F3a2INPP71GNVGSExC+ML53SGRhQ6rOQMCgmCkgYLMM2N6bb8lyyuw4Lt2ARy4/CJUlHurKPQwqR+H/2d+6hxkGFjSm8XZTLxY09WJeA/vXYwxCDOqxCVDxfWW6DXMv3sMIELp7e3Hxo0uxrpJdgscvfE3PHQBhGfL4RvUKnDKhDoceIp60scjMH3me96X+kqt9rccqq0wV+77Poiutd1NOvnMh1qRKlfkMGjds0U3eB+4z10EIgEQBEslIxfocLQ3R5yaLg0NHxSLsr+DYReqLe/V1jneq7374+jb84PXw9CwnH5VrtXXr1XZsMdKTFHCwyRsdwJMs1mZiBw27BAkKXYn7KyoMmx4TFTKREplXGFEMgpGOyQdJ+5wgJSzloj6TbmukgjttFhUPyGWz+M3J41EVBnzxNHl1Qxe+9cIG8zE2m8I0vbcqEIcMiUL9EiBQ8IHtvQR9bfJmeywHsYJWXTZjexvx6GXMAy0+DC6e8dAylNcNwaByBh5KCpcrLWjsDS5ZovprM+FRgExDv/LeTjxywiiMGzpEbI5rg93YefwDi9BUJedJMN8yqkvh+I2q93Da+CocftghxcjhlwGc4HleupiPdkRZGwsZ2/R9/3kAx9g6dsCvF2BBJzPtRDMW4j8CIAv1hbcr29pQ8CQJALjYghgB6msvEMeMXzQ8bbYoBNHckaZyAuSFwqkvFmWaciHXgCxTAAivMYAQ+YB5l5SFXXnAL09DXwAFn2nYHiojTKtOfvJd0I9EAgC29cGP19ZgtECEDTDRQFTvdlsQkg4G49UhM94FpyG4AGAitvCQzmTRmc4hnUrhqSv2RFlpmbIWfzt3Le5ZmUpmzkZPmy/ZBgjidW1pKJ58A/1180lWawZoCWPa1o+ZH1wzPI7pbcZjl+0vrLio5SP+ugjpKuryLEkwmgBMTB/twuYELPc+HF5Zpguvnj81sWhw7fAUOu7BpWgsZ9dFE3SzWBC+VrUSp40tx+wjWTy/88NAAQMHDCR86M/2AgR21TO78tn4nP7nBXiqoUKfByH+kt7SGztZjEtAx/9Wlwat8I0poKNx8ZYOKrW9RD3deFNfFDPF2Wi+s74vAIS52xRgZleoAaGNdxMoClVDeNMOWKffJPljpntQgdGCwG/I4vbohgW6KPytMryxPAk4JMEdKkqvcKlIlFiEDm1I2jRPQLwRjIGJ1H/fRyqTQ2dPDr3sRIIHlPV04KmPH4RSjRD/yF9ex2ZvaB8sCEUo3O1NnfyhWBAsC2E7AczoTBMevzQBCDzPHfGXd5GuCS/uS5BL8F+UoLdaCGzAhuff4L+ZJeGVCCQQAKGtJ43Tn1yH9vLQfeUYezDIy+Lrle/h8F0qMfuIw1FaarumVJAaX/I870cDRX5vL0D4AYCv2QbzP4+8i1+skonkI/Gx2sWqFkdEfBG+dBqMfIqB29AH1ciKRikgsrXZYBBUR/Wv0GFZI+lPT/yfAggFC4KUk9/uwtbQWadYORM5IVeoCVP4S/O9Cw8qCpOQjIrOIwCDK+CIELr29kUdMHIZjCDXZcWaEEibcbRwmiHMh6DTDyFQyPt+IdshsxjkpHsSarsb8NgnZmsFyEl/WIBceQ0Zkyn4mK2uBAcTUj+awpVLorT9CyeInCcbELAF/Tm4SATKBx0ZmWnGU5cGd/jJXTvyLwvRU0Mc8XPw6fN5M5RJNwEJTT/LM5145PjRGD9sMIlNUjkfsx9ZhV7GR7Egp10NI0vSuKFqBfYfNxSHzDq4WHBwo+d537Hp0w/yvaMI0HfJ9/1PAfi5rcM/e2E5PjM/G9zSxxB3EQpdn8pYbNE4CH4H7zhaoZgBAMT8KHTHYHHQf6DyOf9LWF3qC/9HLAhzWQxCg+Lb0U6dpP9tsWFWvosa0dVrY/L4rIVR02iFZlw1l0HQhVXV8ZoRj5U+1hgE0WJgrS+yNNgUZyQPpGON7JhiZ0+mYDUoiA1leB5m5rfgp1ccrdUVx/9psf56374qVF5BmPghrp9oSHhvMlkRHEv132WHa7sboh8yOw7uacFzl++rVboCQPj/7H0HmBzF0fbbe0EBTogskaMwAoR0QULIYIIBA0YkixwMGPhMcOCz/RtsYxuM/eGAbWxjjLFNMjmbILIAg8IFCQmEBBIgiaAs3UmnC7s7/T+9O7PbM9M9XT27dzpOMzw8knZ6uqurq6verq6u7il6dfxVyE9V9zo0TRoReUpqVUcGR0/+BGk34ZYamAB7ptpxzcD3MWbPnWxPK4gq+xw4UAE8ghosFuGcTwTwhOmjtz/8BAc8Fr6IJ69gzJmJrACAfsEfBiai4ojUy/l2VQZfApOmzgc+j3sXwyblQVAEKdKENa8BypYaOaBQfAYxAgfo5VVeUZsEJ59oUPbg65bCJnsT/M5cPk+bGQC45WTDqTFA+Ta9Fa16ry2/QSS2ERy0d2bQ7ctfoOAXA/53/2ocd+AevpeCbuF1+PK972nusggOrG4sPHoNcM3EKBPDQ9UHflC+76U8DVGQVtOvmu41eOWsA5VMPe6+WVg+wLs8K1CEAhgi8zNoALIBMFR3r8fUr+2NqohEXU2LV+Ki5o484FQA3gMr2vCDge+jftRIjNjb+r6cPgkOaDo3Qo9xzsXdmotMqq59wwbscvt7WO1Ui5lb8CQQF9QBdKc22OQVl/VdDPre5dqMxg8hxaUGRLJgCwNX0LhuA8Cyy/fDkGqrvSzTsPTJ9/kYBOFB8D85nvjZZIhpMYybqj7jbY4qqooCEP8YpmyIpC2QKLvlKu6wh036SKEvI+eJ+zIsf15F/kRHxmOYrss4Xy7iEQbdcdDe7aC9K5sz7v6JE9yJK9b372OHYdhW+aA3uZnZS1bhO6+JtN1yUEfUHQblMLgEl3yPxRwQ6Y8chwgDG6I7IGfSP2u6WvHKWWqP5ykPvYXFFQIglEAvGXApgKCG/9Wd6/D8sTtiqyGbhUTP+2HBugxOfmW5i9xdgRMnHqpW4srNP8EXDz4IW29tfR12nzjOaFQ1ca0F53w+AOOVVGNva0Jj+yD/njzFqvtWhEY9Ey4gG3D3rU++NFWGSFMAAfoWQ76RUFCjpv++n912nzpldxy5a/Gsd9zx6uvfTXzkI7z6cbvSsxQywBrAYLJHHg+04qda4BK2oD3MoUYyRc5r2y3YYfcaY8rKlHIqQe4w4Ri/OVhfAjTiumUtw71yKbBCrIHf9SLSH7d3ZdCZS8Vub2BfOGsEUm77Mhn3TV+Avy9w738psF5CQNo9fYLhKvBTY1DJ7wMDI5+iiEWfDDSjAFmE4jEBARPAAbB5dxumnKk+ln3qQ7OwKAcQvNlCEEidfFHkRWXuNd0f2rkGr52+X1BafDVMXrgC338nU0CjR1StwNXbrcWECQdh0EDre3LuZoyd15d1MslER3WAcy4ukfimqZPffXQm/rDYn1Mp33jA8gZWDxQClfXI0YGeOFIqM+94RApQFB+ULmrVFoSvhXyBaw/eFlePE8k7+vez863z0OZdvyt1lTJ0oTK2AEJTgXbLIjAURhpNK2qpgtxfQ/bH/0NkfxViQqLPB8ijUiMrgs41QWbBdh2xjdCdRXuXg4wjjLgJKasNcSrbiRfOy7uygzbkxhfewXMrqgzXZZsMqum9ZOcKBi+K8RpAYRpI7cAZ6NOMR1i9lAAYFAZ4cHodXjtjpFJRnf5gMxZWba9WYuWgVzUOFvzdpmM5Xj5dHT/hTclfvz4fd63dArWVa/GHXdtw8EFjUVGhvzVSo7EnM8aO7eva3KgzTB3gnE8C8KCpXNM772PcC93IbSvKcm2M6VLtKWvkKxLJaNqNtZdcbCiUwCcUA+FHAD6XcGFC+AlXDcrEvYbggRP6910MTUs7cOT9IjWuJCDSnnYkwLIEE95kD+k3WR4C+tw8WfIfUBJD++oqtONHNPnMggr7qaUrwgAFPO2m+VowuoSVrMmBIKy3kPt0FjlvQSHoMEgE0WPi4Yntsmtx//kHKbvyvf+8g5a24OVBLtfjGlyvJd94aQBBjm+08aDvlZkAi+m9B2hKAAQED0JVegOmnhG+WE60+s0nZ2NGxjvFYAI4skcpJp8VAEYfkZjnywF8Be44fiSqq/zyI3Pt68/Nx0+Gt2Hil9TyZ5hfDzPGhN3s849Z5xm6wDnfCcASU09FHMKBd8zHwq4BhQWDv3FX8jyDIF1zTCGyWEYfFGDSP/L8L/QnIsaAQpfMF2X7UVsXkn7ZY4tqvHOBcSfHNAx9+v2tb63C/5uyVLmgJPFazsgX5CsFQIT0uWzwjUg2rHci64tQePKdCFEKOYgdCEyKLFLQ195fvOuYQ5ZREQyqWMa7n3V0Z3LHFHO5C6IMp6qZ3G9qqvdwVuD2876olOlT75mJNanNooMUKUFxUVH/IYURYXgL/VDIUegzLQL099W44rY5xqiRR2u6gcpsF6ad5g/U87p407SP8O/PNLc+Gvuj1NBFwgt8DDBUx9+I8R/nfIbbTypmg/RVwYA/Pv0afn/yOGw22Dr9/W8YYz/o04qYoittOsA5nwHAmGj60vum47alNW7VgTwIilgBgzgU6vGf7w4t4UNdUcqRytXvzVMNMwj62PdlrrzcjhwUJ/2uBE7geOeCfbDH0PLdlGYzxr1R9pvPf4J7564t2gPTPDeNi6xnFYDBOH6h9g0VmuIUCgZYawn98qKSj5DC1qRQjhgwY7/db/1BiPq9+bD+ZUhnnNxpBLGVEAo6LHQ/hKACBlAVnFg0sOOrl+OG09Q5EPJHHEX2VkpMgdsDE2NMKwydgdIqMpOAE4GCOWgkT0HJe/kKehR4J+VkMGNS8WSJ3Mu/zPgI//xYAIQSYw9UwCUkTiZ6o/l7eGopbv7qGD88ZcD6jg5s+GwxDq9Vb6NETL3LGWNiS/5z85imBKkjnHOR+em7psLN78zDhJccdAmhIt/SqIhRCBhuaify8yPCJeApRlNH5HKq6oJ2pKBwaRXr+nPrUTvi/P3I94jTGusjpcRVrmPvXoBFbd1FiiQ+0u5ioHWmyN/AQGkUqFG+CobfsGILyldQoUkGqKSMkCbgFHrvEpLKewxCwCB0fCSPXIJbIAIICG+BAAUih4Ex6DBIh8/Aalba0s+X757GqQerg+GOEEccdf00RbEa39sHU/pI0eIiCagQtnaiMw9GzAUykIlhYHPrMwdNp+6qJO/OlsW4eVHgNFZcz4ESEEj9pgAG1cBI4//j3TI44wDhJC+i/8lzFuKiUdtj6BZuymiz2hFn/M9ijD1rLtq3Shh1H4VcahxCZ2cnjrxzFt7cMCTP79wABqICpa2FAjCmEFEYPwsAoJ2okjwYqrNloK+8qn1VkKRb7vBdNsczp+5G5Mbnq9jD81tx0eSP/URHA/xo/R+xxeB9aBw7n+IKxsLo+au3c8UORbbtAY6y5UEIs5UiHUycC/eOJWs/YOhOZ3NbCJ0ZsYVAWRnKIxCxdRNikl8gHjtxJ2xR4z+WJmpe0taN8//zYV7BRO4MFZBdNDsKzWpGzffeDGyUMQexAAGVfoqi8yygRAjFwGrobj51ZyVPH33nY9wgzr1FeRCsAEyZAIGO/9zB/+2dwVf3Eyf6888DM+bhuqOLpx0Mc6kJwHmMsXcpc66vlTHqSArB1DgEUdftL8zAxXPFNoN73j9ia0GtyBUeBZNr161I7SEMIwAqU0jl5K2DEu5i8Hjx9Cm74Yhd+t9xx/OeWYInFrapE1eJ2AKCIJrL5DUe5TZFuTm9nZI9BrTgxJwa1inewAuDfcyRaO5zFDiQDIyQU3dhV6xTJtQrkE+NnM3mtw9EwGEw/XGhRcrK0KeYNYZM8/PkSXugulpsIxQfUfT3L8zGkyvkI2eBfuqYZqK3oJBiGly1QgsfV9EOqgkQGN7HAjIB5oa4HQAU7vvXTtgRm1X5PQWCvZPnfYJr5ubcDNKglRN4meiNmjRq/jEngwfHDca+w7fKzbd/N87HDUeRthemADiWMdZJUF99soitftF2gnN+p0BKpl5+tnQZjnxsCd7tHJzPFBeQlfD3gZWb7GEIFKZ1JnCbo4YASl25MjZbDMHORcwLHR/P229L/O2oHU1s/ly9X7CmO7e9kPWOuHqKLLAHb9oC1upfDTfUxxct9trlBnNywMCUmUH9A134l87OuIZKm4go8B1FVoNGVMkSz0DmUj6Ht6wdJ39ZUmfaycUY5FfovecxkHc6BnesxlPfGB8yV+KH0++YiuXVqmx9RKAQCwgoOKoEggEDFgWQtDjEBBTcNkwTxuqURZThDcw8Bjxz7HBsP6gYjOh57d/8cBmumJlWz8hS6FVKgscHjeK14G9FugP/PX5HDBlYjfua3sP1X96XomOnMMYOpxTsq2VsdUsUQDgSwIuUjv7q8f/imkVbu6sfjQ/f/Tm392x4/J1wP5RPQ8jzxVSZcVVWpJd0m6M8rwjcDpkS36kOhgEpoPGcvbH3lv0nWPH3TSvxszeXRS6H1ayTZ3iMLQCN3ij8rDTUep91iEalgSB4MOTTGBHyShCngNo0GEhXQRfkmqXgZDm6MtmctyB3CiHq6UXAcPz2afzvl9VJbY6/cxY25C5p6oktBsqWCBX5m5Ce6b2k2Eq9VTJXlcZiKgVbX1zUc8cXh+KA7fKeTjmk491PV+Lsae6C2hjrYaLH8n0kIIhQ/O682LxzLaZP+kICEAg2VFmEc/40gONM3y9dthxffGQJPkgPyruUIzWdJg+CYmuCpjADHgTfis9POaU+Y5kA/vEBHm/LIVCJqc6lLEmYAAAgAElEQVQfH7QdfnRQ/0iatLIjgxMfXYS3V3aGExAqbhM2yZan5gyWTH1MTwUY1B7UfElbACCDxYjvC6dyggbOpA8pzFFOtzBw6Mxk0dntoEskL9DyRatxI/kTmvAaPkaVu+GgIRi/5/DCMMgkHnHPPHARcKkj3GiYDOfvvXqNK14V44JCIJchAgKrUwtRMRFUgSIqKElev7VzN85v2DN0cGLNunYc+fxq9YkKIz8t6Y0EBFGnW6T5EBjCvdLLceauA3Fd4kEgahupGOf8dAD3U7687dk3cdn7W+ZioPKP3pPgkxuNR6EowooYBW+8NQbZMI0Dr1UeBP9KVtd/k/wX9A6BgU+f3D9iEa546VPc/c4ajUEpMiI/vkE+hzWACVx5tShZXAAk/nYoiY9y9arIU9CtrS8GIKL0V048VTgNEpRqjpyHoDOdRVe3yHXoKVDiFoK7xRIZFWgDBJQD5FbAgSdP2QWbDx4UWlt8vC6Nc//zEe14YyyPhwZ3hMY5AAR0QXBBsfZVHwZuarYQgFqBPgv6KStuTb9OqFmDnx8dvo9BHBH80tPLwVMVvXDsUgG4TOOgYnBAcV+yYxZ/O0IdhBn4PNliCPKTcz4dwFiTjWttbcNJD7yDVzsCR0UUOCFaCQYMtuIUhBYARFSsBRxSzAJNOQeNXEBxRM1XHW5iwLhhgzH5a7tjYIUtFaaR6b33/5izGt995TNTYrMCQeae5hVC2VIjBy5volzG5KNRu+DRIgkfUCrE6Bg6buaLx0I/fxyk0NWdgbgPQZxE0O7m2RjSEoIOzZ6FfD8q0p147twDUFER9hK8smgdrnvjM7fDRANbYA/B0BaAkGbixo4piHLZe90xbJmYxqnQPY3EhH4O/KB8r16JH1S5GrecGL7RUVRR98ACOFVSEKnOo+OjV+MJCQGqKP0qyUMUANXSk4+5uWTEZvjbQUMpijIBCAqAcDmAP1O491rzHEycCrQ5ldpgxfBtdQE1RsynkAPqPgFXxCp4e84U4k07Iyr9kWvfHNUYNnB+BZ+/9onju7Xb4IZDhhGp7VvFZi7vwMTHFqO1K1M06BEuFooRNJYxxRTY6M3gMObkwWBgJD2vTaEsmTbTiIXJjV4xibfCY5fzEqSz6BaBhrnH1pAa8gCExdXfThASatmm7s+AjtV45qJxhUuaZD5d+/x7eH2VCVGZ3lv0T+afql8hAxa1ZyUzjqBgjFslBMBToD9gWOOstCU52qFjGZ46u05pvsfePw/pAV7CPFW7pomoRd6BKePWoxtuU4yKBnBdOmIz3DqOlAMhAQgKgCBGfhYA/yXtCm2XyWRw42Ov49pPt3dXL97AS4WtL0/SbzGE8ipQ54+Pdn/9RgCjFlmfXjbqFY2lOHqbTvzllFrsNOjzdw30iY99hFeWtBd6ppzDIfsg/6ADWvSjf7oFUWE8fAqCcIxRXqBoFWz+Bam/NLxhPOooTh+ImIKuNJDOFG+iMwEQ8imFgF2LvHypZA8Dx4j0J/jb149QGp8j7nwLTtUgd35RT1kQFAF1C0VJlQ71KQCQclBMK1+vflM/TO81yM4E4BRAZUjnakw5271IK9CnL94zG+2DtzKfgim0WyZA4M2USMAQsaXmLmAu2TvxIBh1R1QBzvnPAPyUUsmq1WtwwWNz8VS7e4+2rPeV80odq2C+NEl/d0q+GdVWhadgAgt/3Xw3dJgWg6Bzkfv7vXvlOvzoq7XYoophwjaV2LLasCqiDEYvlbnypU9x5zsiuVgRJ+X+FqG/KL0LxwD48xT4U3IrOqtbuKhwSYhgw+kEafi0C79A+6Q+y3RIgCaTO32QDzLM6E4fmFzSQRaZFLbGvkRGxxuAlEoubhpfgzG75wMUgzJ0mMigaHARx045TBVY7cBJK9qofsdc2ZInVIE+G8NL8HxIdFd0b0DjGfm7Y4LsOO7eFnw2SHGjo0lB+uhWDL6PAXb0KlWfRo5yWwyJByG+teCciyWtSBKhTpQeqHruu/PwtVfWY146nBVNvacsVSArXhLJqlMMYc+//fFKXeMB4CFvMSij2twEUhF9qch04c8nj0SVe8XoZpV5kLDtAIpJITGpxwpdN3U5ftu4MgzIgnyhbDlqqIzUzz69obH8Jr0ZARjCHqUwkSY9SA1SD9qrdFYAgjwoyCUvMhmaEACgrrgtXPAUj0HI8GqQhuC7w/HcacUESfJYz/hgKX4wrU0PEELVmlbUpvfRd0XoAa8JKLiEmgCc8X2clNBRhpXu8WCZbvz35B0xuHpAaAJc+vhMzODb6vdQdAAmNBwKekwxICqdYZonAaBwyd6DkxiEUi0E5/zLAF6g1vPMq9NwwZzBWOEEMqOpHQa+av0GQfOB0Jeay5FCejKS6ChPg8HjQLDf/iIKS8Qd/Oro3bHtZn4+iWDFCdtUYNjAvrvdcMus1fjha0tD3NUtDGQFm/cQqT0C3hqFwF7/iibI3kBQYvgSsOgWjIbf0/s6+ZKqV7cUNlgijkDkKehOO/pLkQqGkQgAbMubFLfG3hfZYFL0xZIDutow+YJ6/zi6r3/74hw8JWdQNBnQEDAhAAJly7qBpRvUqGoLvS9rzAEFgZvod9+rDCx38Npx26JmkLvdI8n8Ta+/h7tXbma+q0MpV1JFoUliQa9yDkr9UQKJPOC6aK9BuH086U6cJAYhypZyzn8J4GoKSMhms/jX5DfwrYVbozPngPAeTR6E4mtfjJU5M6Pk8srJg/4uiILCj+gA1SiFdJH4QdW+Mgq/+PUhQ9bj/CPGKI1sJQO2z67Dl3ZXZZGjjELPlXlg3lpc/Pyn2iBNJR9N811DrtIxU9DAOo+OorJg+wb7QdrCcJunyI0KcAjPgAAD4kiiOHngfyIUdtTQFvpFMJC2HgFKeS0zwgKwZ3Ylbj/3YKU9verJOWhZL66TN3DXhORs+OHjqwnomN4Hh7OcpxaogKAUA+wBpTzdkw/fHNtvFY72f7c1jbNeXtYzHgTTeCgNv528XLBbNf55yDYUZZkABANAEGdZxFbDOAo3u7u7cdNTU/HTj7dFWtq58g2fxkGgH2LJIBRWFNGXOlKUt2ffjacSpGOXOQ+GMTGUPsiupnM1fn+Gn5UyrW++vRB3LHTwuy8Nx6UHujEdFMb3cJkbZ6zADdNWhFvx7Jn3JnRXRXHFS3HdF8ckukNaAKHxUETe3UCJLVCYcSWFSvvBkM4KD4H4H8g6Wfutgzh7FtSgPAoAkNExpXwEYDhq0HL86OQJSvYdfecsdFdL25QmD4JphSrTHQKYAUNKjaWIY8AKdNgZshCTCp9r6lGuyKMzJkZduvS7/RiO2CecFn5DhmPCfz7tOQ+CdsvA5CEweNjcz8/frQp3HCK2SIxPAhBMLOKcHw/gKVM5731XVxd+/dR0/OKTbfIgwXiKIWKPX1SqABSmBYTf0KgQSV5ScoZDlXdBVjzic/fRzb8gb1TTl2XTuHniPhhUVRFSMeKHjMNx2aNz4VTmUzCfO3Iorp+wPbYbXMyHTh2DcpVrWtqBX0xbgZcXr4+sUqv2jHcxWAYhmgx10GAECDMeYyxTimRxU3I6t20grk12ciKmfEwGUMd1ygTwJgHFoMsCTilv4TEIHgd96Ljtse3Q8BGztMNx1AMLNHyiZkbUztT8CyWgCOzZRwEFyl436W4LE1DQDEiv0F90DFy5czcubAgfZhNkjHl0MTjz6zLFLWZFviu1XpRiJcTgUMZDcR753J1TuOsw0vHyBCBQjAnn/HcArqKUFWXEtdC//s903PjZ1uhEQIgUlVA8DLn5rZxXYQBAro/aIU+Oye1LM9lVGCfvkMbxDf4LQuTqrrp/GtoGbeMDRPttMwDXH7w9vrJ779/+ePPMVbhh2src5T4RKQb9tytG6D2KV0cT8xncU9InUgo2Ii84gmJiksMI2Qg2I5xK4vIj8X93OgOHSw0rDY7W8tMyCAY/L4hbyIL4S5oMjLZeLYLQGABNeSeDF88cgUo3OFdu7sHmD3HL+9nyXB5F7acS8fciYPCNm0YgQ4BNKmfqp1Yc3I4bJuVXatbhV0epdVbDgwuQrh4cjPIMyIOGACXf43s6ChzRbU0V2sv/5ZxhGdz9ZVImxZcYYyIW73P7UPRuyZ3jnAvIL7YaRlMrEyDhgRen42eLhmBxVsq6FRG0mO+MOaoxV04UC7q0A8RRmKPOgxA08EWyfMcxiXcx7Iy1+OlJDUU5DtD58H9nY/LKcDCQV0zc3TBxzxrsv418BS51JOjlurIcj7zXhkffb8VzHxW9Blo+SmxSHlMVtwqKaHzxpzZDYtiCGsdNZfhV3Qys0CPtQcAuRHFNYL4cIMgKUBBxXXKoEgVwsAEQVI+DEjBENGQyNAZ8UOymZHgUze2fWoU/nxG4wdH95PQ7p2JpVWBf2GRAZbpyfycAJN+YBCQiNmBwK6WsaEu9lCnKw0OhXynY8oQqFtiHr8b9p44qcFb+9PAH3saaajfQz2eAo2IlAuNDATAmj45y3ocEw1fqgu068M9j9qQoxicZYydSCvbVMkZdWi7COecirdajAHah1ikSKU2dNgPXvQu83BEdNartiLxHTIoBiBEUKQuqzh0czNUfwQS5LyzThT+dsA8GVktXp0rfzvvoY/x2lrjoKIx4ilsgeQKP3b0GJ+5ZgxP3GoIh1eU77dCa5vjzjE/x4MJOfNDaVfAxUoXLpB881W26iqHYXnBA/JpES5fmlIsp5i1aneSxqAAEIh+BAAWZQgZDleUkuEYjgQPh7oRCs6otGopgqvgrfUdBhAR77I8+Bm46eChqdy3u/crjcvTds9FVKVakBvpz+oAKBDTlIvtHWMmaEvbI4xPZn3L3Q2GAQ4CIIJ8uf7foasWUM/ZTJvKa9PBbeL8ysI9vApqU91oAY76tMTLBlwRzrhzegZuPNOYBFF/cxxg7i2rv+mI5qg4vC+2c88MAPAaAlMjaa3T2nHdwe8tnuK11B1/wYpCoXGfMDgRXYFXBDZ4ESqJi9FjQWZNndnCpqdriKM6Eyw8YjDF77CCJp7+9bz44E+kBm0fGShb1Yd4gDNu8KgcUDt5hM9QPG4jdhthdHS0oXtPNsbabY1mXg483OJi18FPcPHtDnji3QfWdCLr+BgxM1EJCx3J5IaPcEvAbNm1MgVdMFQNhGG7xqThpIECASFYkAEHWccLjQ7Fk1BV/aCLEMPxUwxm1IisxhXLkpRxOFi+euXdhe0EGB+u7szj+4Q+KXKAAgFj9LdcK1iWVOr4mhGpC2Lr3WnwhTaQoD5WBfhE3NXPS7kpJv+yJFrzJvWRJGjMUi24DEIj0wBCCFAH8aJcu/OJQdb8Cnb2dMXYx3UL0vZK9ChBy5jEPEl5yHfxkjqxctQr3vfoWfvnZ1lie9Rs0aieU80wBAMj1+Qy+CkkUAYdkNyMvJZQTNO2YXomff+0gLTj41WPTsDAl3Kpqiqn9GLFlNRqGDcLYYYOwz1bhxCaCgKXtGbzz6Rocus9wtGZFUGS42V88ORMfOEMKYxpqX7XwlHGaJg+Bd/eE6TZHY39lAKGSPJOe0khrVngFBBhwvQSOPqowDBBttghs70zw6C3w3bDiDJXX/uACQfUWsmSpLfurH6ABnWvx7Nfrc/cvBOfxS4vX47o3wvk1ih4nQ7+p/IkU6Ki7E8pjcP39UQhjqJsmQGN6Hxh/yhZIgKxpx22LgQPC+vqmKXNx59rAOtEHCAILBl+9CrqV87nUY6Jqufn1nml8fzzJEf5Hxth3yEauDxY06tSeoNkFCa/Y1i22HJpmzsYf5rThqfXboCMQwKjsjGy3PeDuk3u9J6G4wpQoDeAASsZFuZ8+GpXyl9/iqEi3408njUR1ZT4hUrBvC5e34ldvLndfaCyve8qiqFClUxderd4pjFwbKYA7RResOJcpVr+5GIA8Fcdu1Y7TDhmlxCTtHV24cvIiIBedXGSU/5ig2iIqx06nByK66+dVdEGt8HufKa5f5sI74IhtAp7bMshks+BeUGFwD5toj0MGVV6Z2QAI6orUFgjYljf2m2gwC4xh2HHDItzzjSOVFzRd8sgczO8aaM7tL/ejMKs0riqtpyTKcAUaMPHBNF7G96pMjgH6TDEHpj36EjwIAsn9Y0wF6nYrRvx7c27OxytxTpPYjlRpN6WiLmrByInb8x6Ee/bP4uzRpCDFXzLGfmRr5/pS+Y0CEAQD4oIE8e3ata14sXE2/vJRJd7s3AIZrj2p7uO1yfOYK2w8VulX5+HB1HsSWGHCS1+pPBgMuGREFcZ+YVelb2B9eweumrwwfylNbrWqMoSeDTdbGB9wNxRPZdP4x6lfUMqwqOf1+Z/hn/M2qPmoUZjF9vWZEmPlQVCzJdKTHTzV5ORAAHJAQBwlzQrXiUnxS4bNt7cQ1/AX7I5tJkRDKuDgKIb6Zeio9rUC2UXKlRkw/HHcIIzecyel3H0pd/+CIqamQIZGzVH7a9NP7cyg3s4YwahY/bEEDFr6CbEtChftOVusxveOOCAMAxjDgY8uyY+bchyigJhZXvINEjwIymtVPYCiHvi3DqvCqJ1IiZK+wxj7Y18y+La0bDSAUCpIEN9//MmneGPOe7jrkyq82jEUnQ4t8E5pEAOeBj1jgitjlYFWA4DQMTzPpV4wAHmFvnNmBX526nitIbvusWlYlNpGb+gCUlDsi8pi5ulXGmANE4Z1L8cNkw7yrebkolc91IQ1VVuG6dM0rzyeqFhY0GIa9ImmgjgqCBgF1sptFzhO/s8shyM8KBoApvvZPAllBUdQvFpDHhcwaJBTXMBgY0DNeDW8UnSyePUcNSidvXgVrnxjTTTLfYbVYID9SwriFgnRYFETVplWMiZEH5q3gR+0ys19EfmeIK8SUBjjLMW/Tq3z6wL3fd0D7yOTO+roGWTC3Ram8VFJQlygoAAuVXCw/rRtUV1Nits6kTH2pFkf9N0SGxUguCBBnBeZDxASHmj4uGz5Csye+x4e/LAT/+0cigXpwcqMy6ZYH1lOKUOWY14UPvAETAakhopT2S787aSRqNCMTON7i3HrvAxYLiVjKPWgwrUfFRuRJ7BgeJWWOvy92Fb51RE7YPsh+aOVQVLXd6Xx7acXgFeIeAazRfDpO5k/Ev9yZfT4RklHFKvFFcjZLM8FEHp/5mIHzORK1UYgniDbKAIVN8agILhxgxO1GtpPtUJhKqMvtYAh0I5JcbvFd82uwl3n5mNxggRd9/QsvNTmZk/0AYEIhlMMbJTrXT6F0KMuejnBE2UrJMD4SOBmPtVJWoEbjl1u27ECL54pnW6XlPAJD83G4sqtA3lKAtNLBQi0ciMBtaj5pjMEJvlhwJ6pDVhwJumIo6DgAMbY26Sp30cLbXSA4PGFc/44gJLOjIrcCR98+BGmLfgUL6yowDvdm2NBeiC6fXc7hPLm+C2cpNgL9jJS15gNcPFzb6XuIYaw/Tx5+06cMG5/ZYuZTBbffGIenKoBfhd+UL+H1KiuA34DF1qhB/dAJYMtYiT+etIXUF2lRtIvzFqIexdptmwUUpf/KWBwfe0Hj5/qB0XW/yJmIAcCcoCg+Kf6awICsQIQwYGQDHicekx70mH7GQA8BssdaVAoBspAgFHbqBX8VzZbiatPlPMfFCs6/d5mLGXFwFiVPSkiWE0HQ3TFLGcCRiZAZBpfJUALGNSNHHNQvNsmT9eArvWYccY++X9Ihll05Revf4AHV0pB0cpx6EHAQAAE+QVDkfFHD2rFc5otVoVO2Zwx1t5HbT+JLOOUJdVSpkKc8ysB3FyO6lrb2vDZZ8uwbNkyPLekA9M2bI5ZXZtjnVMZ4YN25ZhIAIl5MuDQLfjd9rbPrMGvTsnfVBd8OOf4v2dmYkE2n2ZWaVBzv3qeBV0MQlDRq66/lnsWNgze2/0qV+N7x/vplb/8wSPNWFEZkb/CswdeZyMcIhRei2sKxF0FOe+ASEDERYxlxOUXJoWulQMVkCGsyEL1SQbRW4lRUu169fgUHMFloTQwEd8Z+RMoEKd81FxzDea9R22FHbf1LiArSoL426H3zi/GH1Bc81EGVOZrFNKgAimT0BrpJRy7C/WnbwEG5mQw69RdC0TJLHl6wQpc/XZ3eOJE8pd4WkQlVxQAJmlX1XT9yfA2XHeEC3ii7cRyxph3jpNoUfpeMZMI9zrF7t0N9wLQLAvikfTJJ59i0ZKP8dt3uvB0+zY5Mxq1iU9hTK6MhQNBDZDdCpwsfn3YMGwzNNxt8d2UOQtx14f+BvV78n4LUmxXzhQl2i3+Ox+DEMgkFXKhFGdurjwHfnLQVthjWB4EBPsnVuwXPzE/sNWgBxw+LeKRo/DoiK0AAQJEAGHOM5DzELi5BiLFI2DYSz51EGxMNvhxAINbX8BzYkS0PQIYFIzsIQAQdfsiS3fhpXNGoqLCiy8qStkr7y/Hz5pai4RGAiALwxnip+YHEz9MBqlQraGiQpc15ZT9jupvoD/avVdJnk1ALmJv7pXjh2OrAfmU+bKO+GjVOkx8rU3v0qUABdMWjxIoGO7miOD3f8dxTNg7n5fG8ExnjKn2xUzf9an3FDvY6wRzzkcC+DOAw8vd+MqVq/DXl97Cr1cMQ2fueFr4oTKFWs6nBzQdOmKL9Tjn0ANDb702Lnn0bWSqBudOLRRPQyhc1qotkii7qMtDEAF85IVPVVc7bjl5JKoq1XdmvDh7If79UTSnfPNR4oDwCDhOJnfSUngCsu6fpDQDhAW1euQVHZddw3G2BnyxBYQgL53QUw0O1cAF24lUyAqGmgykCoCZDE3Ag3LOTmlcfIjI51+UIe9vp949AyuqBDjVyJcNYPDRFWGIozSGiR+m8St8bwMENFs/of4EAIOpH0rFSPVo+On/3q7dOLd299AodXVnMPapz8BTru4wjVdomAMf6NQMhe8h+BIG+FsijaWThlEDFH/LGPt+ue1Xb9dna+N6jT7Oubg44GoA3wRAuluTSpy4VvrmZ6bhWnGttMEDbaozxECDR8GXN8GV7wHdbfjrpDFKcCBWy799qhHzuOdiLTZAi+pXpY5WI4ZcHgQ5+FEcQcrlRVDnIPbaH79FFy49TGA6/+Px5hfPzMaCtPrCKM4d5ICA+FN4BsTJgdyfNscJtRY1wsWjP5xgGvPi+wAfTYrIVLHt96FhVI2rBgFHrbyCqtxk+GyBABUwcY5Xzx6hBAeiV4f/ey6yqXyekIJ+D+wZR9lB9ThGeX4UBikKMJrG0wcIKONEBS4BraTV8u6LyPcEQKvbKnHJrcdy/POUWuVQjLtvLjoGebdzUvlbIt2F/kYAS79A5f515MC1ePFr/sunIqb0MYyx501Tvq+/77MAwWMc51xsYAmQ8D8Awve8xuSwuFb6qseacNuKrbSGzVS1LfOU84hzXDVqIPbfrXjGW653ZdsG/GDKJ6Fz3vkyakMvRygEg4ZCnkB5/ovqiiEM+e5TFiic48qRVajbu5hdTO5DdyaNbzz6HjKpKnDHyXsEBCDI7fPoEFVBAmgrxHJ6DIxR6ibJ8AyW7OEhKNpgtaYVlY4MrUE3WPqQQGsABxUwmAxkqL/+FarInvj8BcVLyjyJF3/OWdmJy1/8OPqUjIl/VD7ZlIsSDWPMAcH1HTsIkbDlVbYgSr8gDdqwBtPPVgdef+2hmXivyt2qj5Q/lRpwB4ZCd2S+A2/QFMBK4vfvdm7DVYeS4g/WMMbChoWoNvpSMVsbt9Fo55yLpYQACQIslOVawlWrV2P0Ax9jaUZahXi6ndBTW+ap5H8vrMY1J+hvavzWQ81YP3Co0o769A1pS0BhsFyXLgsGySliAGQ8IjwhXPzncJH0ChVd63HHmXkviK+f7j9mL16Bn7+6THfntobbUQDI4PKOBRiiLDThkhqTzChjCyz2LEwGzwgwZEUYwSCtYFNXeBpCTIq8QF5eTvfqWoJ/XHBkWKYA/OSlBXh1hXcstRTgI9FKMVCleAzk/pkMVpQnxCQHJQMalxE6OSjUrynge8/BshlMnTgcg6vDadzvnrUYv/moeBGdcrALQ2Siy7QFYnqvBwqDkcXCYwZj2DYku/8IY+xrJnXweXhva+M2ep845wKKeh4FWmakCKp/+p8m/HKRfNmR4TbHKH1i4E4oFog7uPmonbD5IHU+gYffmINnVss31BVnPiWzIHVwC+Xcv3hGXxj+3P+5+D8H3GH5f+f+z2XD9K3gvlC5BtefdnAxgVKAgD8904Ipq0VKXEJwZ0mSpmlANtDlABC++koAELJCjXWKgWj4VcV8fNZYFoP9LQwoFQAEgIAuSPHxiTtiy80GKyMMcqcXvL1rbb8i+hPVb1J/qSvyCM9RwJBGxlIULCfFpacAcsr55JbTBil6qyWDJgkqEAU+fPSgAdhrmD/7oPhsfdrB+GeC92hIQMAUhGgCbDEyJaqOxX514Cr859T9qFrpMsbYX6mF+3I5qg3pc31wr48+CcBXAUiZOOxIXdvahhH3LMIacfwx8FCYQykjVyuXP3a7bkw6KL+nFaxHROdf+uR8OBVh74YG5xabEQZc1Ji34oWkUTmD7gb7e4Y+/14Y/Hz5vNGP+XCO6780DCN33kap60RcwZX3z8BSXuNpHgJSkDRAbwELleGPwxJlPT3oMTDiBIPlIxlGzXiYDBCl2xK/qjtb8fzX65R3L7z6/jL8pElEv9v2hwoYNIjDNNlNAMm05RIij0pvgDAtnZLhNY1XlLxT+B4AND/YtRvn1PpvQPTIPPCRj+BUVEekMJeAjBEQRBBuiJXQyhMDHhrZha+N2Y2qBfZmjC2gFu7L5Uwi35dpL9DGORd+SAEUTgBATnPlVXD5/dNwy2KxineNqricqBDd7/4lxynxe36TnuWiDb0JbM+mAekNuP2sfOCOahCufWQ6PnC2KG4tODx3CjHXvBB099856y/c/KKWvN+/+MQnL19H8HvdvyU9lsp045YT98C2muOarawMtJsAACAASURBVOs24BuPzUc2l2Wx1CcKMRhDNOwbV3oMSoktsMx8qLFb2lTQwR5q7WmEIYo07IHvjNpEUvQG7h8+aBV+fpL6lNjlj7+FOZ1u9kRZTgvtU/ujoJ/SXxMQKIyTgSGlAobI8aR6OCKOe5PpM/P7kKrV+MvxijsZABz28FysqhI3O1LHwwR03AHQeUYociIpwF3YBrw/aRdUV+kXa5I4P8sYO85eufTNL4xTum+SraaKcy7OywiQ4IGF7Sj0v/PBEtQ9shJdIuOi8vIjSi2aMkGF4/774n2rcNiBeyvBweKVrfjh8x9rVkgRwQYk333Pfz8c6/Dnc4rKPShki1aux3efXZS/JdIUo1gC6yMzM/bYFkO5AUOExSIZfI1LmmIIrYM16QAgr3/1e8L/OnQI9twxnGdGtHD4ve/mAl5DT4gfZsPlr4NqoCQDZEg1HMzEpxRnisHyjVdEv3wNUAEccdyMngM9XVt1rsaUMw5Q6rsLn5yNRkfldTTRZXhfIEdj5nzv9Vs3v96xFd8/TH0XiGI8v8UY+1NJaqsPfdyvAILMV865gKTiJq3zKPw+5R9v4rFV0qqE8pEoY7S34QLb8Tb8/syDtHmaLr9nGtZUljVPFLU3ZSt31DYd+J9j6go4PFjxXyc34YUcvyMYGBUzUA4DHySqJ2MUQv0ksJpq8EL90AX32xpMTcU2K+gYMRUs04VXztkvtL0gqJ+/ugvfeGEJLYU0lX9aLUg1sGUCDLHppdJpMrhSP6LEkwJoCjPfnahOFnNOUV+R/M+mD/H7T4RH0eAZMMkdxeOh1UiyJ6UoEMNYBxaePAyD3TgxwqztN9sLOQxP6PDntgjnfC8A71M60DL/Q4x/ci26HeGqD0T7h1bmlBo1ZbiDXx4+HLsN8/Ia+Ms93zQPdyxwAwXkeR8FRHxVaFwWhTKlvpca8+jzfpLpdRz87pidsft26pOpougV97yJT5jAceV6Agwrt8EP9TPmFoGKX0GFalLQSoCkEhjFeNkYRErsADWvgQqQKYLITh/ejcsP8weEeSRf/GAT5jkamTEZWA0+KpIlGVCKh6UcBiu2ZyAwrkp5IfbH2A/q8csIAArg9v0djNvLDxLEF60d3Zjw/EpFDyiAgRoEqqk+x3893dcPX4sfH0HOfdCvthf6PUAQHeScPwDgNIoJOvVfU/HoCvnUAOWrQBmDR2FEag1+NungUMXedtnX72pEV5VIKqSKcQha5Bj09egnfvoq0x24//xa7bXQ3ek0zvr3bGRFhkhPGgvHLQl7qKX2pVwxBSqDH6V4dHRr7bvB8GsBR8giE68v1nxnMiQqAGDlQcjH+Lx2pjjRXBQJuVqRHClT6V0QZrD4ISCkWGlTgQBF1oynAaiGVjOg2u5uTA+C3q4HYwomDliKG44tJkySh6f2wffQPbAm+jZVk/wZPQhUeclTtgtrx7snDcfgwWSbcAlj7O8UUfm8lOnXHgQXIIjN8KmUAZm/+DPUPrgUGxyL05Oh/AF6hJDKZnHP2flAHZUuvfPltzB5GSkQhtKdPlFmN7YGN501QavwP1rRiqsmLwJPiVMkBpdJT3kEQvq4xARHJMBAWJqTDIIhxoBiAMmxBioPDcEPWfjMrKAHd6zB5AvGKuVFJEe6LJccSUIPUStwqsfA5NoutCfFzCgnsQEAhFBPxIo7tmdB+tDkKTICmph5AzTobrsNy/CSKjCbAZe98B5eaxenmwj0U4CCKc9EjsZowHjf3m04YywpMZKo7E3GWFHR9QntWzoR/R4guCDhSTd40cixHz7WiBsX5K9TzsuPd75d+tNYi7rAwTXrccVx/sxwOTFlQGdXFy58ZD54MPjKGONgsquB8/mh+kzvTfVr3nss4MCZuwOTDt5Xu5/1+NR3cWfuIqoSn3J7BEIoLhgyYbRA6g6RPAURvCgHcFBWb7vCDlRiWsGpgFhAkZ+9bRsuPVJ9uueKp+fhrfUekFR0oJweAwJ+iwqy9NufXgACSnrddk0GVd4iipqCxiBFDTJwyahKt6NlUiAw2x2z5z9cg6tmdwYFSrovPmo+aMyYCZiGhqVYzzEDVuCZU/ZDKkVeLJ7NGBOXDParZ1MBCOJkgwAJxmfDhg7U3j4H8ztjHsMLbfHnDXAq04m7zhodDrxyR+DWF2fj1RXCeyAqCGpSI9l9tIA7A7mDGw/fHiN2DF+pIUqIuxdufXEOnhf977dbDISoSi1wCFlWM/DYmACgQK5ljAbP4tUz98ldRhZUTGmH44gHFuTRtAkIGNlFNZxuRUYDK5ej7IkbCFT2L6AWosbXRK/xvewJifJQ2QOf5onDMUCcXhKP1M/W9g5MeH5N/jetZ0MaNyOQURSIAAQFejiweSqDpkOqsM/Ow6h69QXG2NHUwp+ncpsEQBADwjmfAuBLlMF5edb7+OpL7ehQbTWQthTCrZy7dzWOrfWnaPDmweq2dlz+1EcAHa1SutGnylRkunD7KSMwdPPifp4sfOJq6Mvum45lqaigRVmxKzw71BUslTMhgx3TY6C1B0ZEUFSkkfhCUw+ZXAVfKTyy5bdhRTcmtQI3nzZe2fLvXp6Lx1cI0B5wQdtuoZgMSzk8BzJAMrm6Y22RSAaW0n/KVkIkX2QB1hhe2cIGEZw00b+9UzcurtvNBw68RULdQ++je4CXRC36GGy+OcIWSCEWKIpuf/9+P3w5vnPEKMoM8MqczBh73OaDz0vZTQkgXCQCaakDc/1jU3Htgs3KssVQ1b0e/zyrTrrT3g+Sr3ngTXzIxbW1iifkkTC5/INbBuX+t6l9/Z700Ewr/nWe/nin8CSceXczuipjHDcNKowgkItS1FShiAQMBA+BCihoDUREfUbD/3kBDH4Pw01jqtCwTzhbnejNxPvnYDXLpyTXptzT8iXwwqj1LFaqpDwIWoSo6U7Eytwnq9R+WfSHBGg0DAz9HKZvp85lmHyG4s4WAKc+PAvzvIubVP2MC3QKdJn5esqA5XjgpP1QWRnOrKtREw8yxk6nqpDPWznjVPm8dSiKXs75IwBOofSpq6sbJ93dhMlr1NcUU+rIleHAT7+0I/YZVkTGspx3ZBxc+NA813XqKkztsUpPwMmt93LBIH0BQ8UYvji0E987NpwZ2+PJp6vW45uTF4duryxLR1QGvqDgLQy8jpiQ/iF6CAz2o9icARlYAYcYp0RMK7YgX3zlDUvzTBdePXukMvfBx+vTOOPpxX42KMdAYTBL2pv38IhhpVoYP+qKlgAYSgUCUeymjqNVzIFmKyLQD5ZNo+XEHVFVWRHaKXrug5W4ak7a9QwYMjxGKQQfIFAU1ACGfVPr8OZx22HoFuRLg7MAJjDGppdFP/XBSjY1gCAuenoFgP/WEM3ArFq1Gkfc9x5mdwxWexK8iRYxsDXpNvztnHGFEkEQ/IN738CSFOmGsHjio/NAeLVRXKrxWtZ+deFeDBPHFjOTBXnStHAZrp+6ynzzY2RQYpkNvq86S8O/UQCAJvg0ciyllaaNXBTYYUQo+dYVCvrqLzAcNzqwBefS+u0n30Jzh/AqRawAo4CA7SkN0x59SYAgymDJgiKV02pp6niV0YPgH0B/ZwgeBPHBfXUpjFLs72c5MOqJ8NX25dtK0MvPUJbGM7UOxn+BfN+C6MpvGGM/KLN67FPVbVIAQXCecy5ugryFOgrvL/4URz/2CT7qjhe0+D/7pHDogSOUcTfLVrfiO899nL+VLurURJQhlFNDhwCLbkUftFjEfxfqlxWTIRZAFbPBgesP3gIH7L6DNh7pnqkL8NCHGeowqcv1usdAhQQiLC0ZZ2gKEu1xkTlUgxJkp2xgCMjBEjCIAN5XzxHY3U+p+JfYdjrs/vlwxOkebX+pnoPA+BiBANGwyoCB5KLXIEab/iklnkgvxTNQ2LuPClKMADRawAacv1UrfnCoP3WxZ4gOfWguVg4wLJiMWw1UuvL8GsyyuH/EOpxQT06IJBr4AMDBjLFlpSmpvv31JgcQXJBwH4AzqEPT+O4HOHHyGnyWsctRMMxZi5vOOEhrBH/+WCPmdUlbGASPBJXmPlmuAHSAinQnHj0/vxcZfvJi+ZMnZ2L2eikFa7k6pTXMqhcEg6jR9+p+EQFDZF/LBBioruYQXiAik1Ax9Xc7bViC+y48vNCKrJRe/bgNP3pjhZ8CG0NKDeKjDLOJX8T+Wp3C8PVcAYSi5MQEgMj90a+8/XiIBtR2Sa/Gs5PUgPCqyW9jcpebZbYc9Of4ozFz7s/37NWKs8eR71rwOH4FY+wv5VJJfbWeTRUg7O1uNexIHZj/znkfp760DsvTleFUzEF97VZ6w6HbYo/h6pTKnyxfje+9vLRn9tqpndrI5TbvbsUd59ShyhcQVBRJcT305Q+14FPHDVoM2UXVMTqKpjd0vNwAQltfyPKqL1GI9X1gi4E01tIK1IaNVI+BxoA+8OVtscPW+X1fn0JiwKn3vYVlqWAcEM0QFbts2S/TCrUACA1AqVyAwQYQmQCD8b0BwBZGiRZzoEp8xJws3j55JyUgnLbwE1z4jrhzT/GYxkXnGVGOQ77+W3ZvxTcPJidD8oi6kzH2ddKU+pwX2iQBghgzzrnVqQbxzUst83DGq+1YSfAkbNG9GreeG06p7MnL/7v/TSxmwpUW2CtXueSNWwxurUEPhDcxdEJq+17yABRuqcvRK52bptLv0rRnag1uOsM72lYUR+9vmayDc//djPbKGMGiKsMa59SAiX/aWWSw7GTDX7BIlsf8NABEXplZAQFisF6IXL0hHdq5Ev/5ev7mzyA4WLG+Ayc/9Yn/Eh+KR8AqMyLh9k1rAKTpb2zAEGAoaWVNyXBJADjhkfHjLp+IKYCb5v3/7ZXGxP13Uc6s/R/+CE7VAFoMkmpLxzReDBiILP66dwe+PlasFa2eJgBfYYytsvrqc1p4kwUILki4A8D5NmP3+lvzce6rbVjUPdD9TG3gf3PkDthpa+lMr9RIRyaLCx+en897ID7fVB93Io+pWo2fTdKnY27vTOOiR+ZgQ0rkUAgGH9pYuACjewpAkA0/QUGTuhdo0GRAQvImr7AJBrNgrywTIYW0DcMVO3fg9IP3D4ED0cS3H21Cc1o+/tsLngPK3RGFfhDGr2BgqXv5UjlD9QVkHndlTQVyESvwqO756At0f2T3Z3h4UvFeBlkkv/70u5iRlcadEjNh4rP0fnOWxb2jMjhhf6uARFGDSPV4DGPstU1FZW/qAEH4rp8FcIjNgM/7cAnOeuYTzBSR1b4VdN5+bZ1Ziz+fnV8VqZ6rH3gTH6EHTy7YdKYvlOUcZ+8GnDZhpDYd82erWnH5sx8ikxIri6DHIqTpFEDCoqOxDLzBAJAOVWgaJtMT4INpj1nHEt93BIRiWrEF23G1Dkt34pUzR6KyQkpn674TrR527zxkveBEJa2mFWsQEBI9INT+mMppDXxA7UaWCwCGKD5QgAIpb0NMD4ipHxJwHdC1DjNPK17KJXercVk7zp++LtxTkzwTxmMb1oXHGqrxxb13sFAIhaKXM8bIAe5xGuhr32zSAEEMBudcwEhx9NEKTi5fsQqXPjkfj68Jewm+OYLh0NFq4V/duh6XP7tEypqoWxG7vwfP6Std+AqD6UUhK7cASi2vuMxIm5jItOIv9vPqusEYv8+uoTniCenKDWlc9JiIaNckMTF6BEoEEuT6o9qRumdcIaosq80KM8JAEux+4WuT4jWQqTt+cMWewBn17tFGSROJvz757lLcOHuD5ZaK7AkhutipHgNvPpFOKVANrEpOouim9k8qF2VxyrEy127ZReXZyA9281e3x6CKsAnKZLI48Kml4BVinkfFRBgmUKHq/F8OrGzDY4dtg923j7U4+zlj7Gd9zYD3ND2bPEBwQYK4QelNAOT0WeK7rq4uXP/ULNz40SBkclsFDDWdq3Hbeep0saLEX55rwX/Xkq8P7enx71P1M57Bn47ZGbtsU0y3HBTQtxYvx0/+uxI8p9ysLba6v6pqolZqynYVH5ABgIYA8vcBQ+OLWSEYysLnMbYMogxEBHBIZbsx5cx9i4mRAgDhiLtno6taeOhU9AcYQ9Vi1K0Xk+GU2Z37OxUQRJSLkjcj3Z8PQBBk00XbbsD/HqzOfTHh/rexenAgXY1pXAKAoDhMHOcOWY3bvjICA6q9q8KtVN8mCQ48ybbiVH8tzDk/DsDTcfr3eNN7uOrNdfiwuxrXH7It9hquRqgdHZ246PEF4BU2xyUNHgbtnjzxO20mQeL3xpgAm6UqUJHpxANnjUJ1RUq73fD6ex/j101txRgOrYH3XqhWagSfvzX+MHxABiIaeuMafiUAIEh6yJ4RVmxawOCXg33Tn+Dv5xyaJyIADt5a2orLXl2pvo43kmyioaTyg9r/cpUzAkJi/yiGlOoRMQEg33hQgVt+wLfoWIGpZxxQqEHGeX98833cumpItJASTi1shW78ao8uXDJe7dElzII/Msa+QyjXL4tQsXe/7HywU5xzcXTlX3E6u6GzEz975m3s9YW9MWRzL2e8X//d8kwjXlsvtiSiDEnAcEVuEUTE7JVq32N9761AJQMXA4BUdrXj/rNGhdC+vMXa8tl6XPvKx+qhIht2ckF/O9aGXmXwDddkUw0hxUUerKtAP3FPPkQ+kQE6w8mBl07ZFQMGFIGyrIguemIu5vluU6UangChxpW3W960tx3Zf4m5NkBBOb7UfkpAIQp/m/qlpNeiP1pAQ6QPwJRDN8d2W9YoFwMjn/wUHCn9aYYI+qsYx+mbr8ZvD9kZ229FTp0cHJX/MMYmxrEH/eWbBCAERpJz/n0Av447wHM/+hS3Ny3B2LHFJEAek8+9dybSlYPD+CCogOI23te/s8BFW3SvwT2BrZpgDNYTLR/i7/O7Ylwq4BkG21hGA6CIiTdCAhH3GKIHPE2GQScnsYMTNQBIA0z2Zytx62njQp4DUXxVRwYT/7M4cuvZHx0f99RFxGQpaEXDkt5ULtKABgxxFGCwATpROoDsWZDHsxyAQQZifo/RZVu34soJ6jwEhz8yF0urpTwyMrBV9dN9X1/Zit/Xbo4vjijmWoihGqcwxorZu2JU0B8+SQCCYhQ55+cBuLOUAZ71/oe4ddoi7LXvSOy83VC8NncRbnlbnJIxPcElQaylfF9zLZg6rXy/Vfcq3Hl+/vijLkD7yab3cdt7aSC30oiOabKOWSiXwVfdBWC385Lnz+dui0EBHLiDvx9cg313HVYYc1kJXfJwC97Jeis+xYo6km/0lWuIn5GG1QIA+eqJQz8hZsQKMEQF+Rn6ZfKImACQaT4yhuEdy/Dy6QeGuC+6+MtX5+OutVsQPAj5hiYMWIcfjRyEo7+wIyoqNMmWaJroScbYibSi/btUAhA048s5F4m5ZwGIFdXiVbt42Ur8cvIcPLy0GqsqheLLRTO6jzeDpJ/KgQd01Qebi/tvC09AdIiCjoBiA1+oasONJ/uvyg4OWfOSNfjp64qslLENvEpxKhStqn6SvtB8aFKoYTWalycfcLBZUUunWUIDpehIpEEw8Metbkj7cjxzYT6IN6h8urIcRzy4ANAq9zgG1+MHAZGZVqiyWBR6QOt3/lNL+qmeIOPxRtU4a8bX1C8TAFLKvzvSKmvjZDHnhOG+o65ed9Z3dqL++VZJXaoFcMKgDfj56Bocued2pNlnKHQ7Y+ziclTUH+pIAELEKHLORZTMAyJzVqmDvWLNWvxzxke4f2E33uoYlEufoA1FiMAPpdLRq9+b7T8p79EIrMJNZxYTKQX7IJqZPHMh/vRut7vaIIq1tYE3II5yAZLYWwwe7rQ8jRDCQ0TGRK4w1Ybzsa/ujG03q1buOf/46Vl4pRCjQ9k5cgmwWVFTYjZ8QMGwAo91zC/AcCP9Uj+jJrAJUJj6FTme1PEgHtOU+nHu5stxzRGj8tAkMHWPeHguPpW3GXJlGPat3oDTdqrEpQdsj2E1XtK6krXbLxljPyq5ln5UAVGT9qMex+gK51zEJIjYhLI80+Ytwn1zV+GV5Rxz2k23RJbDpVCOJb8tHR6rCCs3HVclgLEvX4bfnOVGvUvlZQGe/NYH+NNcDySoKrW04NYr+pCltTzHbxAvkwEw8dH2e5PBUCG1iOEe2rUWT51XpwQHnd1pfPnRD8F9OS4UK+5IFhENaWGYiEGaBSEzCERIm1p6DOQYklKAgNw/Ut4GWW4DkysWACICN1ceh25YiWln+i9v8qh4c3kXLpzeiuGsAwcOzuCgbQbgtH23xr7bxEi9ruepSJv8v4yxkraVy2Ic+lglCUAgDgjn/FsA/kgsTi62fF0Hnp+/DDM/XYf313Tho/UOPk1XYVVGXApFDCUI2iXdv8lUuQV1HoAoO0jFESRa/Aw4eNBa/PDEcYWz8yrhXbimC99+9gNwJsUkqOgltW+wgJZ4I9xkoAJbAx4ij2jwtOMX13NgYLBb7a/rB2HCXuoMdo/M/hg3CQ+QeKhayZZfsYL0emILgWhAfUGnBL6Q+6cBOiZAqMVHxP5oxotxB3NOGCaS1uWu94bjYHVnGstXr8GyTz/Glw/YCyN22KbUuALdjBdpkwU4EHcsJE+AA9SpmDAun3VRBK5cDWBcTzKku7sb4v+3lm/Ax61dWN6exqqONFZ3ZJHJ7U1QEUDQwusMnq43Pfx9QWHogFDw2GTeBSlcjEVLIvMj/yt3uBvpUW76gwZUpAh2Iq6TDdPv53QP0ydAkndMVjnEZWq/wJagBfHXX5EKqpvi+6yj4KMsH0r6DfwvIGyd1jP1v6fG12tX1C/Jr9ZAU+enZKgLSCs8P4z6o0BHTP4W1JNuhZGXAyEOwwZWYPch1dh1i4HYY+hADK8ZKM3vntSyubpF2mQBDijR4z1OTF9sIAEIlqPCOReHtwVIEP+XbfPLkoykeMKBhAMJBxIOxOPAdAA3McYejPf5pvNVAhBijjXnvN4FCafErCL5LOFAwoGEAwkHeo8DywD8zgUH2d5r9vPbUgIQShw7zvlFLlDwJxUvsd7k84QDCQcSDiQcKBsH/uICgw/KVuMmUFECEMowyJzz4S5I+AYAf57lMtSfVJFwIOFAwoGEA7E4cLeINWCMTYv19Sb+UQIQyigAnPO9AJzh/r9fGatOqko4kHAg4UDCAToHHhWX5zLGXqZ/kpQMciABCD0gE5xzEf7rAYUTeqCJpMqEAwkHEg4kHPBzYAGAZ8X/jDHxZ/KUyIEEIJTIQNPnnPODXLBwJoCy5AI1tZm8TziQcCDhwCbCgQQU9OBAJwChB5krV+2mbRb5E+T/t+2l5pNmEg4kHEg40F84MAXACwBeZ4y93l861Rf7kQCEjTgqnPM6AAcDEBcNiD933ojkJE0nHEg4kHCgL3GgHcCHAMTJA/GnyF/wAmNsZV8isj/TkgCEPjS6nHNxMYO48lFcEiX+lP/u/VbZh0hOSEk4kHAg4UApHFgPQAAB+f81AhAwxpaXUnHybekcSABC6TxMakg4kHAg4UDCgYQD/Y4DCUDod0OadCjhQMKBhAMJBxIOlM6BBCCUzsOkhoQDCQcSDiQcSDjQ7ziQAIR+N6RJhxIOJBxIOJBwIOFA6RxIAELpPExqSDiQcCDhQMKBhAP9jgMJQOh3Q5p0KOFAwoGEAwkHEg6UzoEEIJTOw6SGhAMJBxIOJBxIONDvOJAAhH43pEmHEg4kHEg4kHAg4UDpHEgAQuk8TGpIOJBwIOFAwoGEA/2OAwlA6HdDmnQo4UDCgYQDCQcSDpTOgQQglM7DpIaEAwkHEg4kHEg40O84kACEfjekSYcSDiQcSDiQcCDhQOkcSABC6TxMakg4kHAg4UDCgYQD/Y4DCUDod0OadCjhQMKBhAMJBxIOlM6BBCCUzsOkhoQDCQcSDiQcSDjQ7ziQAIR+N6RJhxIOJBxIOJBwIOFA6RxIAELpPExqSDiQcCDhQMKBhAP9jgMJQOh3Q5p0KOFAwoGEAwkHEg6UzoEEIJTOw6SGhAMJBxIOJBxIONDvOPB5AAipcePG7ZDNZg/inB/BGGvgnO8JYEvNaCwFsJAx1gjgjYqKimnTp0//FIDT70Yv6RCZA3V1dYMBHMAY+xLn/EsA9gDwBU0FaQDzGGPvc87fEHIEYE5zc/MGcoPlK5gaO3bsrtlsdiKAowHsC2B3qXpB51zHcV6urKx8ZsaMGYt0sj527Njds9nsTQAubm5uXlk+EpOaEg4kHOiPHOizAKGhoWFYNps9lzH2DQAjSmS+AA3/SqVStzc2Nn4IgMetr7a2dl/G2LMAdo1TB+f8VcbYmc3NzZ/F+b6+vv5Czvk/4nybSqUOa2xsfFX+tqGh4UuO40yJU19vfaOim9L2YYcdVtne3j4hm81eyRg7HsBAyncRoOG/jLE/VlVVPT916tSOEuqifJqqq6v7MoDrAIyjfOCWmcM5/z1j7NHm5uZW+bu6ujrBg58A+KotQOircqKTjV6iNwckAQhZaAcwg3O+pKKi4u1MJjN35syZAoRZ6xoXzP4dwFkW404pemNzc/MPKQV7kAZK82Up0x9loyyMsaikzwGEcePGbZ/JZK4GcKlGoXcC+HcqlfpndXX1nDfeeGOd6O/IkSOrBw0atDNjbCLn/AKxWlTwIc05fzKVSv2sqanpnTiT161TeDW2TafTxzHGrgGwlwXPRdG7Ojo6Lp87d+56y+8KxSdMmFDT1dVVxzn/HgCh+FXPdAC3A3gFwGeqFXAvKdK43cx9FwMgpOrr64/hnN+okQNR7RwAN6dSqec222yzz6ZMmZIBwMaPH79lOp0WfD0bwOkaGVzCGLuhu7v7ntmzZwvDUNZnzJgxu6ZSqT8AOEmquJNzfrOQfcbYAm8shSLnnAv5O5kxdhGAnd1v1gC4jXN+e0tLywejR4/eJZVK3cEYEyDJGiAEgMZgx3HGp1KpnwI4pKydt6yMIBsCaG3FOa9352pv0ht79P2+RwAAH6BJREFUYSLA7bp168Qi5HwA348Bbhcxxq6rqKh4evr06StK8KDK/BN0HBExRAscx/mJ4zjrKysrf5DIRqQwx5YNyylSUvE+AxD22muvAUOGDDmLMfZLAMM0vbpLCN706dOXRfWaUJdA/rdUVlZeO3369LZSONjQ0LBzNpu9W7iuLeu5rqam5nrXMFl+6isujOEFnPO/AqiS3vyitbX1FwsWLOiKqjwCIAgePS+8FYyxaR0dHavmzp3bLddl483QKPKc8mGMjeGcf1sHdAhGoEBWQ0PDHo7j/C5gXGWyxcT8ZnNz85MmpUmoSyjEi2bOnPl6CWDTNzx1dXXCW3BXwGv2cjab/Z9Zs2a9HzWW48ePH5ROp8/knN8QMYferaioOH7GjBnCk1bSM27cuCHZbPYvnPNziBXd625v6LZq2OjRo7dwHKe6qqpqBOf8yADoCTVjIxsjR47cfNCgQX8BcB6RXtWKO0djRUXF1gAOd+sygY40Y+y2ioqK6026S0XXmDFjjkylUg9FbKsGPxNz9+Tm5uanif0kFRN6dYsttvgxAPG/7+Gc/7mqqupHnj5NZKN3ZIM0cCUU6hMAYezYsVu7e6O6iStW/je0tbX9n8ngybyora0dxRgTE0u3RSFcgpe1tLQ0l8BDNDQ07Oc4zqOWWyFiEp/d3Nws6CvpcQHRLYyxC92KZqZSqRMbGxuXmCrWAIQZqVTqisbGxqYow1cGgCCTJ8CC2GcXQMcHEIlGgNXW1n5VKOII4/gO5/yslpaW2Sa+eO+jlKJbRozjddXV1b8rdduhtrb2EMbY3fL2VZwtKTfWQHiOVKu9RZzzY1taWt6l8iCqXENDw8GO40wGUEOozwQQQlW4K+ljAAiPSshTR5SNQr2W9FJc8qna2tqxYusJwFgDD95JpVIXNDY2ivgo8uPyQHhrQoZZU0lZx1huo66uTsR/PSPrOsbYb6qqqn4alH9LXieyEUM2yEIUs+BGBwj19fX7cM7FiilqcsVebTc0NDQ4jvM4gB00PFrKOb+kpaXlqVJWgTFQviDnvVQqdUpjY6PY7ijpqa+v/xrn3AMbv21ubhYuPuP+pwIgzGCMndfU1DTfRFCZAUKuOdUK2mQEXAX6HQDC+yR7UeQuxOa1CxJ+A+DKCJ7cVVFRcdWMGTNWmfimeu8q3icA7Ce9X8M5P66lpWWabZ0RK7iyGo8DDzxwx8rKSjF3RhNotDYCXp26RYRJNoI0ueBJrKxFsKfpoQAET26Hc87vI3gSlzqOc87MmTNfMjVuMsyG78U2Ulk9CO783AaAGO9cXEwUgE1kIz9CdXV1PSobNnJkW3ajAoQxY8aMTKVSDwaUYrAPz1dXV585derU1badc8sz15CJFZXuWcMYu6CpqUm4nY1GVVMJq6ur+zUAERNAfuKsEFWVu4b1BbGSE27Zpqamf1KICACENY7jTKIqr54ACO6EEjEVj3nGPsoIuOBAxIGI1ZUOHJTsrRkzZswOrqxO0PGVc35/ZWXlFbYgwfUA/ZExJuJu5OeJgQMHnuvF2VDGUy6jcamXFSDU1dX5DIaBxtgAQdSr6o8tQLCklwwQBH319fX7c86F8TQFML8H4MTm5mYR4Eh9hB67hnP+C+IHN9XU1Py/Mmxh+pobNWrUdtXV1U+LmA4AkVsZlrxOZCPP6TiyQRQJ+2IbDSAQPQdrUqnUycHIe9tujh8/fqvu7u773GNiWpBgYxw1Rvr/APw/W/rKEbQon65wPQDCVW18AgDhFzU1NT+nKpWeAgjBLROdESB6DgQP7gBweanHFOvq6iaJIMEIICLasg5AjXDFWhko1WArgM3nFiCI/gX705cAgghypRpxzvnf2travh1jy1ScoNJ5Q2UREIbmuObm5oVGJWBRoL6+XsQLiS2l7cRJmQ0bNpyvC7buTYCwqcuGxRBaFd0oAEGg0KqqKmGwoyJihfvqn21tbZfZTCJd7+vr688QLkADd2K7oUW9dXV1cQGC+Dz2Nor4WAYINkpTAgjWCqWnAILoj2w0df2pr68/T0TpGwz2ulQq9ZXGxsY3rWaGorALNMU2TqTc2oylC3LEaYurFE2WDBBc2TjGjcURcQKfa4Ag+iPPZRtZd+eojcfDmv+yATXIm7VcRniadE0JUHxLqXIvf19XV3cZABHoKeLCJra0tAiwoHx6GyBsyrJRzjGW6+p1gOAqRHEW+9pyT6Co+sTKo6Ki4gnXNRZVVMQrfD14hpwyAB5AYIxN5ZyLKGeb/A3rOOeTWlpanqO0FSxTBoDw946OjiuCJxWiaOlJgCAbY03+BlJgaDlBpmtgPAUZxRpyFLlhn7Ykt6tHYMCwfO4BgjyX+xpAGD169NCKigqxbXoUYR5bbwNYBv69XF1dPamE7VlfF+Q5afIexABjZZH1TVk2CPJmXaTXAUJtba28mokiuKzCbeP+A/Ct5ubmP9vGI0gehBsdx3nB8miS4EVsD0apAIExNqmpqelhGwnqSYDgrnyvEfkGVEagtrZWBISdYaJXJKVqamq631SO+l4Vxa35lnSSpK6u7osAXtZ4QcpmzCkeGSoPAitKmxV5WYyAmMt1dXXiKOfVfQ0guPlYhO64mMDPN6qrqyfaGHARhzF48OA7OeenEOo3rvIJdRSK1NbWfoUxJuK0xGM8RrkxPAibsmzYjCW1bK8CBGIsQI52zvmPWlpaRFR62R7XnS4C+XTBbF5b1u52FzF7WwzCNXl1bW3t1xljfyO0V+hj3KDFEgHC3alU6ljb0xQ9DRC88UqlUkcF41Dq6upETgbTOJbtzL83QDYZ5hhjP25qahIyrA18DZw+Ucm6dUyDqhKRWKuzs1PEpZxoa1SjJmBPGAFXrkZEZf1zs0I+ZdsXS3qttxgCesCku2IBQOJ2qadHy7JNG4gLIi3eLHlNAo+JbJhEqrzvexUgWAh2WmUUSu265bEbq4A9BUD4ocV2SrBr1kahRIBwg+1KRhDc0wDBG69UKvUdBUCgnDYhKR1buaqrqxNJncS5fNNjNAAUHurOmZsaD7736LY1qr0NEFxPHKIAgndcMZVKfdMmiNnSaMUCCLW1tRe7+ThMQ2SUD1UFFtul4vNP3bwX5NwfqjbdnDK5AEnqKSlLXpPmaiIbJpEq7/teAwgWAV6ih2Vf+YlKR40atVl1dfU/OOciha7psfYiyFsMnnKjBmQqiPlpTU3NL6knCuICBBMTot5TjJv3fTmNkgvGjAChJ7xQom0358WLFN6ZvAgWPCwpz4LLs9x2RjnBd7mNgOShWRIFEDyPSCqV+n1fAwgWYxoLIFhul4qht17syLItJ2pijDVls9kTZ86cKS7Ai3wS2QizpxdkwzQsVu97DSBYuPdFB0o6/21Y8ZBPGlCRsteeCiCIdzEzLVrlJEgAgnLUeyRZjM2FXSJg1VWoIh9+6PFc5cRZu4Ax9q2mpiYRyGp9O2ncVbdhPpU1BkE6Z/8S9WIhIu9yxSyNViwPgsVpprgAQZxaEllie+XIoxx3YwK88lhY8troQUhkw0bSy1O2twBCIaiISPafampqrqKunol15opZuP9EcaPQBiaEHIPguzWtpzMtJgAhJAXLGWNfaWpqmmkjH5SygWQxpk8it8ssjsXJ7YgMedc2NzeLvhk9KSYCS3lfbiMgJfy65XMKEMgJ00zgMWpcDMdjVZ/GPvIoHW208qomshEahl6RjVLmc/DbXgEIlkd/eiRA0eu45YrNaqtD50Fw2xZ3BfRY0GICEELTwmrsbCaVHPBH+S5qq8Ny601uThylFLeaXt/Y2PgBhY6eKFNmIyAnGoq1ejf10ZJeaxosZaOkhVBvHHlsaGgYxjl/gHN+KACrY5mWvDYtxhLZMAl3D7zvFYBgu0qyde3b8MX2emPHcb5MTT1sAAjoyaDFBCCEpEBcdV3StcY6ubI5ySDqYIw90N3dfZHmamhy9j0NPRsVKJTTCASMkbVxpugBS3qtabBw/Zd8BLE3jjxKgeUi5uCE5ubmFgqfRRlLXkcChEQ2qFwvb7leAQiWq3bYGGVbdtiCFQDfaW5uFje1GR8TQBAVxLhy1ms3MjdDAhD8w2MwysaxjCrgAr2bDJc3yVXMymQyX33rrbc+UdVrkVshiiwBFP6RzWZvnDVr1kclddDi4zIageCdKdbGmUK2Jb22NAgXski1/isCLaYVM6EKf1ZJ0we2ScNkAGL7bZkBQiIbpsHtofe9BRCox8Jy3Sx3xLvMO5sAM/c78s2IFIDgThzq7V4y6ZFBiwlACM2Qsihg3byzCEQTVSwx5JmgXChGVQGdroESe/grqR/FLWdpcLVjogjktTXOpC5Y0mtFg0UwcuyEaMFO9uSRRzduSlyaNtCUVlkDfMsSwJrIBkm0e6RQbwEE8skBAOtEmtLm5mbhIi77EwMgkA0NFSC4IKEWwH+IF694fNAqlgQghETFOnW0jbBZAgQj6C3Bs6QjW1xjfk1bW9u95bjLJAIolWwE3CvZ/xW41dXKOFPHrqcAwka80tfGayHYRDryKCdGoqRV7imAkMgGVbJ7plyPA4TDDjts4Lp160Q2wfOIXYh99IdSf18BCGJrupxBiwlACI1+jxgYr5VyA4QSPEsmsX/ccZzvzJw5c5GpYJz3lga3ALZFMF93d/cBjuOIlMRnK7Ji9sj4WdJLoSFVW1s7ljEmtiHHGng4g3N+WUtLS3McXkeAtD0BPEO8+4V0EiGQGClWunJLXiey0QOyUaqc9ThAsA3oKvdtc0EGWQqt+Jwc7GbjQRAVlzNoMQEIvQsQLBKe5AijBt6Klah7PfXRpU5u6XvhTbikpaXlqXIfi4wxn6jdohhnal2Fcpb0hmgQ+iydTm9eWVm5RyqVGs85F+CmzkDIUgC/TafTt2oCVa37IX9Q7iOPcmIkkVgr7oVPlry24UEiGzbcKqFsAhDMzOsxgCCajulaFhHQl7a0tNzhKfwEIPQPgCB6MW7cuCGZTOY6AOLmSNN9E2YJzpcQQYzX1NTU/KGc+UX6uRGg8lZVTsSCiIRWf6+urn556tSpHaVUZvq2nEceA0GzpeRPsNl+MnVRft8XAIINvcGyvSobpRCaAAQD92yi4W09CF7TFvuXMrW+oMUEIPRtgBDjZE6qvr7+K5zzWwDsWsokD3x7XU1NzfXlAgmWACHnRq6pqelubW3dsqKiYrRwuQM4vo9uMcRmO2PspKampidiV2D5YTmPPEqJkd4Rl3s1NzcvtCQnVzyRDTXXels24oyd902PAwT3+s1fA/gekdAejUGwvLBJkNwjQYpBXlhEQMufFoIWE4DQuwDB4sKmHGFxT+aMGzdu+2w2+xOxRVAmb0LI+0Scl8picYxAc3PzBqky1tDQcKjjOHcGgFBfWCUWaGhoaNjZcRxh8McQ+VWScSW24StmcRmeSEanvOVRzjdgk1ZZRW8iG9pR7HXZiCNP4pveAAgCSV4P4MdEInssRa5oP0aQIjnbWVwPgseXOOmYveuhOedD3dzsu8Y1RsTxKRSz2YcvN011dXWmFMPkcbPtt7s6sjmZU6pMs9GjR+9VUVEhgPZJcegNfLOIMfbVpqamt0utqwxGIEeCQvb7FEBwdccxjLGHANQQ+Sa2AIWLXgZExE/tiwWSCZkqUN7yKCdGKvUWyEQ2IoegV2XDJAy6970CEGwMSSmrLQoTbAGCzY2ApQKEEk42/C2VSv2Ncy7OLCcAIS8IZM8PRW6CZSxPMZQr7bMXMS+AwiFx6Pa+4Zz/ra2t7dulHoEslxEIBMYJMvscQIgRVFxWbw1lvKXtAUpx35HHwDaFVVplVWOJbEQOQa/LBkUggmV6BSDU1dXlrpmlukjLvdqUO+268sUtaDsTGUa+EbAMACF20CKA20VqYdGvnuSfzDMb4FdumggehJ4ECORLV1x+lft2UhGfcCjnXAQyxgUKyhUkcU4UipXLCIgKA8FxfQ4guDTaJjkrW1IkythYZuX0HXmsra39CmPsSQCdqVTqK42NjW9S2tSVSWTDyL1elQ0jNYoCvQIQvGtmAexLIZJ6JIxSV7CM5V0Mpgx4vurLARBiKiEfHeU2xjo+93GAQD59YitHMY7ukrNxWtKSqqur+zIAARTGWX4ripPTiPeGEQgc1+uTAEHwwdUhwlu3JYXnnPP7Ozs7L547d+56SvlSysQ98ignRiqX962cACGRjVKkIv63vQIQbBWqjVvftuv19fVf45yLfUTK80I2mz1t1qxZaymFywUQXCW0n+M4jxKTnyQAITxA5XLrh2q2vZ2UMTapqanpYZUMCZnhnLe1tLT8kiJjqjKucj+LMSbqGGZRz101NTWXTpkyRRy7ivWU0whIxvcFcXNgH77u2TZ7oeha5F0qsZiv+SjOkceurq6d3BimbeOkVdbIts0xR6PHzwVmiWyUU1gMdfUKQBA02Kw2AfRYgJlN9LktUCknQBA8ixO0KL5LPAg5qS81MFA7dSxPwkQCFVdmxHbXxaUGs4kTD5lM5mcA/oeoQ96orq6eOHXq1NXE8qFi5QYIEm+fswEI9fX1+wviTIGXlvRqvRh1dXVbuAmtqEGjazjnx7W0tEyLy2vqdzGOPJ7CGDscwFUAnq+urj6zFJnw6LTktREgJLJBlYDyles1gGC5N1buPdscxyxv4bPeoy03QIgbtJgAhMIEIceP2EwpyxtBI4O9XJmZWFFRcfyMGTM+tKFDVdaVcXEk8g+EmJ+St2HKbQRGjRq1WXV19T845x9RAYLnoeScT2lpafl7FA8t6Y3c5hCghHMuslNS81S8nE6nz5w9e/byUsfZ9H1dXd0kAP8myICoShy7E9slOzDGYqVV7g0PQiIbplEv//teAwiWe2M94h4W+d87OzvvFsk/TKyMeb2pd/StbPunMSKnEw+CO7i2HiCTTEgrI5HYRxgG07POFOzlgcqobQhTI4r31Hs++hxAEH1xeQIqQJBOJokjhU/3FkCICeDLmqhK19fx48dv1d3dLbZSj6DKD2OsKZvNnjhz5sxPqd+UkddGD0IiG+UYFbs6eg0gCLJqa2sPYoyJS0VMwT3pVCp1VGNj46t23YkuPXbs2BHZbFa0Ly43iXrWOY5z8syZM1+yab8HPAi55m3TMScehMKokZSOzRi7Soqa18PYviczcQBpFN0usPwtAHHVuu7pkwDB3Y4cQQUI7tG+nzLGvtLU1DSzjEbLCPRt5yaAyGvbbWXR0FeRpfIvFnWWNU7C0ltjnCuiH4lsWIxmGYr2KkAgKq1ct3pi9VdXV0da+cU9I95TAME1SgLUiExu+5nGfRMBCJ8QrsouuyfKwgtF2nOWZMZ6S8skB6acHzZpxHVt9YQRMPVLfi8lB9qWsk1jSa8RILhz8wvu3BxBpP0Nx3FOK9dKPWJsyn7LI7F/uWKWvCYBBJv2E9mw4Za6bK8CBMvJFPsWMVVXLeIPYmeZ60mAIPpEDVrcRADCtQB+bpoC5dxTdVcwYzjnkwFsZ2j7VzU1Ndea7jwIJFzyJa4x9c30fuTIkdWDBg36swiA1JT9RXNz809M9RhWqWWNVLelRQp+JgVcWhotEkBw9ZrNnr/45I81NTXfM8mHLT/k8pbbuiUnRgrSasnrsgOERDZKkZ78t70OEFwlex7nXCT2ibqpzrh/a9N9YpBkSdmtehogUPc8NwWAMGrUqO2qqqruM+2xltl1z+rr66/hnP8iSva89NfNzc2fmWQ0ABDE3u8Jzc3NLabvqO9ra2uvYYzdoChflm28jWkE6urq5JU7ycBY0ksGCDbeUXcsxO2aZzc3N1OPXFOH3FeOeOSx7N4rFzRtNPCYyEYscQl9tFEAgkXgXdlQNjEF6V0dHR2Xx01o0gsAwTuJIVZ9YgWtfDYFgCA6TrzgqmxGd8yYMTtUVFQ8wTmvj5h+VnvMwZTN5U6qE3GstyzH2SwNLsmIU1SbYu+fZMwt6SXV6dEr5COVSj0IYAKlDwBEJkNxW+I8YnnrYpQcNGUG0QUaLXmdyIZ/dHtcNijCtFEAgiCMGNxTFuVOuYnNZtWnY6yk7EtOQBM1eCbe9UWAINJAmyLMKQIbLEPcdikH0BTJca4AcHMEndYeKM2dDmWJdI/YVivb6nVjGAHVAkPcdmk64hhjVWsFEET9RHmURaikRQllzkgplFUe27J6amV6Etnwj05flA2T/Gw0gOBO1uFuspGjdYSWuqJylck1UfvVAhxUVFSc29jYuMTEMN37ww47bOC6dev+BuA8EbA0cODAc9944411ceszfVdXV6fNCd8XAUIPps8Wbv9zRWApgIEavq3jnE9qaWl5zsTXCPBnCkRLM8a+2dTU9C8ADrUdDUCwBhqq9iI8HmW7Sc7SCFhlJlX1yc0a+UPG2I8CW5QkAGpJrzVAsPCOet0ry1hHyVvUkUfG2KMbNmw4P67XNKpdS14nshFmZo/LhklPbVSAIIgbO3bs1plM5s+MsTM0xJbEJAJqez6VSn2jFHAg6A5k11vkXpX6rmkASnmvc7H3FkCwzEpJWuHF5IcACRM558I4K4/QluIhMnlsxOU2nPPLWlpa7rQBBy5I1l0bLVb536mpqbktZiCb0uNRCh9UY2NxdBjinH13d/fxcRMFuS58kQBKBATKjwDiRzU3N4tjm5GP5b0wsTyB1PgYidDYgdGm/nrvNVusZfMkJbJBG4m+KBtRlG90gCCIGz9+/KDu7m6xr/49TeBiJ2Ps0qamJpHkiNOGIpd34RDGmPhGlelMTI5bKisrr50+fXobtU5dOekeda/I1c3NzTfa0BuHhtra2tAd9b0BEAKXu1BI77H02V7jDQ0NDY7jCJCgOwr6PICvU4IHvTpdcCCC/L6l6eQCx3Eumjlz5utxxppwbfStFRUVP54xY8YqCpPdMiJR0tGMMRHEKQOmN4SnrBwZGyWef8lxHJEfPyrg2Csu5tzJtltN4ria4zjfcFMBqwAg+TgrMWgvRy9jbKqbOGiFBe9zRS1yvuTKlxu4BenVBGmX9aRYsE3p7oRENiTm9DXZ6PMAQVJq4xhj4lhWnYJooVyuT6fTN82ePbs9qlPCeA0dOvRszrlIFKNSKAsYY99qamoSLmeyO1jXZm1t7SjGmIhGls9Bi3PwV7a0tAglXXIburZVLs3eAAgEz0yQZKvgPVuF7JV307GKkwYir7xqy2FGKpW6orGxsclk0BsaGvZwHEfEHIj8GcFHbCncVlFRcf306dOXxaWXABBE1QsAfL+1tfXZBQsWdMWU/Sccx7msnGfvBXgaOHDg3yO8fypSlzLGvpvJZCZrLkFLjR8/fmgmkxnuOM54AGcBENfFRxkZ0hHHcePGDclms3/hnJ9DHK9Y20aePiPErATJ6LF4BM2RR5F58hYiL6yKJbIRyS5KPFOvycbnBSDk6HSN+ynuXfd7KYhfCuA2zvkjjLEF3gU37plvcZOdiGcQq70DNN/+Np1O32oCGabZIBLmdHR07C6OKgmwEbH//XgqlfpNe3t709y5c7tN9cZ5H3SB9yBASI0bN26HbDZ7Fuf8u5Y3B4quiVsDf1VZWfnP6dOniwDUHgNOrnEXXqmzNcblec75rVVVVW9Onz5drBAFLWz06NFbVFVVjXQc50L3WxXIEOl8r21ubhZZ+8geLdXYSgBBGM4fiaObAwYMSLe3t+/vOI7IgijTv4Rz/g8Ajw0aNOhDL8ZFKP/29nZhUI9RyL7g+Y9bW1v/bAIXVNkTkfHCeKdSqZ8COIT6XQ+Wi4qAF1dibyVOnjDGRCySLb1iYSLuhvirzHNKX2Iaydcdx/l5KpWaWurlXUEa6+rqagH8x71zoaxplb22EtmgSEY+SD8GuO4x2dBR3Se2GFTEuUpvguM4FwA4PcIAm0ZETHDhWv5rdXX1y1OnTu0wfRD13pSdjlC3deAToU6RtawQtFhOgEA5JkWhL6JM2Y43qdpw3dOnARAuahVopJKfM84VFRV3NzY2ikuVSgIGkkIVMQiXOI4zSZXaW9CfzWbPZYxdCUDc+kh9hAfrlqqqqj+V4uHwGnPdxVOojfdyudCc6mF6ySmqiUdxlewq5zwWDcjbgoyxHzc1NYnrwUuW4x7mdamilMhGCRzsswBB7pMAC62trSMYY+NSqdQoznkDgK0BiMhy+RHehcUA5nHOZ3DOp3d1dc3uqZV7CXzvkU89ZZRKpS4p9z0WPUJwL1cqornT6XSd4zgNqVRKbGPtwjkX6WjlbSgBKMW59JWc8zdTqdSMbDbbNHPmTJH0qGRlGuyy60EYaMqq57qI92WMHcv5/2/fDmoQBqIggG7loAIFuMMQBpYjUnpcUlIkMMmEh4H5edPDpMC6jjEuY4zjDdb3c4yW17Ztj+P77H3fn//y3Icfo+q48y+P97XWbc750x9RV0M5/iNQMRB0RYAAAQIECGQFDISstzQCBAgQIFAhYCBU1ORIAgQIECCQFTAQst7SCBAgQIBAhYCBUFGTIwkQIECAQFbAQMh6SyNAgAABAhUCBkJFTY4kQIAAAQJZAQMh6y2NAAECBAhUCBgIFTU5kgABAgQIZAUMhKy3NAIECBAgUCFgIFTU5EgCBAgQIJAVMBCy3tIIECBAgECFgIFQUZMjCRAgQIBAVsBAyHpLI0CAAAECFQIGQkVNjiRAgAABAlkBAyHrLY0AAQIECFQIGAgVNTmSAAECBAhkBQyErLc0AgQIECBQIWAgVNTkSAIECBAgkBUwELLe0ggQIECAQIWAgVBRkyMJECBAgEBWwEDIeksjQIAAAQIVAgZCRU2OJECAAAECWQEDIestjQABAgQIVAgYCBU1OZIAAQIECGQF3mwYatUhZacMAAAAAElFTkSuQmCC;" vertex="1" parent="1">
          <mxGeometry x="656" y="1480" width="98" height="78.21" as="geometry" />
        </mxCell>
        <mxCell id="4US6qlNFn62SGaoeN5Dq-1" value="&lt;span style=&quot;&quot;&gt;DynamoDB:&amp;nbsp;&lt;/span&gt;DescendentTerms" style="outlineConnect=0;dashed=0;verticalLabelPosition=bottom;verticalAlign=top;align=center;html=1;shape=mxgraph.aws3.dynamo_db;fillColor=#2E73B8;gradientColor=none;labelBackgroundColor=#ffffff;" vertex="1" parent="1">
          <mxGeometry x="835" y="1413" width="72" height="81" as="geometry" />
        </mxCell>
      </root>
    </mxGraphModel>
  </diagram>
</mxfile>
